<svg xmlns="http://www.w3.org/2000/svg" width="40" height="40" viewBox="0 0 40 40" fill="none">
  <path d="M21.25 11.5H18.75V14H21.25V11.5Z" fill="white"/>
  <path d="M18.75 14H16.25V16.5H18.75V14Z" fill="white"/>
  <path d="M23.75 14H21.25V16.5H23.75V14Z" fill="white"/>
  <path d="M16.25 16.5H13.75V19H16.25V16.5Z" fill="white"/>
  <path d="M26.25 16.5H23.75V19H26.25V16.5Z" fill="white"/>
  <path d="M13.75 19H11.25V21.5H13.75V19Z" fill="white"/>
  <path d="M28.75 19H26.25V21.5H28.75V19Z" fill="white"/>
  <path d="M11.25 21.5H8.75V24H11.25V21.5Z" fill="white"/>
  <path d="M31.25 21.5H28.75V24H31.25V21.5Z" fill="white"/>
  <path d="M8.75 24H6.25V26.5H8.75V24Z" fill="white"/>
  <path d="M33.75 24H31.25V26.5H33.75V24Z" fill="white"/>
</svg>
