<svg width="32" height="32" viewBox="0 0 32 32" fill="none" xmlns="http://www.w3.org/2000/svg">
<path d="M22 28H10V26H22V28Z" fill="white"/>
<path d="M10 26H8V24H10V26Z" fill="white"/>
<path d="M24 26H22V24H24V26Z" fill="white"/>
<path d="M8 24H6V22H8V24Z" fill="white"/>
<path d="M26 22V24H24V22H26Z" fill="white"/>
<path d="M6 22H4V10H6V22Z" fill="white"/>
<path d="M28 22H26V10H28V22Z" fill="white"/>
<path d="M16 16H20V18H14V10H16V16Z" fill="white"/>
<path d="M8 10H6V8H8V10Z" fill="white"/>
<path d="M26 10H24V8H26V10Z" fill="white"/>
<path d="M10 8H8V6H10V8Z" fill="white"/>
<path d="M24 8H22V6H24V8Z" fill="white"/>
<path d="M22 6H10V4H22V6Z" fill="white"/>
</svg>
