<svg xmlns="http://www.w3.org/2000/svg" width="160" height="160" viewBox="0 0 160 160" fill="none">
  <path d="M43.3333 111.667H33.3333V98.3334H43.3333V111.667Z" fill="white"/>
  <path d="M126.667 111.667H116.667V98.3334H126.667V111.667Z" fill="white"/>
  <path d="M64.9999 105H54.9999V95H64.9999V105Z" fill="white"/>
  <path d="M33.3333 98.3334H23.3333V85H33.3333V98.3334Z" fill="white"/>
  <path d="M136.667 98.3334H126.667V85H136.667V98.3334Z" fill="white"/>
  <path d="M74.9999 95H64.9999V85H74.9999V95Z" fill="white"/>
  <path d="M23.3333 85H13.3333V75H23.3333V85Z" fill="white"/>
  <path d="M84.9999 85H74.9999V75H84.9999V85Z" fill="white"/>
  <path d="M146.667 85H136.667V75H146.667V85Z" fill="white"/>
  <path d="M33.3333 75H23.3333V61.6667H33.3333V75Z" fill="white"/>
  <path d="M94.9999 75H84.9999V65H94.9999V75Z" fill="white"/>
  <path d="M136.667 75H126.667V61.6667H136.667V75Z" fill="white"/>
  <path d="M105 65H94.9999V55H105V65Z" fill="white"/>
  <path d="M43.3333 61.6667H33.3333V48.3334H43.3333V61.6667Z" fill="white"/>
  <path d="M126.667 61.6667H116.667V48.3334H126.667V61.6667Z" fill="white"/>
</svg>