<svg xmlns="http://www.w3.org/2000/svg" width="80" height="80" viewBox="0 0 80 80" fill="none">
  <path d="M21.6667 55.8333H16.6667V49.1666H21.6667V55.8333Z" fill="white"/>
  <path d="M63.3334 55.8333H58.3334V49.1666H63.3334V55.8333Z" fill="white"/>
  <path d="M32.5001 52.5H27.5001V47.5H32.5001V52.5Z" fill="white"/>
  <path d="M16.6667 49.1666H11.6667V42.5H16.6667V49.1666Z" fill="white"/>
  <path d="M68.3334 49.1666H63.3334V42.5H68.3334V49.1666Z" fill="white"/>
  <path d="M37.5001 47.5H32.5001V42.5H37.5001V47.5Z" fill="white"/>
  <path d="M11.6667 42.5H6.66675V37.5H11.6667V42.5Z" fill="white"/>
  <path d="M42.5001 42.5H37.5001V37.5H42.5001V42.5Z" fill="white"/>
  <path d="M73.3334 42.5H68.3334V37.5H73.3334V42.5Z" fill="white"/>
  <path d="M16.6667 37.5H11.6667V30.8333H16.6667V37.5Z" fill="white"/>
  <path d="M47.5001 37.5H42.5001V32.5H47.5001V37.5Z" fill="white"/>
  <path d="M68.3334 37.5H63.3334V30.8333H68.3334V37.5Z" fill="white"/>
  <path d="M52.5001 32.5H47.5001V27.5H52.5001V32.5Z" fill="white"/>
  <path d="M21.6667 30.8333H16.6667V24.1666H21.6667V30.8333Z" fill="white"/>
  <path d="M63.3334 30.8333H58.3334V24.1666H63.3334V30.8333Z" fill="white"/>
</svg>