<svg xmlns="http://www.w3.org/2000/svg" width="80" height="80" viewBox="0 0 80 80" fill="none">
  <path fill-rule="evenodd" clip-rule="evenodd" d="M42.4999 50H56.6666V55H51.6666V70H46.6666V73.3333H33.3333V70H28.3333V55H23.3333V50H37.4999V33.3333H42.4999V50ZM33.3333 68.3333H46.6666V65H33.3333V68.3333ZM33.3333 60H46.6666V55H33.3333V60Z" fill="white"/>
  <path d="M23.3333 50H18.3333V45H23.3333V50Z" fill="white"/>
  <path d="M61.6666 50H56.6666V45H61.6666V50Z" fill="white"/>
  <path d="M18.3333 45H13.3333V21.6666H18.3333V45Z" fill="white"/>
  <path d="M66.6666 45H61.6666V21.6666H66.6666V45Z" fill="white"/>
  <path d="M37.4999 33.3333H32.4999V23.3333H37.4999V33.3333Z" fill="white"/>
  <path d="M47.4999 33.3333H42.4999V23.3333H47.4999V33.3333Z" fill="white"/>
  <path d="M23.3333 21.6666H18.3333V16.6666H23.3333V21.6666Z" fill="white"/>
  <path d="M61.6666 21.6666H56.6666V16.6666H61.6666V21.6666Z" fill="white"/>
  <path d="M33.3333 16.6666H23.3333V11.6666H33.3333V16.6666Z" fill="white"/>
  <path d="M56.6666 16.6666H46.6666V11.6666H56.6666V16.6666Z" fill="white"/>
  <path d="M46.6666 11.6666H33.3333V6.66663H46.6666V11.6666Z" fill="white"/>
</svg>