<svg xmlns="http://www.w3.org/2000/svg" width="160" height="160" viewBox="0 0 160 160" fill="none">
  <path fill-rule="evenodd" clip-rule="evenodd" d="M85 100H113.333V110H103.333V140H93.3333V146.667H66.6666V140H56.6666V110H46.6666V100H75V66.6667H85V100ZM66.6666 136.667H93.3333V130H66.6666V136.667ZM66.6666 120H93.3333V110H66.6666V120Z" fill="white"/>
  <path d="M46.6666 100H36.6666V90H46.6666V100Z" fill="white"/>
  <path d="M123.333 100H113.333V90H123.333V100Z" fill="white"/>
  <path d="M36.6666 90H26.6666V43.3334H36.6666V90Z" fill="white"/>
  <path d="M133.333 90H123.333V43.3334H133.333V90Z" fill="white"/>
  <path d="M75 66.6667H65V46.6667H75V66.6667Z" fill="white"/>
  <path d="M95 66.6667H85V46.6667H95V66.6667Z" fill="white"/>
  <path d="M46.6666 43.3334H36.6666V33.3334H46.6666V43.3334Z" fill="white"/>
  <path d="M123.333 43.3334H113.333V33.3334H123.333V43.3334Z" fill="white"/>
  <path d="M66.6666 33.3334H46.6666V23.3334H66.6666V33.3334Z" fill="white"/>
  <path d="M113.333 33.3334H93.3333V23.3334H113.333V33.3334Z" fill="white"/>
  <path d="M93.3333 23.3334H66.6666V13.3334H93.3333V23.3334Z" fill="white"/>
</svg>