<svg xmlns="http://www.w3.org/2000/svg" width="24" height="24" viewBox="0 0 24 24" fill="none">
  <path d="M19.5 20.5H4.5V19H19.5V20.5Z" fill="white"/>
  <path d="M4.5 19H3V17.5H4.5V19Z" fill="white"/>
  <path d="M21 19H19.5V17.5H21V19Z" fill="white"/>
  <path d="M19.5 17.5H4.5V16H19.5V17.5Z" fill="white"/>
  <path d="M19.5 14H4.5V12.5H19.5V14Z" fill="white"/>
  <path d="M4.5 12.5H3V11H4.5V12.5Z" fill="white"/>
  <path d="M21 12.5H19.5V11H21V12.5Z" fill="white"/>
  <path d="M19.5 11H4.5V9.5H19.5V11Z" fill="white"/>
  <path d="M19.5 7.5H4.5V6H19.5V7.5Z" fill="white"/>
  <path d="M4.5 6H3V4.5H4.5V6Z" fill="white"/>
  <path d="M21 6H19.5V4.5H21V6Z" fill="white"/>
  <path d="M19.5 4.5H4.5V3H19.5V4.5Z" fill="white"/>
</svg>