<svg xmlns="http://www.w3.org/2000/svg" width="160" height="160" viewBox="0 0 160 160" fill="none">
  <path d="M73.3333 133.333H30V123.333H73.3333V133.333Z" fill="white"/>
  <path d="M120 133.333H96.6667V123.333H120V133.333Z" fill="white"/>
  <path d="M30 123.333H20V96.6666H30V123.333Z" fill="white"/>
  <path d="M96.6667 123.333H86.6667V113.333H96.6667V123.333Z" fill="white"/>
  <path d="M130 123.333H120V113.333H130V123.333Z" fill="white"/>
  <path d="M86.6667 90H96.6667V100H86.6667V113.333H76.6667V46.6666H86.6667V90Z" fill="white"/>
  <path d="M140 113.333H130V100H140V113.333Z" fill="white"/>
  <path d="M130 100H120V90H130V100Z" fill="white"/>
  <path d="M50 96.6666H30V86.6666H50V96.6666Z" fill="white"/>
  <path d="M120 90H96.6667V80H120V90Z" fill="white"/>
  <path d="M63.3333 86.6666H50V76.6666H63.3333V86.6666Z" fill="white"/>
  <path d="M73.3333 76.6666H63.3333V46.6666H73.3333V76.6666Z" fill="white"/>
  <path d="M140 76.6666H130V46.6666H140V76.6666Z" fill="white"/>
  <path d="M30 46.6666H20V36.6666H30V46.6666Z" fill="white"/>
  <path d="M63.3333 46.6666H50V36.6666H63.3333V46.6666Z" fill="white"/>
  <path d="M96.6667 46.6666H86.6667V36.6666H96.6667V46.6666Z" fill="white"/>
  <path d="M130 46.6666H120V36.6666H130V46.6666Z" fill="white"/>
  <path d="M50 36.6666H30V26.6666H50V36.6666Z" fill="white"/>
  <path d="M120 36.6666H96.6667V26.6666H120V36.6666Z" fill="white"/>
</svg>