<svg xmlns="http://www.w3.org/2000/svg" width="32" height="32" viewBox="0 0 32 32" fill="none"><path d="M8.66667 29.3332H6.66667V27.3332H8.66667V29.3332Z" fill="#703FFF"/><path d="M26 29.3332H24V27.3332H26V29.3332Z" fill="#703FFF"/><path d="M10 6.6665H8V21.3332H6V4.6665H10V6.6665Z" fill="#703FFF"/><path d="M26 21.3332H24V6.6665H22V4.6665H26V21.3332Z" fill="#703FFF"/><path d="M12 19.3332H10V17.3332H12V19.3332Z" fill="#703FFF"/><path d="M22 19.3332H20V17.3332H22V19.3332Z" fill="#703FFF"/><path d="M20.6667 15.9998H11.3333V13.9998H20.6667V15.9998Z" fill="#703FFF"/><path d="M11.3333 13.9998H9.33333V9.33317H11.3333V13.9998Z" fill="#703FFF"/><path d="M22.6667 13.9998H20.6667V9.33317H22.6667V13.9998Z" fill="#703FFF"/><path d="M20.6667 9.33317H11.3333V7.33317H20.6667V9.33317Z" fill="#703FFF"/><path d="M22 4.6665H10V2.6665H22V4.6665Z" fill="#703FFF"/><path fill-rule="evenodd" clip-rule="evenodd" d="M22 25.3332H24V27.3332H8.66667V25.3332H10.6667V23.3332H8V21.3332H24V23.3332H22V25.3332ZM12.6667 25.3332H20V23.3332H12.6667V25.3332Z" fill="#703FFF"/></svg>
