<svg width="1025" height="206" viewBox="0 0 1025 206" fill="none" xmlns="http://www.w3.org/2000/svg">
<path d="M127.664 32.9925C126.119 32.9925 124.589 32.8715 123.075 32.6295C121.561 32.4177 120.243 32.1152 119.122 31.7219C118.638 31.5706 118.305 31.3739 118.123 31.1319C117.971 30.8596 117.896 30.436 117.896 29.8612V26.1853C117.896 25.3684 118.214 24.96 118.85 24.96C119.001 24.96 119.38 25.0356 119.986 25.1869C121.167 25.4592 122.484 25.6861 123.938 25.8676C125.392 26.0491 126.664 26.1399 127.755 26.1399C129.33 26.1399 130.496 25.9432 131.253 25.5499C132.01 25.1264 132.389 24.4759 132.389 23.5985C132.389 23.1144 132.283 22.7211 132.071 22.4186C131.889 22.116 131.51 21.8286 130.935 21.5563C130.39 21.2538 129.466 20.8756 128.163 20.4218L125.528 19.5142C122.651 18.5158 120.576 17.2602 119.304 15.7475C118.032 14.2347 117.396 12.2531 117.396 9.80246C117.396 7.80566 117.941 6.06603 119.032 4.58356C120.122 3.10109 121.606 1.96654 123.484 1.17993C125.392 0.393309 127.573 0 130.026 0C131.359 0 132.722 0.105892 134.115 0.317674C135.508 0.529455 136.75 0.831999 137.84 1.22531C138.325 1.37658 138.643 1.58836 138.795 1.86065C138.976 2.10269 139.067 2.51113 139.067 3.08596V6.53497C139.067 7.35185 138.749 7.76028 138.113 7.76028C137.962 7.76028 137.583 7.68465 136.977 7.53337C135.069 7.01905 132.994 6.76188 130.753 6.76188C127.633 6.76188 126.074 7.57876 126.074 9.2125C126.074 9.81759 126.346 10.3319 126.891 10.7555C127.437 11.179 128.436 11.6329 129.89 12.1169L132.616 13.0246C135.735 14.0532 137.946 15.2937 139.249 16.7459C140.582 18.1678 141.248 20.0739 141.248 22.464C141.248 25.792 140.052 28.3787 137.659 30.2243C135.296 32.0698 131.965 32.9925 127.664 32.9925Z" fill="#FF9900"/>
<path d="M80.2488 32.221C79.7339 32.221 79.3553 32.1302 79.113 31.9487C78.901 31.7672 78.7344 31.4344 78.6132 30.9503L70.8898 2.90437C70.7383 2.39004 70.6626 1.96648 70.6626 1.63368C70.6626 1.05884 71.0109 0.771423 71.7075 0.771423H78.5678C79.113 0.771423 79.5067 0.892441 79.749 1.13448C79.9913 1.34626 80.1579 1.73957 80.2488 2.3144L83.7471 22.5093L87.9723 2.67746C88.0934 2.16313 88.26 1.83033 88.472 1.67906C88.7143 1.49753 89.0929 1.40677 89.6078 1.40677H95.7866C96.3318 1.40677 96.7104 1.49753 96.9224 1.67906C97.1344 1.83033 97.301 2.16313 97.4221 2.67746L101.647 22.827L105.191 2.3144C105.282 1.73957 105.448 1.34626 105.691 1.13448C105.933 0.892441 106.327 0.771423 106.872 0.771423H113.414C114.111 0.771423 114.459 1.05884 114.459 1.63368C114.459 1.96648 114.383 2.39004 114.232 2.90437L106.554 30.9503C106.403 31.4344 106.206 31.7672 105.963 31.9487C105.751 32.1302 105.403 32.221 104.918 32.221H98.3308C97.8462 32.221 97.4827 32.1302 97.2404 31.9487C96.9981 31.7672 96.8164 31.4344 96.6952 30.9503L92.5155 11.663L88.4266 30.9503C88.3357 31.4344 88.1691 31.7672 87.9268 31.9487C87.6845 32.1302 87.3059 32.221 86.791 32.221H80.2488Z" fill="#FF9900"/>
<path d="M58.4192 19.9679L55.1481 8.3048L51.9678 19.9679H58.4192ZM40.9278 32.221C40.1403 32.221 39.7466 31.9184 39.7466 31.3134C39.7466 31.0713 39.8677 30.6175 40.11 29.9519L50.1505 1.86059C50.302 1.43702 50.4837 1.1496 50.6957 0.998332C50.9077 0.84706 51.2561 0.771423 51.7407 0.771423H59.0098C59.4944 0.771423 59.8427 0.84706 60.0548 0.998332C60.2668 1.1496 60.4485 1.43702 60.5999 1.86059L70.6859 29.9519C70.9282 30.6175 71.0493 31.0713 71.0493 31.3134C71.0493 31.9184 70.6556 32.221 69.8681 32.221H63.0533C62.5687 32.221 62.2052 32.1302 61.9629 31.9487C61.7509 31.7672 61.5692 31.4041 61.4177 30.8595L60.0548 26.1398H50.3323L49.0147 30.8595C48.8633 31.4041 48.6664 31.7672 48.4241 31.9487C48.2121 32.1302 47.8638 32.221 47.3792 32.221H40.9278Z" fill="#FF9900"/>
<path d="M309.411 88.9725C307.935 88.9725 306.679 88.8131 305.641 88.4944C305.123 88.335 304.784 88.1158 304.624 87.8369C304.465 87.5978 304.385 87.1794 304.385 86.5817V84.5495C304.385 83.7525 304.704 83.354 305.342 83.354C305.542 83.354 305.781 83.374 306.06 83.4138C306.34 83.4537 306.798 83.4736 307.437 83.4736C309.152 83.4736 310.428 83.1548 311.266 82.5172C312.104 81.9195 312.922 80.5448 313.719 78.393L314.497 76.301L303.188 47.3121C303.029 46.9136 302.949 46.5948 302.949 46.3557C302.949 45.7979 303.308 45.5189 304.026 45.5189H308.873C309.71 45.5189 310.229 45.8975 310.428 46.6546L317.848 69.6067L325.388 46.6546C325.587 45.8975 326.106 45.5189 326.944 45.5189H331.491C332.209 45.5189 332.568 45.7979 332.568 46.3557C332.568 46.5948 332.488 46.9136 332.329 47.3121L319.284 80.7839C318.167 83.6927 316.851 85.7847 315.335 87.0598C313.819 88.335 311.845 88.9725 309.411 88.9725Z" fill="white"/>
<path d="M294.797 76.3609C291.646 76.3609 289.312 75.6237 287.796 74.1493C286.28 72.675 285.522 70.4236 285.522 67.3952V50.8984H281.693C280.815 50.8984 280.376 50.46 280.376 49.5834V47.85C280.376 47.332 280.476 46.9734 280.676 46.7742C280.875 46.5351 281.194 46.3757 281.633 46.296L285.762 45.6983L286.659 38.466C286.699 37.9878 286.839 37.6491 287.078 37.4499C287.318 37.2506 287.677 37.151 288.155 37.151H291.267C292.145 37.151 292.583 37.5893 292.583 38.466V45.519H299.943C300.821 45.519 301.26 45.9573 301.26 46.8339V49.5834C301.26 50.46 300.821 50.8984 299.943 50.8984H292.583V67.0366C292.583 68.3914 292.902 69.3676 293.541 69.9653C294.219 70.5232 295.336 70.8021 296.892 70.8021C297.809 70.8021 298.547 70.7424 299.106 70.6228C299.664 70.5033 300.123 70.4435 300.482 70.4435C301.16 70.4435 301.499 70.8221 301.499 71.5792V73.7309C301.499 74.3685 301.379 74.8267 301.14 75.1057C300.941 75.3447 300.542 75.544 299.943 75.7034C298.268 76.1417 296.553 76.3609 294.797 76.3609Z" fill="white"/>
<path d="M271.13 75.9425C270.252 75.9425 269.813 75.5042 269.813 74.6276V46.834C269.813 45.9574 270.252 45.519 271.13 45.519H275.558C276.435 45.519 276.874 45.9574 276.874 46.834V74.6276C276.874 75.5042 276.435 75.9425 275.558 75.9425H271.13ZM273.344 40.4983C272.027 40.4983 270.99 40.1396 270.232 39.4224C269.474 38.7051 269.095 37.7089 269.095 36.4338C269.095 35.1587 269.474 34.1625 270.232 33.4453C270.99 32.728 272.027 32.3694 273.344 32.3694C274.66 32.3694 275.697 32.728 276.455 33.4453C277.213 34.1625 277.592 35.1587 277.592 36.4338C277.592 37.7089 277.213 38.7051 276.455 39.4224C275.697 40.1396 274.66 40.4983 273.344 40.4983Z" fill="white"/>
<path d="M237.04 75.9425C236.162 75.9425 235.724 75.5042 235.724 74.6275V46.834C235.724 45.9573 236.162 45.519 237.04 45.519H240.211C240.77 45.519 241.149 45.5987 241.348 45.7581C241.588 45.9175 241.747 46.2163 241.827 46.6547L242.306 48.8662C246.056 46.037 249.965 44.6224 254.034 44.6224C256.946 44.6224 259.16 45.3995 260.676 46.9535C262.192 48.4677 262.95 50.6792 262.95 53.5881V74.6275C262.95 75.5042 262.511 75.9425 261.633 75.9425H257.205C256.328 75.9425 255.889 75.5042 255.889 74.6275V55.7996C255.889 53.8471 255.49 52.4325 254.692 51.5559C253.894 50.6394 252.618 50.1812 250.863 50.1812C248.23 50.1812 245.537 51.0578 242.784 52.8111V74.6275C242.784 75.5042 242.346 75.9425 241.468 75.9425H237.04Z" fill="white"/>
<path d="M211.131 76.839C208.299 76.839 206.105 76.062 204.549 74.5079C203.033 72.914 202.275 70.6427 202.275 67.694V46.8339C202.275 45.9572 202.714 45.5189 203.592 45.5189H208.02C208.897 45.5189 209.336 45.9572 209.336 46.8339V65.602C209.336 67.5545 209.735 68.989 210.533 69.9055C211.331 70.822 212.607 71.2803 214.363 71.2803C216.836 71.2803 219.329 70.4634 221.842 68.8297V46.8339C221.842 45.9572 222.281 45.5189 223.159 45.5189H227.587C228.464 45.5189 228.903 45.9572 228.903 46.8339V74.6275C228.903 75.5041 228.464 75.9424 227.587 75.9424H224.415C223.857 75.9424 223.458 75.8627 223.219 75.7033C223.019 75.5439 222.879 75.2451 222.8 74.8068L222.321 72.5952C218.571 75.4244 214.841 76.839 211.131 76.839Z" fill="white"/>
<path d="M151.634 75.9425C150.756 75.9425 150.317 75.5042 150.317 74.6275V46.834C150.317 45.9573 150.756 45.519 151.634 45.519H154.805C155.324 45.519 155.703 45.6186 155.942 45.8179C156.181 45.9773 156.341 46.296 156.421 46.7742L156.84 48.5673C158.834 47.2125 160.709 46.2163 162.464 45.5788C164.26 44.9412 166.055 44.6224 167.85 44.6224C171.56 44.6224 174.113 45.9972 175.509 48.7466C179.498 45.9972 183.328 44.6224 186.998 44.6224C189.83 44.6224 192.024 45.3995 193.58 46.9535C195.136 48.4677 195.914 50.6792 195.914 53.5881V74.6275C195.914 75.5042 195.475 75.9425 194.597 75.9425H190.169C189.292 75.9425 188.853 75.5042 188.853 74.6275V55.3215C188.853 53.4885 188.494 52.1735 187.776 51.3766C187.058 50.5796 185.881 50.1812 184.245 50.1812C183.009 50.1812 181.692 50.4003 180.296 50.8386C178.9 51.2371 177.683 51.7551 176.646 52.3927V74.6275C176.646 75.5042 176.207 75.9425 175.329 75.9425H170.901C170.024 75.9425 169.585 75.5042 169.585 74.6275V55.3215C169.585 53.4885 169.226 52.1735 168.508 51.3766C167.79 50.5796 166.613 50.1812 164.978 50.1812C163.821 50.1812 162.564 50.3804 161.208 50.7789C159.891 51.1375 158.615 51.6754 157.378 52.3927V74.6275C157.378 75.5042 156.939 75.9425 156.062 75.9425H151.634Z" fill="white"/>
<path d="M99.3765 75.9425C98.4989 75.9425 98.0601 75.5042 98.0601 74.6275V46.834C98.0601 45.9573 98.4989 45.519 99.3765 45.519H102.548C103.066 45.519 103.445 45.6186 103.685 45.8179C103.924 45.9773 104.084 46.296 104.163 46.7742L104.582 48.5673C106.577 47.2125 108.452 46.2163 110.207 45.5788C112.002 44.9412 113.797 44.6224 115.592 44.6224C119.302 44.6224 121.855 45.9972 123.252 48.7466C127.241 45.9972 131.07 44.6224 134.74 44.6224C137.573 44.6224 139.767 45.3995 141.323 46.9535C142.878 48.4677 143.656 50.6792 143.656 53.5881V74.6275C143.656 75.5042 143.217 75.9425 142.34 75.9425H137.912C137.034 75.9425 136.595 75.5042 136.595 74.6275V55.3215C136.595 53.4885 136.236 52.1735 135.518 51.3766C134.8 50.5796 133.623 50.1812 131.988 50.1812C130.751 50.1812 129.435 50.4003 128.039 50.8386C126.642 51.2371 125.426 51.7551 124.389 52.3927V74.6275C124.389 75.5042 123.95 75.9425 123.072 75.9425H118.644C117.767 75.9425 117.328 75.5042 117.328 74.6275V55.3215C117.328 53.4885 116.969 52.1735 116.251 51.3766C115.533 50.5796 114.356 50.1812 112.72 50.1812C111.563 50.1812 110.307 50.3804 108.95 50.7789C107.634 51.1375 106.358 51.6754 105.121 52.3927V74.6275C105.121 75.5042 104.682 75.9425 103.804 75.9425H99.3765Z" fill="white"/>
<path d="M78.0755 76.8391C73.4481 76.8391 69.8379 75.4245 67.2449 72.5953C64.6519 69.7263 63.3555 65.7615 63.3555 60.7009C63.3555 55.6402 64.6519 51.6954 67.2449 48.8662C69.8379 46.037 73.4481 44.6224 78.0755 44.6224C82.7029 44.6224 86.3131 46.037 88.9061 48.8662C91.499 51.6954 92.7955 55.6402 92.7955 60.7009C92.7955 65.7615 91.499 69.7263 88.9061 72.5953C86.3131 75.4245 82.7029 76.8391 78.0755 76.8391ZM78.0755 71.2804C83.1018 71.2804 85.615 67.7539 85.615 60.7009C85.615 53.6877 83.1018 50.1812 78.0755 50.1812C73.0491 50.1812 70.536 53.6877 70.536 60.7009C70.536 67.7539 73.0491 71.2804 78.0755 71.2804Z" fill="white"/>
<path d="M52.7524 76.5999C48.0851 76.5999 44.4949 75.2451 41.9817 72.5355C39.4685 69.8259 38.2119 65.9806 38.2119 60.9997C38.2119 55.8992 39.5084 51.9344 42.1014 49.1052C44.6943 46.276 48.3244 44.8615 52.9918 44.8615C55.3853 44.8615 57.5394 45.2201 59.4542 45.9373C60.0526 46.1764 60.4515 46.4354 60.651 46.7144C60.8504 46.9534 60.9502 47.3918 60.9502 48.0293V50.1811C60.9502 50.978 60.651 51.3765 60.0526 51.3765C59.8531 51.3765 59.4542 51.2968 58.8558 51.1374C57.2602 50.6991 55.6845 50.4799 54.1287 50.4799C51.1368 50.4799 48.9228 51.2968 47.4867 52.9306C46.0905 54.5244 45.3924 57.0149 45.3924 60.4019V61.179C45.3924 64.5261 46.0905 66.9967 47.4867 68.5906C48.9228 70.1845 51.1368 70.9814 54.1287 70.9814C55.485 70.9814 57.1206 70.7623 59.0354 70.3239C59.3944 70.2442 59.6537 70.1845 59.8132 70.1446C59.9728 70.1048 60.1324 70.0849 60.2919 70.0849C60.8903 70.0849 61.1895 70.4833 61.1895 71.2803V73.3723C61.1895 74.0098 61.0898 74.4681 60.8903 74.747C60.6909 74.9861 60.2919 75.2252 59.6936 75.4643C57.5793 76.2214 55.2656 76.5999 52.7524 76.5999Z" fill="white"/>
<path d="M1002.25 153.468C1005.78 153.468 1008.55 152.409 1010.54 150.29C1012.53 148.171 1013.53 145.218 1013.53 141.431C1013.53 137.579 1012.5 134.658 1010.44 132.668C1008.39 130.613 1005.4 129.586 1001.48 129.586C997.236 129.586 992.929 130.709 988.559 132.956C989.009 146.631 993.572 153.468 1002.25 153.468ZM1001.48 162.616C993.508 162.616 987.467 159.888 983.353 154.431C979.304 148.974 977.28 140.917 977.28 130.26C977.28 118.448 979.69 109.267 984.51 102.719C989.395 96.1706 996.239 92.8965 1005.04 92.8965C1009.67 92.8965 1014.01 93.6348 1018.06 95.1113C1019.09 95.4323 1019.76 95.8175 1020.08 96.2669C1020.4 96.7163 1020.57 97.4225 1020.57 98.3855V102.141C1020.57 102.847 1020.44 103.361 1020.18 103.682C1019.99 103.939 1019.6 104.067 1019.02 104.067C1018.57 104.067 1017.87 103.939 1016.9 103.682C1012.72 102.59 1009.25 102.045 1006.49 102.045C1000.64 102.045 996.272 103.971 993.379 107.823C990.487 111.675 988.88 117.613 988.559 125.638C993.701 122.364 999.164 120.727 1004.95 120.727C1010.99 120.727 1015.84 122.556 1019.51 126.216C1023.17 129.811 1025 134.626 1025 140.66C1025 145.09 1023.97 148.974 1021.92 152.312C1019.92 155.651 1017.16 158.219 1013.62 160.016C1010.09 161.749 1006.04 162.616 1001.48 162.616Z" fill="white"/>
<path d="M929.083 161.172C927.669 161.172 926.962 160.466 926.962 159.053V155.105C926.962 154.014 927.059 153.211 927.252 152.697C927.509 152.12 927.991 151.478 928.698 150.772C936.41 142.875 942.291 136.648 946.34 132.09C950.389 127.467 953.281 123.648 955.016 120.63C956.752 117.549 957.619 114.66 957.619 111.963C957.619 109.01 956.752 106.731 955.016 105.126C953.281 103.457 950.839 102.623 947.689 102.623C943.319 102.623 938.242 104.324 932.458 107.726C931.365 108.368 930.594 108.689 930.144 108.689C929.244 108.689 928.794 108.047 928.794 106.763V102.237C928.794 101.403 928.923 100.793 929.18 100.408C929.437 99.9583 929.983 99.4447 930.819 98.867C936.346 94.8866 942.484 92.8965 949.232 92.8965C953.41 92.8965 957.009 93.6669 960.029 95.2076C963.114 96.6842 965.46 98.7707 967.067 101.467C968.674 104.163 969.477 107.309 969.477 110.904C969.477 114.307 968.609 117.773 966.874 121.304C965.203 124.771 962.279 128.912 958.101 133.727C953.988 138.477 947.979 144.576 940.073 152.023H970.345C971.759 152.023 972.466 152.73 972.466 154.142V159.053C972.466 160.466 971.759 161.172 970.345 161.172H929.083Z" fill="white"/>
<path d="M897.565 153.179C902.128 153.179 905.438 151.157 907.495 147.112C909.616 143.068 910.676 136.616 910.676 127.756C910.676 118.897 909.616 112.445 907.495 108.4C905.438 104.356 902.128 102.334 897.565 102.334C893.002 102.334 889.66 104.356 887.539 108.4C885.482 112.445 884.454 118.897 884.454 127.756C884.454 136.616 885.482 143.068 887.539 147.112C889.66 151.157 893.002 153.179 897.565 153.179ZM897.565 162.616C889.596 162.616 883.458 159.631 879.152 153.66C874.91 147.626 872.789 138.991 872.789 127.756C872.789 116.522 874.91 107.919 879.152 101.948C883.458 95.9138 889.596 92.8965 897.565 92.8965C905.535 92.8965 911.64 95.9138 915.882 101.948C920.188 107.919 922.341 116.522 922.341 127.756C922.341 138.991 920.188 147.626 915.882 153.66C911.64 159.631 905.535 162.616 897.565 162.616Z" fill="white"/>
<path d="M825.749 161.172C824.335 161.172 823.628 160.466 823.628 159.053V155.105C823.628 154.014 823.725 153.211 823.918 152.697C824.175 152.12 824.657 151.478 825.364 150.772C833.076 142.875 838.957 136.648 843.006 132.09C847.055 127.467 849.947 123.648 851.682 120.63C853.418 117.549 854.285 114.66 854.285 111.963C854.285 109.01 853.418 106.731 851.682 105.126C849.947 103.457 847.505 102.623 844.355 102.623C839.985 102.623 834.908 104.324 829.124 107.726C828.031 108.368 827.26 108.689 826.81 108.689C825.91 108.689 825.46 108.047 825.46 106.763V102.237C825.46 101.403 825.589 100.793 825.846 100.408C826.103 99.9583 826.649 99.4447 827.485 98.867C833.012 94.8866 839.15 92.8965 845.898 92.8965C850.076 92.8965 853.675 93.6669 856.695 95.2076C859.78 96.6842 862.126 98.7707 863.733 101.467C865.34 104.163 866.143 107.309 866.143 110.904C866.143 114.307 865.275 117.773 863.54 121.304C861.869 124.771 858.945 128.912 854.767 133.727C850.654 138.477 844.645 144.576 836.74 152.023H867.011C868.425 152.023 869.132 152.73 869.132 154.142V159.053C869.132 160.466 868.425 161.172 867.011 161.172H825.749Z" fill="white"/>
<path d="M769.649 162.616C765.15 162.616 761.487 161.268 758.659 158.572C755.896 155.875 754.514 152.376 754.514 148.075C754.514 143.324 756.217 139.537 759.623 136.712C763.094 133.887 767.721 132.475 773.505 132.475C776.912 132.475 780.639 132.956 784.688 133.919V128.238C784.688 124.964 783.981 122.685 782.567 121.401C781.154 120.117 778.679 119.475 775.144 119.475C773.023 119.475 770.678 119.699 768.107 120.149C765.536 120.534 763.094 121.112 760.78 121.882C760.137 122.075 759.591 122.171 759.141 122.171C758.306 122.171 757.888 121.561 757.888 120.341V116.778C757.888 115.88 758.016 115.238 758.273 114.852C758.531 114.467 759.205 114.05 760.298 113.6C765.311 111.675 770.87 110.712 776.976 110.712C783.274 110.712 787.902 111.996 790.858 114.563C793.879 117.131 795.389 121.144 795.389 126.601V159.053C795.389 160.465 794.682 161.172 793.268 161.172H788.159C786.745 161.172 785.942 160.53 785.749 159.246L785.267 156.453C783.017 158.379 780.511 159.888 777.747 160.979C775.048 162.07 772.349 162.616 769.649 162.616ZM772.831 154.527C774.694 154.527 776.655 154.142 778.711 153.372C780.768 152.537 782.76 151.381 784.688 149.905V140.66C781.282 139.954 778.261 139.601 775.626 139.601C768.942 139.601 765.6 142.201 765.6 147.401C765.6 149.648 766.243 151.413 767.528 152.697C768.814 153.917 770.581 154.527 772.831 154.527Z" fill="white"/>
<path d="M733.188 162.616C725.09 162.616 718.953 160.433 714.775 156.068C710.598 151.702 708.509 145.347 708.509 137.001C708.509 128.719 710.533 122.267 714.582 117.645C718.696 113.023 724.416 110.712 731.742 110.712C738.041 110.712 742.861 112.445 746.203 115.912C749.609 119.314 751.313 124.161 751.313 130.453C751.313 132.635 751.152 134.914 750.831 137.29C750.702 138.124 750.445 138.702 750.059 139.023C749.738 139.28 749.288 139.408 748.71 139.408H719.017C719.21 144.287 720.559 147.883 723.066 150.194C725.637 152.441 729.557 153.564 734.827 153.564C738.683 153.564 742.733 152.954 746.974 151.734C747.488 151.606 747.874 151.51 748.131 151.446C748.388 151.381 748.613 151.349 748.806 151.349C749.77 151.349 750.252 151.991 750.252 153.275V156.742C750.252 157.705 750.091 158.411 749.77 158.861C749.513 159.246 748.87 159.631 747.842 160.016C743.536 161.749 738.651 162.616 733.188 162.616ZM741.286 131.801V131.03C741.286 127.114 740.419 124.129 738.684 122.075C737.013 120.02 734.538 118.993 731.26 118.993C727.79 118.993 724.962 120.149 722.777 122.46C720.592 124.771 719.338 127.885 719.017 131.801H741.286Z" fill="white"/>
<path d="M680.769 161.172C679.355 161.172 678.648 160.466 678.648 159.053V114.275C678.648 112.862 679.355 112.156 680.769 112.156H685.879C686.779 112.156 687.389 112.284 687.711 112.541C688.096 112.798 688.353 113.28 688.482 113.986L689.639 119.475C692.209 116.65 694.619 114.66 696.869 113.504C699.118 112.349 701.561 111.771 704.196 111.771H704.581C705.417 111.771 706.092 111.867 706.606 112.06C707.184 112.188 707.57 112.445 707.763 112.83C708.02 113.215 708.148 113.922 708.148 114.949V120.149C708.148 121.497 707.57 122.171 706.413 122.171C706.027 122.171 705.481 122.139 704.774 122.075C704.131 122.011 703.425 121.978 702.653 121.978C697.897 121.978 693.688 123.198 690.024 125.638V159.053C690.024 160.466 689.317 161.172 687.903 161.172H680.769Z" fill="white"/>
<path d="M648.379 162.616C640.923 162.616 635.107 160.337 630.929 155.779C626.752 151.157 624.663 144.769 624.663 136.616C624.663 128.462 626.752 122.107 630.929 117.549C635.107 112.991 640.923 110.712 648.379 110.712C655.834 110.712 661.65 112.991 665.828 117.549C670.005 122.107 672.094 128.462 672.094 136.616C672.094 144.769 670.005 151.157 665.828 155.779C661.65 160.337 655.834 162.616 648.379 162.616ZM648.379 153.66C656.477 153.66 660.526 147.979 660.526 136.616C660.526 125.317 656.477 119.667 648.379 119.667C640.281 119.667 636.232 125.317 636.232 136.616C636.232 147.979 640.281 153.66 648.379 153.66Z" fill="white"/>
<path d="M574.822 161.172C573.408 161.172 572.701 160.466 572.701 159.053V96.5558C572.701 95.1434 573.408 94.4373 574.822 94.4373H582.342C583.756 94.4373 584.463 95.1434 584.463 96.5558V123.808L609.335 95.978C609.849 95.4002 610.331 95.015 610.781 94.8224C611.295 94.5657 611.938 94.4373 612.709 94.4373H620.711C621.868 94.4373 622.446 94.8866 622.446 95.7854C622.446 96.3632 622.093 97.0052 621.386 97.7114L595.646 125.927L624.471 157.898C625.178 158.604 625.531 159.246 625.531 159.824C625.531 160.722 624.953 161.172 623.796 161.172H614.541C613.77 161.172 613.127 161.075 612.613 160.883C612.163 160.626 611.681 160.209 611.167 159.631L584.463 129.393V159.053C584.463 160.466 583.756 161.172 582.342 161.172H574.822Z" fill="white"/>
<path d="M510.597 182.165C508.219 182.165 506.194 181.908 504.523 181.394C503.688 181.137 503.141 180.784 502.884 180.335C502.627 179.95 502.499 179.276 502.499 178.313V175.039C502.499 173.755 503.013 173.113 504.041 173.113C504.363 173.113 504.748 173.145 505.198 173.209C505.648 173.273 506.387 173.305 507.415 173.305C510.179 173.305 512.236 172.792 513.585 171.764C514.935 170.801 516.253 168.587 517.538 165.12L518.791 161.749L500.571 115.045C500.314 114.403 500.185 113.889 500.185 113.504C500.185 112.605 500.763 112.156 501.92 112.156H509.729C511.079 112.156 511.914 112.766 512.236 113.986L524.19 150.964L536.337 113.986C536.658 112.766 537.494 112.156 538.843 112.156H546.17C547.327 112.156 547.905 112.605 547.905 113.504C547.905 113.889 547.777 114.403 547.52 115.045L526.504 168.972C524.704 173.658 522.583 177.029 520.141 179.083C517.699 181.137 514.517 182.165 510.597 182.165Z" fill="white"/>
<path d="M472.846 162.616C468.348 162.616 464.684 161.268 461.856 158.572C459.093 155.875 457.711 152.376 457.711 148.075C457.711 143.324 459.414 139.537 462.82 136.712C466.291 133.887 470.918 132.475 476.703 132.475C480.109 132.475 483.837 132.956 487.886 133.919V128.238C487.886 124.964 487.179 122.685 485.765 121.401C484.351 120.117 481.876 119.475 478.342 119.475C476.221 119.475 473.875 119.699 471.304 120.149C468.733 120.534 466.291 121.112 463.977 121.882C463.335 122.075 462.788 122.171 462.338 122.171C461.503 122.171 461.085 121.561 461.085 120.341V116.778C461.085 115.88 461.214 115.238 461.471 114.852C461.728 114.467 462.403 114.05 463.495 113.6C468.508 111.675 474.068 110.712 480.173 110.712C486.472 110.712 491.099 111.996 494.056 114.563C497.076 117.131 498.587 121.144 498.587 126.601V159.053C498.587 160.465 497.88 161.172 496.466 161.172H491.356C489.942 161.172 489.139 160.53 488.946 159.246L488.464 156.453C486.215 158.379 483.708 159.888 480.944 160.979C478.245 162.07 475.546 162.616 472.846 162.616ZM476.028 154.527C477.892 154.527 479.852 154.142 481.909 153.372C483.965 152.537 485.958 151.381 487.886 149.905V140.66C484.479 139.954 481.459 139.601 478.824 139.601C472.14 139.601 468.797 142.201 468.797 147.401C468.797 149.648 469.44 151.413 470.726 152.697C472.011 153.917 473.778 154.527 476.028 154.527Z" fill="white"/>
<path d="M402.329 161.172C400.915 161.172 400.208 160.466 400.208 159.053V96.5558C400.208 95.1434 400.915 94.4373 402.329 94.4373H423.056C432.954 94.4373 440.505 97.2941 445.711 103.008C450.981 108.721 453.616 116.939 453.616 127.66C453.616 138.445 450.949 146.727 445.615 152.505C440.345 158.283 432.793 161.172 422.96 161.172H402.329ZM411.969 151.927H421.706C435.01 151.927 441.662 144.223 441.662 128.816V126.697C441.662 111.354 435.01 103.682 421.706 103.682H411.969V151.927Z" fill="white"/>
<path d="M354.585 162.616C349.508 162.616 344.816 161.782 340.51 160.112C339.481 159.727 338.807 159.342 338.485 158.957C338.228 158.507 338.1 157.801 338.1 156.838V153.372C338.1 152.088 338.55 151.446 339.449 151.446C339.899 151.446 340.799 151.638 342.149 152.023C346.712 153.307 350.825 153.949 354.488 153.949C357.702 153.949 360.048 153.468 361.526 152.505C363.004 151.478 363.743 149.937 363.743 147.883C363.743 146.47 363.293 145.347 362.394 144.512C361.494 143.613 359.823 142.715 357.381 141.816L349.379 138.734C342.181 135.974 338.582 131.48 338.582 125.253C338.582 120.759 340.253 117.228 343.595 114.66C346.937 112.028 351.403 110.712 356.995 110.712C360.98 110.712 364.997 111.386 369.046 112.734C370.01 113.055 370.652 113.44 370.974 113.889C371.295 114.275 371.456 114.981 371.456 116.008V119.378C371.456 120.085 371.327 120.598 371.07 120.919C370.877 121.176 370.492 121.304 369.913 121.304C369.592 121.304 368.788 121.144 367.503 120.823C363.454 119.86 360.176 119.378 357.67 119.378C354.713 119.378 352.528 119.828 351.114 120.727C349.765 121.561 349.09 122.909 349.09 124.771C349.09 126.183 349.572 127.339 350.536 128.238C351.564 129.072 353.364 130.003 355.935 131.03L363.358 133.919C367.214 135.396 369.977 137.161 371.648 139.216C373.384 141.27 374.251 143.87 374.251 147.016C374.251 151.831 372.516 155.651 369.046 158.475C365.575 161.236 360.755 162.616 354.585 162.616Z" fill="white"/>
<path d="M324.65 120.341C324.007 120.341 323.557 120.245 323.3 120.052C323.043 119.796 322.915 119.411 322.915 118.897C322.915 118.512 323.043 117.581 323.3 116.104L326.482 96.3632C326.674 95.0792 327.542 94.4373 329.084 94.4373H331.013C335.383 94.4373 337.568 95.8496 337.568 98.6744C337.568 99.8299 337.086 101.756 336.122 104.452L331.013 118.512C330.755 119.154 330.402 119.635 329.952 119.956C329.566 120.213 329.02 120.341 328.313 120.341H324.65Z" fill="white"/>
<path d="M292.231 161.172C290.817 161.172 290.11 160.466 290.11 159.053V114.275C290.11 112.862 290.817 112.156 292.231 112.156H297.341C298.24 112.156 298.851 112.284 299.172 112.541C299.558 112.798 299.815 113.28 299.944 113.986L301.101 119.475C303.671 116.65 306.081 114.66 308.331 113.504C310.58 112.349 313.023 111.771 315.658 111.771H316.043C316.879 111.771 317.554 111.867 318.068 112.06C318.646 112.188 319.032 112.445 319.225 112.83C319.482 113.215 319.61 113.922 319.61 114.949V120.149C319.61 121.497 319.032 122.171 317.875 122.171C317.489 122.171 316.943 122.139 316.236 122.075C315.593 122.011 314.886 121.978 314.115 121.978C309.359 121.978 305.149 123.198 301.486 125.638V159.053C301.486 160.466 300.779 161.172 299.365 161.172H292.231Z" fill="white"/>
<path d="M265.701 162.616C257.603 162.616 251.465 160.433 247.287 156.068C243.11 151.702 241.021 145.347 241.021 137.001C241.021 128.719 243.046 122.267 247.095 117.645C251.208 113.023 256.928 110.712 264.255 110.712C270.553 110.712 275.373 112.445 278.715 115.912C282.122 119.314 283.825 124.161 283.825 130.453C283.825 132.635 283.664 134.914 283.343 137.29C283.214 138.124 282.957 138.702 282.571 139.023C282.25 139.28 281.8 139.408 281.222 139.408H251.529C251.722 144.287 253.072 147.883 255.578 150.194C258.149 152.441 262.069 153.564 267.34 153.564C271.196 153.564 275.245 152.954 279.487 151.734C280.001 151.606 280.386 151.51 280.643 151.446C280.9 151.381 281.125 151.349 281.318 151.349C282.282 151.349 282.764 151.991 282.764 153.275V156.742C282.764 157.705 282.604 158.411 282.282 158.861C282.025 159.246 281.382 159.631 280.354 160.016C276.048 161.749 271.164 162.616 265.701 162.616ZM273.799 131.801V131.03C273.799 127.114 272.931 124.129 271.196 122.075C269.525 120.02 267.05 118.993 263.773 118.993C260.302 118.993 257.474 120.149 255.289 122.46C253.104 124.771 251.85 127.885 251.529 131.801H273.799Z" fill="white"/>
<path d="M208.471 162.231C202.301 162.231 197.353 159.952 193.625 155.394C189.962 150.772 188.13 144.576 188.13 136.808C188.13 131.48 188.998 126.858 190.733 122.941C192.532 118.961 195.007 115.944 198.156 113.889C201.305 111.771 204.936 110.712 209.05 110.712C214.191 110.712 218.883 112.381 223.125 115.719V92.0298C223.125 90.6174 223.832 89.9113 225.246 89.9113H232.38C233.794 89.9113 234.501 90.6174 234.501 92.0298V159.053C234.501 160.466 233.794 161.172 232.38 161.172H226.788C225.374 161.172 224.539 160.53 224.282 159.246L223.607 156.453C219.237 160.305 214.191 162.231 208.471 162.231ZM212.038 153.275C215.83 153.275 219.526 152.055 223.125 149.616V123.134C219.847 120.823 216.216 119.667 212.231 119.667C207.925 119.667 204.744 121.048 202.687 123.808C200.695 126.504 199.698 130.677 199.698 136.327C199.698 147.626 203.812 153.275 212.038 153.275Z" fill="white"/>
<path d="M178.029 161.749C174.237 161.749 171.344 160.69 169.352 158.572C167.424 156.389 166.46 153.243 166.46 149.134V92.0298C166.46 90.6174 167.167 89.9113 168.581 89.9113H175.715C177.129 89.9113 177.836 90.6174 177.836 92.0298V148.268C177.836 149.873 178.125 151.028 178.703 151.735C179.346 152.441 180.374 152.794 181.788 152.794C182.11 152.794 182.463 152.762 182.849 152.697C183.234 152.633 183.556 152.601 183.813 152.601C185.034 152.601 185.645 153.275 185.645 154.623V158.572C185.645 159.92 184.97 160.754 183.62 161.075C181.692 161.525 179.828 161.749 178.029 161.749Z" fill="white"/>
<path d="M147.803 161.172C146.389 161.172 145.682 160.466 145.682 159.053V114.275C145.682 112.862 146.389 112.156 147.803 112.156H154.937C156.351 112.156 157.058 112.862 157.058 114.275V159.053C157.058 160.466 156.351 161.172 154.937 161.172H147.803ZM151.37 104.067C149.249 104.067 147.578 103.489 146.357 102.334C145.135 101.178 144.525 99.5732 144.525 97.5188C144.525 95.4645 145.135 93.8595 146.357 92.7039C147.578 91.5484 149.249 90.9706 151.37 90.9706C153.491 90.9706 155.162 91.5484 156.383 92.7039C157.604 93.8595 158.214 95.4645 158.214 97.5188C158.214 99.5732 157.604 101.178 156.383 102.334C155.162 103.489 153.491 104.067 151.37 104.067Z" fill="white"/>
<path d="M107.603 162.616C103.04 162.616 99.5054 161.364 96.9988 158.86C94.5566 156.293 93.3354 152.633 93.3354 147.883V114.275C93.3354 112.862 94.0424 112.156 95.4564 112.156H102.59C104.004 112.156 104.711 112.862 104.711 114.275V144.512C104.711 147.658 105.354 149.969 106.639 151.446C107.925 152.922 109.981 153.66 112.809 153.66C116.794 153.66 120.811 152.344 124.86 149.712V114.275C124.86 112.862 125.567 112.156 126.981 112.156H134.115C135.529 112.156 136.236 112.862 136.236 114.275V159.053C136.236 160.465 135.529 161.172 134.115 161.172H129.005C128.105 161.172 127.463 161.043 127.077 160.786C126.756 160.53 126.531 160.048 126.402 159.342L125.631 155.779C119.59 160.337 113.58 162.616 107.603 162.616Z" fill="white"/>
<path d="M63.5862 153.275C67.6995 153.275 70.7523 151.895 72.7447 149.134C74.7371 146.31 75.7332 142.041 75.7332 136.327C75.7332 130.677 74.7371 126.504 72.7447 123.808C70.8166 121.048 67.7959 119.667 63.6826 119.667C59.5051 119.667 55.6489 120.887 52.1141 123.327V149.52C55.7132 152.023 59.5372 153.275 63.5862 153.275ZM66.4784 162.231C63.5862 162.231 60.8226 161.717 58.1876 160.69C55.5525 159.599 53.2709 158.09 51.3428 156.164L50.668 159.246C50.4109 160.53 49.5754 161.172 48.1615 161.172H42.8592C41.4453 161.172 40.7383 160.466 40.7383 159.053V92.0298C40.7383 90.6174 41.4453 89.9113 42.8592 89.9113H49.9931C51.4071 89.9113 52.1141 90.6174 52.1141 92.0298V116.489C56.6772 112.638 61.7224 110.712 67.2496 110.712C73.3553 110.712 78.2076 112.991 81.8067 117.549C85.4701 122.107 87.3018 128.238 87.3018 135.942C87.3018 141.27 86.402 145.925 84.6025 149.905C82.8672 153.885 80.4249 156.935 77.2757 159.053C74.1908 161.172 70.5916 162.231 66.4784 162.231Z" fill="white"/>
<rect x="17.7295" y="49.931" width="3.3243" height="156.069" fill="#FF9900"/>
<rect y="185.523" width="3.32062" height="158.459" transform="rotate(-90 0 185.523)" fill="#FF9900"/>
</svg>
