<svg width="801" height="416" viewBox="0 0 801 416" fill="none" xmlns="http://www.w3.org/2000/svg">
<g clip-path="url(#clip0_93_964)">
<path d="M32 0L32 448" stroke="#41424A"/>
<path d="M64 0L64 448" stroke="#41424A"/>
<path d="M96.0001 0L96 448" stroke="#41424A"/>
<path d="M128 0L128 448" stroke="#41424A"/>
<path d="M160 0L160 448" stroke="#41424A"/>
<path d="M192 0L192 448" stroke="#41424A"/>
<path d="M224 0L224 448" stroke="#41424A"/>
<path d="M256 0L256 448" stroke="#41424A"/>
<path d="M288 0L288 448" stroke="#41424A"/>
<path d="M320 0L320 448" stroke="#41424A"/>
<path d="M352 0L352 448" stroke="#41424A"/>
<path d="M384 0L384 448" stroke="#41424A"/>
<path d="M416 0L416 448" stroke="#41424A"/>
<path d="M448 0L448 448" stroke="#41424A"/>
<path d="M480 0L480 448" stroke="#41424A"/>
<path d="M512 0L512 448" stroke="#41424A"/>
<path d="M544 0L544 448" stroke="#41424A"/>
<path d="M576 0L576 448" stroke="#41424A"/>
<path d="M608 0L608 448" stroke="#41424A"/>
<path d="M640 0L640 448" stroke="#41424A"/>
<path d="M672 0L672 448" stroke="#41424A"/>
<path d="M704 0L704 448" stroke="#41424A"/>
<path d="M736 0L736 448" stroke="#41424A"/>
<path d="M768 0L768 448" stroke="#41424A"/>
<path d="M800 0L800 448" stroke="#41424A"/>
<line y1="31.5" x2="1057" y2="31.5" stroke="#41424A"/>
<line y1="63.5" x2="1057" y2="63.5" stroke="#41424A"/>
<line y1="95.5" x2="1057" y2="95.5" stroke="#41424A"/>
<line y1="127.5" x2="1057" y2="127.5" stroke="#41424A"/>
<line y1="159.5" x2="1057" y2="159.5" stroke="#41424A"/>
<line y1="191.5" x2="1057" y2="191.5" stroke="#41424A"/>
<line y1="223.5" x2="1057" y2="223.5" stroke="#41424A"/>
<line y1="255.5" x2="1057" y2="255.5" stroke="#41424A"/>
<line y1="287.5" x2="1057" y2="287.5" stroke="#41424A"/>
<line y1="319.5" x2="1057" y2="319.5" stroke="#41424A"/>
<line y1="351.5" x2="1057" y2="351.5" stroke="#41424A"/>
<line y1="383.5" x2="1057" y2="383.5" stroke="#41424A"/>
<line y1="415.5" x2="1057" y2="415.5" stroke="#41424A"/>
<path d="M31.5 31H320.5V95H704.5V384H31.5V31Z" fill="#FF9900" fill-opacity="0.6"/>
<path d="M65.44 84.288V71.04H67.624V68.856H74.392V71.04H76.6V77.76H74.392V79.944H67.864V84.288H65.44ZM67.864 77.52H74.152V71.28H67.864V77.52ZM78.7759 84.288V75.384H80.9599V73.2H87.7279V75.384H89.9359V77.76H87.4879V75.6H81.1999V84.288H78.7759ZM94.2959 84.288V82.128H92.1119V75.384H94.2959V73.2H101.064V75.384H103.272V82.128H101.064V84.288H94.2959ZM94.5359 81.888H100.824V75.6H94.5359V81.888ZM108.358 88.632V86.472H106.174V84.072H108.598V86.232H114.91V82.128H108.358V79.944H106.174V75.384H108.358V73.2H115.15V75.384H117.334V86.472H115.15V88.632H108.358ZM108.598 79.704H114.91V75.6H108.598V79.704ZM120.237 84.288V75.384H122.421V73.2H129.189V75.384H131.397V77.76H128.949V75.6H122.661V84.288H120.237ZM135.757 84.288V82.128H133.573V75.384H135.757V73.2H142.525V75.384H144.733V81.888H146.917V84.288H144.493V82.128H142.525V84.288H135.757ZM135.997 81.888H142.285V75.6H135.997V81.888ZM149.088 84.288V73.2H155.88V75.384H157.8V73.2H162.432V75.384H164.592V84.288H162.192V75.6H158.04V84.288H155.64V75.6H151.512V84.288H149.088ZM172.292 84.288V73.2H179.084V75.384H181.004V73.2H185.636V75.384H187.796V84.288H185.396V75.6H181.244V84.288H178.844V75.6H174.716V84.288H172.292ZM190.69 84.288V73.2H193.114V84.288H190.69ZM190.69 71.28V68.856H193.114V71.28H190.69ZM196.01 84.288V81.888H204.722V79.944H198.194V77.76H196.01V75.384H198.194V73.2H207.17V75.6H198.434V77.52H204.962V79.704H207.17V82.128H204.962V84.288H196.01ZM209.604 84.288V81.888H218.316V79.944H211.788V77.76H209.604V75.384H211.788V73.2H220.764V75.6H212.028V77.52H218.556V79.704H220.764V82.128H218.556V84.288H209.604ZM223.667 84.288V73.2H226.091V84.288H223.667ZM223.667 71.28V68.856H226.091V71.28H223.667ZM230.702 84.288V82.128H228.518V75.384H230.702V73.2H237.47V75.384H239.678V82.128H237.47V84.288H230.702ZM230.942 81.888H237.23V75.6H230.942V81.888ZM242.581 84.288V73.2H251.533V75.384H253.741V84.288H251.293V75.6H245.005V84.288H242.581Z" fill="white"/>
<path d="M64.806 168.458L80.306 125.926H88.118L103.246 168.458H95.372L91.528 157.67H75.718L71.874 168.458H64.806ZM83.468 134.978L77.516 151.966H89.606L83.654 134.978H83.468ZM113.176 168.458L102.574 125.926H110.324L117.578 157.422H117.764L126.444 125.926H132.644L141.2 157.422H141.386L148.702 125.926H155.584L145.168 168.458H137.604L129.296 137.582H129.11L120.678 168.458H113.176ZM171.101 169.202C165.521 169.202 161.305 168.024 158.391 166.474V160.46C161.801 161.948 165.831 163.064 170.481 163.064C176.185 163.064 178.603 160.708 178.603 156.864C178.603 153.33 177.053 151.966 172.403 150.54L168.373 149.424C162.359 147.75 158.701 144.526 158.701 137.334C158.701 130.142 163.351 125.244 172.961 125.244C178.541 125.244 181.579 126.298 183.935 127.538V133.49C181.269 132.374 177.797 131.382 173.085 131.382C168.621 131.382 166.141 133.242 166.141 136.652C166.141 140 167.381 141.426 171.597 142.604L175.565 143.844C182.261 145.766 186.291 148.556 186.291 156.12C186.291 164.18 181.393 169.202 171.101 169.202ZM220.448 169.016C211.024 169.016 205.196 163.746 205.196 153.206V152.214C205.196 141.178 211.892 135.97 220.758 135.97C224.974 135.97 227.516 136.776 229.562 137.892V143.472C226.896 142.418 224.974 141.736 221.192 141.736C215.86 141.736 212.574 145.084 212.574 151.47V152.896C212.574 160.212 215.612 163.312 221.688 163.312C225.594 163.312 228.26 162.072 229.872 161.328V166.536C227.826 167.838 224.85 169.016 220.448 169.016ZM248.147 169.016C238.413 169.016 233.019 163.126 233.019 153.144V152.152C233.019 141.922 239.219 135.97 248.209 135.97C257.757 135.97 263.275 141.798 263.275 151.966V152.834C263.275 163.126 257.075 169.016 248.147 169.016ZM248.271 163.622C253.045 163.622 255.835 160.336 255.835 153.454V151.904C255.835 143.596 252.425 141.364 248.085 141.364C243.187 141.364 240.335 144.774 240.335 151.656V153.144C240.335 161.39 243.807 163.622 248.271 163.622ZM268.633 168.458V136.528H275.515V139.38H275.763C278.491 137.458 281.777 135.97 285.497 135.97C289.155 135.97 291.635 137.086 293.061 139.566H293.433C296.719 137.334 300.315 135.97 303.911 135.97C309.553 135.97 312.715 138.388 312.715 144.712V168.458H305.647V146.386C305.647 143.224 304.407 141.922 300.749 141.922C298.641 141.922 296.533 142.542 294.115 143.72C294.177 144.216 294.239 144.526 294.239 145.146V168.458H287.233V146.386C287.233 143.224 285.931 141.922 282.335 141.922C280.041 141.922 277.685 142.666 275.763 143.658V168.458H268.633ZM319.706 168.458V136.528H326.588V139.38H326.836C329.564 137.458 332.85 135.97 336.57 135.97C340.228 135.97 342.708 137.086 344.134 139.566H344.506C347.792 137.334 351.388 135.97 354.984 135.97C360.626 135.97 363.788 138.388 363.788 144.712V168.458H356.72V146.386C356.72 143.224 355.48 141.922 351.822 141.922C349.714 141.922 347.606 142.542 345.188 143.72C345.25 144.216 345.312 144.526 345.312 145.146V168.458H338.306V146.386C338.306 143.224 337.004 141.922 333.408 141.922C331.114 141.922 328.758 142.666 326.836 143.658V168.458H319.706ZM380.264 169.016C374.064 169.016 370.592 165.978 370.592 159.716V136.528H377.722V158.352C377.722 161.824 378.962 163.25 382.93 163.25C385.72 163.25 388.014 162.258 390.06 161.328V136.528H397.19V168.458H390.99L390.37 165.668H390.06C387.394 167.59 384.294 169.016 380.264 169.016ZM404.292 168.458V136.528H411.174V139.38H411.422C414.15 137.396 418.056 135.97 421.9 135.97C428.038 135.97 431.2 138.45 431.2 144.774V168.458H424.008V146.448C424.008 143.224 422.954 141.922 418.614 141.922C416.134 141.922 413.344 142.728 411.422 143.658V168.458H404.292ZM438.354 168.458V136.528H445.546V168.458H438.354ZM438.354 131.258V124.748H445.608V131.258H438.354ZM463.826 168.83C458.308 168.83 454.774 166.598 454.774 160.584V142.108H450.31V136.528H454.774V129.026H461.78V136.528H469.406V142.108H461.78V159.592C461.78 162.258 462.772 163.25 466.12 163.25C467.36 163.25 468.662 163.064 469.778 162.754V167.528C468.538 168.148 466.802 168.83 463.826 168.83ZM478.703 177.634C477.091 177.634 474.983 177.2 474.053 176.58V171.806C474.859 171.992 476.037 172.116 477.153 172.116C480.067 172.116 481.989 171.372 483.105 168.334L483.973 166.102L471.945 136.528H479.509L487.569 157.236H487.817L495.257 136.528H502.139L489.801 169.326C487.693 175.402 484.593 177.634 478.703 177.634ZM80.678 233.14C76.4 233.14 71.192 232.458 68.216 231.28V187.136H75.346V202.698H75.656C78.012 201.148 80.864 199.97 85.08 199.97C91.032 199.97 97.232 203.628 97.232 215.408V216.152C97.232 227.436 91.466 233.14 80.678 233.14ZM81.112 227.684C85.762 227.684 89.792 225.514 89.792 217.206V215.966C89.792 208.216 87.25 205.798 81.732 205.798C79.066 205.798 76.648 206.728 75.346 207.348V226.754C76.586 227.188 78.384 227.684 81.112 227.684ZM112.245 233.016C106.045 233.016 102.573 229.978 102.573 223.716V200.528H109.703V222.352C109.703 225.824 110.943 227.25 114.911 227.25C117.701 227.25 119.995 226.258 122.041 225.328V200.528H129.171V232.458H122.971L122.351 229.668H122.041C119.375 231.59 116.275 233.016 112.245 233.016ZM136.397 232.458V200.528H143.589V232.458H136.397ZM136.397 195.258V188.748H143.651V195.258H136.397ZM151.081 232.458V187.136H158.273V232.458H151.081ZM176.987 233.016C170.663 233.016 164.029 228.986 164.029 217.454V216.648C164.029 204.93 169.981 199.97 178.289 199.97C182.009 199.97 184.427 200.962 185.915 201.768V187.136H192.983V232.458H186.907L186.287 229.916H186.039C184.055 231.776 181.079 233.016 176.987 233.016ZM179.467 227.498C182.443 227.498 184.675 226.258 185.915 225.328V207.162C184.737 206.232 182.257 205.488 179.405 205.488C174.445 205.488 171.345 208.092 171.345 215.966V217.144C171.345 225.08 174.631 227.498 179.467 227.498ZM214.196 233.016C203.594 233.016 198.386 227.002 198.386 216.896V216.028C198.386 205.302 204.896 200.032 213.018 200.032C222.442 200.032 226.534 205.302 226.534 215.47V218.446H205.702C206.136 225.08 209.546 227.436 215.622 227.436C219.714 227.436 222.69 226.506 225.48 225.08V230.04C223.31 231.466 219.59 233.016 214.196 233.016ZM212.894 205.302C209.608 205.302 206.198 207.038 205.702 213.548H219.28C219.28 207.534 217.048 205.302 212.894 205.302ZM231.881 232.458V200.528H238.763V204.248H239.011C240.747 201.954 244.033 200.28 247.381 200.28C248.249 200.28 249.055 200.342 249.365 200.466V206.79C248.559 206.666 247.505 206.604 246.761 206.604C243.909 206.604 241.057 207.41 239.011 208.712V232.458H231.881ZM262.755 232.954C258.601 232.954 254.881 232.21 252.215 230.784V225.576C254.881 226.63 257.237 227.56 261.701 227.56C266.165 227.56 268.025 226.072 268.025 223.716C268.025 221.422 266.785 220.306 263.313 219.562L260.337 218.88C255.439 217.888 252.215 215.408 252.215 209.704C252.215 203.814 255.997 200.032 264.057 200.032C268.397 200.032 271.125 200.838 273.233 201.768V207.162C271.373 206.356 268.273 205.426 264.677 205.426C260.957 205.426 258.973 206.666 258.973 209.146C258.973 211.378 260.213 212.184 263.251 212.928L266.289 213.61C272.551 215.036 274.969 217.516 274.969 223.034C274.969 229.668 270.567 232.954 262.755 232.954ZM296.235 232.458V189.926H310.185C323.205 189.926 330.521 196.188 330.521 210.076V211.316C330.521 224.956 323.887 232.458 310.247 232.458H296.235ZM303.861 226.444H310.309C318.617 226.444 322.461 222.352 322.461 212.06V210.014C322.461 199.288 317.811 195.94 309.751 195.94H303.861V226.444ZM344.328 233.016C338.562 233.016 334.532 230.102 334.532 223.964C334.532 218.074 338.438 215.346 344.762 214.416L352.264 213.548V211.13C352.264 206.79 350.342 205.798 344.948 205.798C341.848 205.798 339.12 206.232 337.198 206.666V201.768C340.174 200.59 343.584 200.032 347.738 200.032C355.116 200.032 359.394 202.884 359.394 209.518V232.458H353.504L352.946 229.854H352.574C351.024 231.652 348.482 233.016 344.328 233.016ZM346.498 227.994C348.792 227.994 351.086 227.188 352.264 226.072V218.198L346.374 218.818C343.212 219.066 341.538 220.368 341.538 223.592C341.538 226.63 343.584 227.994 346.498 227.994ZM370.111 241.634C368.499 241.634 366.391 241.2 365.461 240.58V235.806C366.267 235.992 367.445 236.116 368.561 236.116C371.475 236.116 373.397 235.372 374.513 232.334L375.381 230.102L363.353 200.528H370.917L378.977 221.236H379.225L386.665 200.528H393.547L381.209 233.326C379.101 239.402 376.001 241.634 370.111 241.634ZM437.636 232.458L421.95 210.882C427.158 203.876 432.428 196.87 437.698 189.926H445.572L430.32 210.076C435.714 217.516 441.108 224.956 446.44 232.458H437.636ZM413.58 232.458V189.926H421.206V232.458H413.58ZM464.038 233.016C454.304 233.016 448.91 227.126 448.91 217.144V216.152C448.91 205.922 455.11 199.97 464.1 199.97C473.648 199.97 479.166 205.798 479.166 215.966V216.834C479.166 227.126 472.966 233.016 464.038 233.016ZM464.162 227.622C468.936 227.622 471.726 224.336 471.726 217.454V215.904C471.726 207.596 468.316 205.364 463.976 205.364C459.078 205.364 456.226 208.774 456.226 215.656V217.144C456.226 225.39 459.698 227.622 464.162 227.622ZM484.524 232.458V200.528H491.406V204.248H491.654C493.39 201.954 496.676 200.28 500.024 200.28C500.892 200.28 501.698 200.342 502.008 200.466V206.79C501.202 206.666 500.148 206.604 499.404 206.604C496.552 206.604 493.7 207.41 491.654 208.712V232.458H484.524ZM520.667 233.016C510.065 233.016 504.857 227.002 504.857 216.896V216.028C504.857 205.302 511.367 200.032 519.489 200.032C528.913 200.032 533.005 205.302 533.005 215.47V218.446H512.173C512.607 225.08 516.017 227.436 522.093 227.436C526.185 227.436 529.161 226.506 531.951 225.08V230.04C529.781 231.466 526.061 233.016 520.667 233.016ZM519.365 205.302C516.079 205.302 512.669 207.038 512.173 213.548H525.751C525.751 207.534 523.519 205.302 519.365 205.302ZM546.351 233.016C540.585 233.016 536.555 230.102 536.555 223.964C536.555 218.074 540.461 215.346 546.785 214.416L554.287 213.548V211.13C554.287 206.79 552.365 205.798 546.971 205.798C543.871 205.798 541.143 206.232 539.221 206.666V201.768C542.197 200.59 545.607 200.032 549.761 200.032C557.139 200.032 561.417 202.884 561.417 209.518V232.458H555.527L554.969 229.854H554.597C553.047 231.652 550.505 233.016 546.351 233.016ZM548.521 227.994C550.815 227.994 553.109 227.188 554.287 226.072V218.198L548.397 218.818C545.235 219.066 543.561 220.368 543.561 223.592C543.561 226.63 545.607 227.994 548.521 227.994ZM609.35 219.934H565.88V214.858H609.35V219.934ZM604.004 209.458H571.712V192.718H578.03V204.436H604.004V209.458ZM604.328 237.97H571.442V223.768H577.706V232.948H604.328V237.97Z" fill="white"/>
<path d="M70.504 310.208C67.096 310.208 65.008 308.192 65.008 304.28V303.92C65.008 299.696 67.504 297.872 70.576 297.872C72.136 297.872 73.072 298.16 73.864 298.664V300.2C72.808 299.72 72.04 299.432 70.48 299.432C68.32 299.432 66.904 300.896 66.904 303.632V304.208C66.904 307.256 68.176 308.624 70.72 308.624C72.328 308.624 73.384 308.12 73.984 307.784V309.272C73.216 309.728 72.16 310.208 70.504 310.208ZM79.9887 310.208C76.6287 310.208 74.6127 308.048 74.6127 304.256V303.896C74.6127 300.128 76.7967 297.872 80.0127 297.872C83.3727 297.872 85.4127 300.056 85.4127 303.824V304.16C85.4127 307.952 83.2047 310.208 79.9887 310.208ZM80.0367 308.696C82.1967 308.696 83.5407 307.184 83.5407 304.376V303.776C83.5407 300.464 81.9327 299.384 79.9887 299.384C77.8287 299.384 76.4847 300.92 76.4847 303.704V304.304C76.4847 307.616 78.0447 308.696 80.0367 308.696ZM86.977 309.992V298.088H88.729V299.12H88.825C89.929 298.424 91.201 297.872 92.545 297.872C93.889 297.872 94.849 298.304 95.401 299.192H95.497C96.793 298.352 98.185 297.872 99.529 297.872C101.593 297.872 102.793 298.808 102.793 301.112V309.992H100.993V301.496C100.993 300.056 100.417 299.456 98.809 299.456C97.873 299.456 96.865 299.816 95.737 300.32C95.785 300.608 95.809 300.824 95.809 301.112V309.992H93.985V301.496C93.985 300.056 93.409 299.456 91.825 299.456C90.817 299.456 89.761 299.864 88.801 300.32V309.992H86.977ZM105.043 309.992V298.088H106.795V299.12H106.891C107.995 298.424 109.267 297.872 110.611 297.872C111.955 297.872 112.915 298.304 113.467 299.192H113.563C114.859 298.352 116.251 297.872 117.595 297.872C119.659 297.872 120.859 298.808 120.859 301.112V309.992H119.059V301.496C119.059 300.056 118.483 299.456 116.875 299.456C115.939 299.456 114.931 299.816 113.803 300.32C113.851 300.608 113.875 300.824 113.875 301.112V309.992H112.051V301.496C112.051 300.056 111.475 299.456 109.891 299.456C108.883 299.456 107.827 299.864 106.867 300.32V309.992H105.043ZM123.108 309.992V298.088H124.86V299.12H124.956C126.06 298.4 127.596 297.872 129.06 297.872C131.388 297.872 132.516 298.808 132.516 301.112V309.992H130.692V301.496C130.692 300.056 130.188 299.456 128.292 299.456C127.164 299.456 125.916 299.864 124.932 300.32V309.992H123.108ZM138.351 310.208C136.023 310.208 134.703 309.032 134.703 306.728V298.088H136.551V306.464C136.551 308 137.103 308.624 138.855 308.624C140.127 308.624 141.183 308.168 142.167 307.688V298.088H143.991V309.992H142.407L142.239 308.912H142.143C141.063 309.656 139.791 310.208 138.351 310.208ZM146.302 309.992V298.088H148.054V299.12H148.15C149.254 298.4 150.79 297.872 152.254 297.872C154.582 297.872 155.71 298.808 155.71 301.112V309.992H153.886V301.496C153.886 300.056 153.382 299.456 151.486 299.456C150.358 299.456 149.11 299.864 148.126 300.32V309.992H146.302ZM158.041 309.992V298.112H159.865V309.992H158.041ZM158.017 295.712V293.792H159.889V295.712H158.017ZM165.975 310.136C164.103 310.136 162.879 309.32 162.879 307.304V299.624H161.175V298.112H162.879V295.28H164.703V298.112H167.751V299.624H164.703V307.016C164.703 308.168 165.087 308.624 166.455 308.624C166.959 308.624 167.511 308.552 167.991 308.408V309.656C167.511 309.872 167.007 310.136 165.975 310.136ZM170.309 313.568C169.757 313.568 169.157 313.4 168.821 313.232V311.864C169.109 311.912 169.541 312.032 169.973 312.032C171.125 312.032 171.845 311.84 172.349 310.544L172.709 309.56L168.149 298.088H170.117L173.621 307.136H173.669L176.885 298.088H178.733L174.053 310.736C173.261 312.848 172.277 313.568 170.309 313.568ZM189.224 310.256C187.832 310.256 185.936 310.016 184.88 309.608V292.808H186.728V298.88H186.848C187.76 298.328 188.888 297.872 190.52 297.872C192.8 297.872 195.152 299.24 195.152 303.704V304.016C195.152 308 193.064 310.256 189.224 310.256ZM189.32 308.72C191.456 308.72 193.232 307.712 193.232 304.304V303.824C193.232 300.512 192.08 299.432 189.68 299.432C188.456 299.432 187.352 299.912 186.728 300.2V308.288C187.28 308.528 188.12 308.72 189.32 308.72ZM200.334 310.208C198.006 310.208 196.686 309.032 196.686 306.728V298.088H198.534V306.464C198.534 308 199.086 308.624 200.838 308.624C202.11 308.624 203.166 308.168 204.15 307.688V298.088H205.974V309.992H204.39L204.222 308.912H204.126C203.046 309.656 201.774 310.208 200.334 310.208ZM208.357 309.992V298.112H210.181V309.992H208.357ZM208.333 295.712V293.792H210.205V295.712H208.333ZM212.57 309.992V292.808H214.418V309.992H212.57ZM221.008 310.208C218.632 310.208 216.064 308.768 216.064 304.376V304.064C216.064 299.744 218.296 297.872 221.368 297.872C222.832 297.872 223.84 298.28 224.488 298.664V292.808H226.336V309.992H224.8L224.584 309.008H224.488C223.768 309.704 222.616 310.208 221.008 310.208ZM221.56 308.696C222.952 308.696 223.888 308.168 224.488 307.688V300.2C223.936 299.768 222.832 299.432 221.608 299.432C219.352 299.432 217.984 300.608 217.984 303.824V304.304C217.984 307.64 219.424 308.696 221.56 308.696ZM233.534 310.208C229.79 310.208 227.894 307.928 227.894 304.208V303.872C227.894 299.72 230.342 297.872 233.078 297.872C236.342 297.872 237.878 299.768 237.878 303.464V304.496H229.766C229.862 307.472 231.278 308.624 233.822 308.624C235.406 308.624 236.462 308.24 237.542 307.736V309.104C236.822 309.608 235.454 310.208 233.534 310.208ZM233.03 299.36C231.542 299.36 229.958 300.224 229.766 303.032H235.958C235.958 300.44 234.974 299.36 233.03 299.36ZM239.438 309.992V298.088H241.19V299.432H241.31C241.982 298.664 243.278 297.968 244.622 297.968C244.886 297.968 245.222 297.992 245.342 298.016V299.672C245.03 299.624 244.67 299.6 244.478 299.6C243.278 299.6 242.126 300.032 241.286 300.632V309.992H239.438ZM251.959 293.072C255.199 293.072 257.671 295.064 257.671 298.112C257.671 300.872 255.655 302.72 252.895 303.08V306.488C255.247 306.344 257.383 306.2 258.727 306.008L258.871 307.472C257.215 307.712 254.335 307.928 251.791 308.096C249.487 308.216 247.423 308.288 245.671 308.288L245.335 306.68C246.895 306.68 248.935 306.68 251.071 306.584V303.08C248.287 302.768 246.271 300.92 246.271 298.136C246.271 295.088 248.719 293.072 251.959 293.072ZM251.959 294.632C249.679 294.632 248.047 296 248.047 298.136C248.047 300.248 249.703 301.592 251.959 301.592C254.311 301.592 255.871 300.248 255.871 298.16C255.871 296 254.335 294.632 251.959 294.632ZM265.231 302.024H261.871V312.68H260.023V291.704H261.871V300.488H265.231V302.024ZM271.205 309.992V292.808H273.029V299.12H273.149C274.181 298.376 275.693 297.872 277.157 297.872C279.485 297.872 280.613 298.832 280.613 301.136V309.992H278.789V301.496C278.789 300.056 278.285 299.456 276.389 299.456C275.261 299.456 274.013 299.864 273.029 300.344V309.992H271.205ZM287.768 310.208C284.024 310.208 282.128 307.928 282.128 304.208V303.872C282.128 299.72 284.576 297.872 287.312 297.872C290.576 297.872 292.112 299.768 292.112 303.464V304.496H284C284.096 307.472 285.512 308.624 288.056 308.624C289.64 308.624 290.696 308.24 291.776 307.736V309.104C291.056 309.608 289.688 310.208 287.768 310.208ZM287.264 299.36C285.776 299.36 284.192 300.224 284 303.032H290.192C290.192 300.44 289.208 299.36 287.264 299.36ZM293.672 309.992V298.088H295.424V299.432H295.544C296.216 298.664 297.512 297.968 298.856 297.968C299.12 297.968 299.456 297.992 299.576 298.016V299.672C299.264 299.624 298.904 299.6 298.712 299.6C297.512 299.6 296.36 300.032 295.52 300.632V309.992H293.672ZM305.401 310.208C302.041 310.208 300.025 308.048 300.025 304.256V303.896C300.025 300.128 302.209 297.872 305.425 297.872C308.785 297.872 310.825 300.056 310.825 303.824V304.16C310.825 307.952 308.617 310.208 305.401 310.208ZM305.449 308.696C307.609 308.696 308.953 307.184 308.953 304.376V303.776C308.953 300.464 307.345 299.384 305.401 299.384C303.241 299.384 301.897 300.92 301.897 303.704V304.304C301.897 307.616 303.457 308.696 305.449 308.696ZM327.677 291.704V300.44H331.109V302H327.677V312.68H325.853V291.704H327.677ZM322.229 293.96C322.109 300.776 318.173 305.696 312.773 308.504L311.645 307.064C316.877 304.64 319.877 300.224 320.261 295.496H312.365V293.96H322.229ZM355.54 298.544H352.348V304.16H350.524V291.704H352.348V297.008H355.54V298.544ZM338.452 305.264H352.348V312.824H350.524V306.776H338.452V305.264ZM346.516 293.144C346.108 298.616 342.46 302.192 337.132 303.848L336.148 302.312C340.348 301.376 343.948 298.256 344.524 294.704H336.988V293.144H346.516ZM368.217 306.392L367.113 307.76C365.145 306.512 362.577 303.872 361.833 301.376C361.113 303.92 359.073 306.512 356.553 308.264L355.353 306.896C358.449 305.072 360.873 301.376 360.873 297.608V295.448H356.025V293.912H367.617V295.448H362.769V297.56C362.769 301.472 365.337 304.76 368.217 306.392ZM375.321 301.76H371.913V312.68H370.089V291.704H371.913V300.224H375.321V301.76ZM390.759 291.704H392.583V312.68H390.759V291.704ZM387.447 298.328C387.447 301.304 385.023 303.2 381.999 303.2C378.903 303.2 376.527 301.136 376.527 298.328C376.527 295.376 378.951 293.336 381.999 293.336C385.095 293.336 387.447 295.256 387.447 298.328ZM385.671 298.328C385.671 296.216 384.039 294.896 381.999 294.896C379.983 294.896 378.303 296.36 378.303 298.328C378.303 300.272 379.959 301.664 381.999 301.664C383.991 301.664 385.671 300.296 385.671 298.328ZM389.535 307.352C387.735 307.568 384.735 307.76 382.071 307.88C379.599 308 377.295 308.072 375.711 308.096L375.375 306.488C377.175 306.512 379.647 306.464 382.191 306.32C385.119 306.224 387.831 306.056 389.367 305.864L389.535 307.352ZM400.621 295.088V293.552H411.901V295.088H407.197C407.197 296.048 407.197 296.48 407.221 296.792C407.389 299.48 409.981 301.88 412.381 302.672L411.349 304.136C409.357 303.32 407.125 301.328 406.261 299.432C405.685 301.376 403.261 303.656 401.005 304.64L399.949 303.224C402.589 302.192 405.229 299.528 405.325 296.768C405.349 296.48 405.349 296.024 405.349 295.088H400.621ZM417.157 307.064H415.333V299.072H411.157V297.536H415.333V291.704H417.157V307.064ZM417.613 311.984H403.477V305.528H405.301V310.448H417.613V311.984ZM436.147 300.248H421.963V292.856H436.147V300.248ZM434.323 298.736V294.368H423.787V298.736H434.323ZM430.003 308.24H428.179V304.112H419.587V302.6H438.523V304.112H430.003V308.24ZM436.387 312.008H421.939V306.08H423.763V310.496H436.387V312.008ZM460.793 300.392H446.633V292.376H448.457V294.968H458.945V292.376H460.793V300.392ZM454.601 308.288H452.777V304.256H444.257V302.744H463.193V304.256H454.601V308.288ZM461.081 312.008H446.657V306.32H448.481V310.496H461.081V312.008ZM458.945 298.856V296.48H448.457V298.856H458.945ZM464.111 300.68C464.111 296.264 466.079 293.288 469.487 293.288C472.895 293.288 474.839 296.264 474.839 300.704C474.839 305.144 472.895 308.12 469.487 308.12C466.079 308.12 464.111 305.144 464.111 300.68ZM473.063 300.704C473.063 297.248 471.671 294.872 469.487 294.872C467.303 294.872 465.887 297.248 465.887 300.704C465.887 304.136 467.303 306.536 469.487 306.536C471.671 306.536 473.063 304.136 473.063 300.704ZM483.359 296.984V298.52H479.687V303.392H483.359V304.928H479.687V312.68H477.863V291.704H479.687V296.984H483.359ZM488.333 293.528C491.237 293.528 492.797 296.192 492.941 300.008H495.197V292.112H496.973V311.672H495.197V301.52H492.941C492.749 305.312 491.213 307.88 488.333 307.88C485.285 307.88 483.725 304.928 483.725 300.704C483.725 296.504 485.285 293.528 488.333 293.528ZM491.141 300.704C491.141 297.32 490.037 295.136 488.333 295.136C486.653 295.136 485.573 297.32 485.573 300.704C485.573 304.112 486.653 306.272 488.333 306.272C490.037 306.272 491.141 304.112 491.141 300.704ZM501.077 312.68H499.277V291.704H501.077V312.68ZM525.747 312.68H523.947V301.496H521.139V311.6H519.363V292.208H521.139V299.96H523.947V291.704H525.747V312.68ZM510.531 305.696H511.155C513.267 305.696 516.411 305.552 518.187 305.168L518.355 306.656C516.363 307.04 512.835 307.28 510.099 307.28H508.707V294.272H516.843V295.808H510.531V305.696ZM546.944 300.344H543.752V307.184H541.928V291.704H543.752V298.808H546.944V300.344ZM544.568 312.008H530.6V306.632H532.424V310.472H544.568V312.008ZM536.576 294.056H530.528V292.448H536.576V294.056ZM539.816 297.152H527.528V295.64H539.816V297.152ZM538.616 301.952C538.616 304.16 536.504 305.624 533.672 305.624C530.888 305.624 528.752 304.16 528.752 301.952C528.752 299.696 530.864 298.28 533.672 298.28C536.504 298.28 538.616 299.696 538.616 301.952ZM536.888 301.952C536.888 300.56 535.376 299.72 533.672 299.72C531.992 299.72 530.48 300.56 530.48 301.952C530.48 303.32 531.992 304.16 533.672 304.16C535.376 304.16 536.888 303.32 536.888 301.952ZM82.672 352.68H80.872V331.704H82.672V352.68ZM78.52 351.624H76.744V340.8H73.024V339.264H76.744V332.208H78.52V351.624ZM75.472 346.056L74.344 347.4C72.736 346.248 70.528 343.752 69.856 341.376C69.4 343.776 67.672 346.512 65.584 348.024L64.456 346.656C66.832 345.144 68.944 341.568 68.944 337.464V333.648H70.744V337.416C70.744 341.496 73.192 344.544 75.472 346.056ZM95.9256 340.8V339.264H99.7896V336.408H95.9256V334.872H99.7896V331.704H101.614V346.872H99.7896V340.8H95.9256ZM96.7176 342.504L95.6376 343.944C93.4776 342.912 91.4136 340.992 90.5256 338.856C89.8776 341.064 87.6456 343.44 85.3656 344.616L84.2376 343.2C87.0456 341.952 89.5656 339.048 89.5656 335.688V332.928H91.4136V335.616C91.4136 339.12 94.2216 341.592 96.7176 342.504ZM102.07 352.032H88.1256V345.624H89.9496V350.52H102.07V352.032ZM123.699 342.024H120.291V352.68H118.467V331.704H120.291V340.464H123.699V342.024ZM117.267 347.376C115.251 347.64 112.155 347.856 110.115 347.976C108.003 348.072 105.675 348.144 103.923 348.144L103.659 346.536C104.811 346.536 106.683 346.56 108.243 346.512V339.888H110.091V346.464C112.611 346.344 115.251 346.152 117.123 345.864L117.267 347.376ZM115.683 333.912C115.731 337.128 115.395 341.496 114.939 343.536L113.187 343.296C113.643 341.256 113.931 337.8 113.835 335.448H104.715V333.912H115.683ZM145.85 347.016H144.026V331.704H145.85V347.016ZM146.378 351.984H132.17V345.504H133.994V350.472H146.378V351.984ZM134.81 333.096C138.002 333.096 140.474 335.208 140.474 338.328C140.474 341.448 138.026 343.536 134.834 343.536C131.642 343.536 129.17 341.472 129.17 338.352C129.17 335.232 131.642 333.096 134.81 333.096ZM134.81 334.68C132.602 334.68 130.922 336.192 130.922 338.328C130.922 340.44 132.626 341.928 134.834 341.928C137.138 341.928 138.746 340.44 138.746 338.352C138.746 336.192 137.138 334.68 134.81 334.68ZM167.791 341.712H164.407V352.68H162.583V331.704H164.407V340.176H167.791V341.712ZM160.591 346.176L159.439 347.568C157.279 346.08 154.927 343.584 154.087 341.04C153.343 343.656 151.303 346.32 148.831 348.048L147.655 346.632C150.703 344.76 153.175 340.992 153.175 337.272V333.552H155.047V337.224C155.047 341.04 157.687 344.472 160.591 346.176ZM185.101 352.68H183.277V331.704H185.101V352.68ZM168.541 340.68C168.541 336.264 170.509 333.288 173.941 333.288C177.421 333.288 179.365 336.264 179.365 340.704C179.365 345.144 177.421 348.12 173.941 348.12C170.509 348.12 168.541 345.144 168.541 340.68ZM177.637 340.704C177.637 337.248 176.173 334.872 173.941 334.872C171.733 334.872 170.269 337.248 170.269 340.704C170.269 344.136 171.733 346.536 173.941 346.536C176.173 346.536 177.637 344.136 177.637 340.704ZM203.466 339.84H191.562V343.104H204.09V344.64H189.714V333.72H203.874V335.256H191.562V338.304H203.466V339.84ZM206.346 350.016H187.41V348.48H206.346V350.016ZM225.912 342.888H206.976V341.472H225.912V342.888ZM224.328 352.296H209.16V347.64H221.856V345.888H209.184V344.544H223.68V348.936H210.984V350.856H224.328V352.296ZM223.968 339.816H209.376V335.472H221.736V333.84H209.352V332.4H223.56V336.792H211.2V338.448H223.968V339.816ZM242.35 346.392L241.198 347.736C239.71 346.68 237.502 344.232 236.902 342.024C236.47 344.352 234.574 346.848 232.534 348.288L231.31 347.016C233.782 345.432 235.99 342.12 235.99 338.04V335.688H231.814V334.176H241.822V335.688H237.79V337.992C237.79 342.12 239.758 344.712 242.35 346.392ZM245.182 351.624H243.382V340.92H240.022V339.408H243.382V332.208H245.182V351.624ZM249.334 352.68H247.534V331.704H249.334V352.68ZM268.156 348.72C268.156 351.072 265.54 352.488 260.644 352.488C255.748 352.488 253.084 351.072 253.084 348.72C253.084 346.368 255.748 344.928 260.644 344.928C265.54 344.928 268.156 346.368 268.156 348.72ZM266.356 348.72C266.356 347.28 264.148 346.416 260.644 346.416C257.092 346.416 254.908 347.28 254.908 348.72C254.908 350.184 257.092 351.024 260.644 351.024C264.148 351.024 266.356 350.184 266.356 348.72ZM270.148 343.224H251.212V341.712H259.012V337.272H260.836V341.712H270.148V343.224ZM267.916 332.856V334.728C267.916 336.48 267.652 339.024 267.316 340.32L265.516 340.08C265.852 338.928 265.996 337.032 266.02 336.072L266.044 334.368H253.3V332.856H267.916ZM290.314 342.096H286.906V352.68H285.082V331.704H286.906V340.56H290.314V342.096ZM279.97 334.704H273.802V333.144H279.97V334.704ZM283.066 338.256H270.682V336.744H283.066V338.256ZM281.818 343.944C281.818 346.368 279.85 348.264 276.922 348.264C273.994 348.264 272.026 346.392 272.026 343.944C272.026 341.496 273.994 339.6 276.922 339.6C279.85 339.6 281.818 341.472 281.818 343.944ZM279.994 343.944C279.994 342.288 278.698 341.136 276.922 341.136C275.17 341.136 273.85 342.288 273.85 343.944C273.85 345.576 275.17 346.752 276.922 346.752C278.722 346.752 279.994 345.576 279.994 343.944ZM309.279 344.064H290.343V342.528H309.279V344.064ZM307.263 352.224H292.815V346.032H294.639V350.712H307.263V352.224ZM307.167 339.912H292.887V332.592H294.711V338.4H307.167V339.912ZM332.654 349.056C332.654 351.288 330.038 352.656 325.598 352.656C321.182 352.656 318.566 351.288 318.566 349.056C318.566 346.872 321.182 345.504 325.598 345.504C330.038 345.504 332.654 346.872 332.654 349.056ZM332.702 345.456H330.878V339.264H328.334V344.688H326.558V332.088H328.334V337.752H330.878V331.704H332.702V345.456ZM324.95 341.352C324.95 343.416 322.982 344.592 320.414 344.592C317.846 344.592 315.878 343.416 315.878 341.352C315.878 339.264 317.846 338.064 320.414 338.064C322.982 338.064 324.95 339.264 324.95 341.352ZM325.598 347.04C322.382 347.04 320.414 347.832 320.414 349.08C320.414 350.328 322.382 351.12 325.598 351.12C328.814 351.12 330.806 350.328 330.806 349.08C330.806 347.832 328.814 347.04 325.598 347.04ZM325.526 337.128H314.822V335.64H325.526V337.128ZM323.15 341.352C323.15 340.248 321.926 339.528 320.414 339.528C318.902 339.528 317.678 340.248 317.678 341.352C317.678 342.408 318.902 343.152 320.414 343.152C321.95 343.152 323.15 342.408 323.15 341.352ZM323.006 334.152H317.558V332.568H323.006V334.152ZM354.091 341.712H350.707V352.68H348.883V331.704H350.707V340.176H354.091V341.712ZM346.891 346.176L345.739 347.568C343.579 346.08 341.227 343.584 340.387 341.04C339.643 343.656 337.603 346.32 335.131 348.048L333.955 346.632C337.003 344.76 339.475 340.992 339.475 337.272V333.552H341.347V337.224C341.347 341.04 343.987 344.472 346.891 346.176ZM371.281 342.936H369.457V331.704H371.281V342.936ZM371.305 352.392H357.769V344.088H359.593V346.752H369.481V344.088H371.305V352.392ZM369.481 350.904V348.24H359.593V350.904H369.481ZM360.097 332.736C363.049 332.736 365.473 334.656 365.473 337.632C365.473 340.632 363.049 342.504 360.097 342.504C357.169 342.504 354.697 340.632 354.697 337.656C354.697 334.704 357.145 332.736 360.097 332.736ZM360.097 334.32C358.033 334.32 356.521 335.664 356.521 337.632C356.521 339.648 358.033 340.992 360.097 340.992C362.233 340.992 363.649 339.648 363.649 337.656C363.649 335.688 362.257 334.32 360.097 334.32ZM390.702 331.704V352.68H388.902V331.704H390.702ZM386.766 344.976L386.934 346.56C384.51 347.112 379.038 347.52 375.822 347.52H374.886V333.888H376.734V345.912C379.422 345.912 384.27 345.528 386.766 344.976ZM409.452 331.704V340.032H412.86V341.568H409.452V352.68H407.628V331.704H409.452ZM395.94 345.984H397.14C399.852 345.984 404.004 345.744 406.02 345.312L406.212 346.824C403.956 347.256 399.804 347.544 396.156 347.544H394.092V333.888H404.052V335.424H395.94V345.984ZM412.938 350.592V348.456H415.026V350.592H412.938Z" fill="white"/>
</g>
<defs>
<clipPath id="clip0_93_964">
<rect width="801" height="416" fill="white"/>
</clipPath>
</defs>
</svg>
