<svg width="360" height="320" viewBox="0 0 360 320" fill="none" xmlns="http://www.w3.org/2000/svg">
<g clip-path="url(#clip0_93_821)">
<path d="M32 0L32 448" stroke="#41424A"/>
<path d="M64 0L64 448" stroke="#41424A"/>
<path d="M96.0001 0L96 448" stroke="#41424A"/>
<path d="M128 0L128 448" stroke="#41424A"/>
<path d="M160 0L160 448" stroke="#41424A"/>
<path d="M192 0L192 448" stroke="#41424A"/>
<path d="M224 0L224 448" stroke="#41424A"/>
<path d="M256 0L256 448" stroke="#41424A"/>
<path d="M288 0L288 448" stroke="#41424A"/>
<path d="M320 0L320 448" stroke="#41424A"/>
<path d="M352 0L352 448" stroke="#41424A"/>
<line y1="31.5" x2="1057" y2="31.5" stroke="#41424A"/>
<line y1="63.5" x2="1057" y2="63.5" stroke="#41424A"/>
<line y1="95.5" x2="1057" y2="95.5" stroke="#41424A"/>
<line y1="127.5" x2="1057" y2="127.5" stroke="#41424A"/>
<line y1="159.5" x2="1057" y2="159.5" stroke="#41424A"/>
<line y1="191.5" x2="1057" y2="191.5" stroke="#41424A"/>
<line y1="223.5" x2="1057" y2="223.5" stroke="#41424A"/>
<line y1="255.5" x2="1057" y2="255.5" stroke="#41424A"/>
<line y1="287.5" x2="1057" y2="287.5" stroke="#41424A"/>
<line y1="319.5" x2="1057" y2="319.5" stroke="#41424A"/>
<path d="M0 32H287.5V96H360V287H0V32Z" fill="#FF9900" fill-opacity="0.6"/>
<path d="M21.2 78.24V67.2H23.02V65.38H28.66V67.2H30.5V72.8H28.66V74.62H23.22V78.24H21.2ZM23.22 72.6H28.46V67.4H23.22V72.6ZM32.3133 78.24V70.82H34.1333V69H39.7733V70.82H41.6133V72.8H39.5733V71H34.3333V78.24H32.3133ZM45.2466 78.24V76.44H43.4266V70.82H45.2466V69H50.8866V70.82H52.7266V76.44H50.8866V78.24H45.2466ZM45.4466 76.24H50.6866V71H45.4466V76.24ZM56.9653 81.86V80.06H55.1453V78.06H57.1653V79.86H62.4253V76.44H56.9653V74.62H55.1453V70.82H56.9653V69H62.6253V70.82H64.4453V80.06H62.6253V81.86H56.9653ZM57.1653 74.42H62.4253V71H57.1653V74.42ZM66.8641 78.24V70.82H68.6841V69H74.3241V70.82H76.1641V72.8H74.1241V71H68.8841V78.24H66.8641ZM79.7973 78.24V76.44H77.9773V70.82H79.7973V69H85.4373V70.82H87.2773V76.24H89.0973V78.24H87.0773V76.44H85.4373V78.24H79.7973ZM79.9973 76.24H85.2373V71H79.9973V76.24ZM90.907 78.24V69H96.567V70.82H98.167V69H102.027V70.82H103.827V78.24H101.827V71H98.367V78.24H96.367V71H92.927V78.24H90.907ZM110.243 78.24V69H115.903V70.82H117.503V69H121.363V70.82H123.163V78.24H121.163V71H117.703V78.24H115.703V71H112.263V78.24H110.243ZM125.575 78.24V69H127.595V78.24H125.575ZM125.575 67.4V65.38H127.595V67.4H125.575ZM130.009 78.24V76.24H137.269V74.62H131.829V72.8H130.009V70.82H131.829V69H139.309V71H132.029V72.6H137.469V74.42H139.309V76.44H137.469V78.24H130.009ZM141.337 78.24V76.24H148.597V74.62H143.157V72.8H141.337V70.82H143.157V69H150.637V71H143.357V72.6H148.797V74.42H150.637V76.44H148.797V78.24H141.337ZM153.055 78.24V69H155.075V78.24H153.055ZM153.055 67.4V65.38H155.075V67.4H153.055ZM158.918 78.24V76.44H157.098V70.82H158.918V69H164.558V70.82H166.398V76.44H164.558V78.24H158.918ZM159.118 76.24H164.358V71H159.118V76.24ZM168.817 78.24V69H176.277V70.82H178.117V78.24H176.077V71H170.837V78.24H168.817Z" fill="white"/>
<path d="M20.416 135.688L28.416 113.736H32.448L40.256 135.688H36.192L34.208 130.12H26.048L24.064 135.688H20.416ZM30.048 118.408L26.976 127.176H33.216L30.144 118.408H30.048ZM45.3813 135.688L39.9093 113.736H43.9093L47.6533 129.992H47.7493L52.2293 113.736H55.4293L59.8453 129.992H59.9413L63.7173 113.736H67.2693L61.8933 135.688H57.9893L53.7013 119.752H53.6053L49.2533 135.688H45.3813ZM75.278 136.072C72.398 136.072 70.222 135.464 68.718 134.664V131.56C70.478 132.328 72.558 132.904 74.958 132.904C77.902 132.904 79.15 131.688 79.15 129.704C79.15 127.88 78.35 127.176 75.95 126.44L73.87 125.864C70.766 125 68.878 123.336 68.878 119.624C68.878 115.912 71.278 113.384 76.238 113.384C79.118 113.384 80.686 113.928 81.902 114.568V117.64C80.526 117.064 78.734 116.552 76.302 116.552C73.998 116.552 72.718 117.512 72.718 119.272C72.718 121 73.358 121.736 75.534 122.344L77.582 122.984C81.038 123.976 83.118 125.416 83.118 129.32C83.118 133.48 80.59 136.072 75.278 136.072ZM102.988 136.04C96.8755 136.04 93.0995 132.456 93.0995 125.064V124.264C93.0995 116.36 97.7075 113.384 103.404 113.384C105.836 113.384 107.564 113.8 108.908 114.536V117.608C107.212 116.936 105.708 116.584 103.692 116.584C99.8835 116.584 97.3555 118.632 97.3555 123.848V124.968C97.3555 129.992 99.1155 132.84 103.724 132.84C106.22 132.84 107.82 132.2 109.132 131.656V134.696C107.628 135.496 105.612 136.04 102.988 136.04ZM118.794 135.976C113.77 135.976 110.986 132.936 110.986 127.784V127.272C110.986 121.992 114.186 118.92 118.826 118.92C123.754 118.92 126.602 121.928 126.602 127.176V127.624C126.602 132.936 123.402 135.976 118.794 135.976ZM118.858 133.192C121.322 133.192 122.762 131.496 122.762 127.944V127.144C122.762 122.856 121.002 121.704 118.762 121.704C116.234 121.704 114.762 123.464 114.762 127.016V127.784C114.762 132.04 116.554 133.192 118.858 133.192ZM129.367 135.688V119.208H132.919V120.68H133.047C134.455 119.688 136.151 118.92 138.071 118.92C139.959 118.92 141.239 119.496 141.975 120.776H142.167C143.863 119.624 145.719 118.92 147.575 118.92C150.487 118.92 152.119 120.168 152.119 123.432V135.688H148.471V124.296C148.471 122.664 147.831 121.992 145.943 121.992C144.855 121.992 143.767 122.312 142.519 122.92C142.551 123.176 142.583 123.336 142.583 123.656V135.688H138.967V124.296C138.967 122.664 138.295 121.992 136.439 121.992C135.255 121.992 134.039 122.376 133.047 122.888V135.688H129.367ZM155.727 135.688V119.208H159.279V120.68H159.407C160.815 119.688 162.511 118.92 164.431 118.92C166.319 118.92 167.599 119.496 168.335 120.776H168.527C170.223 119.624 172.079 118.92 173.935 118.92C176.847 118.92 178.479 120.168 178.479 123.432V135.688H174.831V124.296C174.831 122.664 174.191 121.992 172.303 121.992C171.215 121.992 170.127 122.312 168.879 122.92C168.911 123.176 168.943 123.336 168.943 123.656V135.688H165.327V124.296C165.327 122.664 164.655 121.992 162.799 121.992C161.615 121.992 160.399 122.376 159.407 122.888V135.688H155.727ZM186.983 135.976C183.783 135.976 181.991 134.408 181.991 131.176V119.208H185.671V130.472C185.671 132.264 186.311 133 188.359 133C189.799 133 190.983 132.488 192.039 132.008V119.208H195.719V135.688H192.519L192.199 134.248H192.039C190.663 135.24 189.063 135.976 186.983 135.976ZM199.385 135.688V119.208H202.937V120.68H203.065C204.473 119.656 206.489 118.92 208.473 118.92C211.641 118.92 213.273 120.2 213.273 123.464V135.688H209.561V124.328C209.561 122.664 209.017 121.992 206.777 121.992C205.497 121.992 204.057 122.408 203.065 122.888V135.688H199.385ZM216.965 135.688V119.208H220.677V135.688H216.965ZM216.965 116.488V113.128H220.709V116.488H216.965ZM230.112 135.88C227.264 135.88 225.44 134.728 225.44 131.624V122.088H223.136V119.208H225.44V115.336H229.056V119.208H232.992V122.088H229.056V131.112C229.056 132.488 229.568 133 231.296 133C231.936 133 232.608 132.904 233.184 132.744V135.208C232.544 135.528 231.648 135.88 230.112 135.88ZM237.79 140.424C236.958 140.424 235.87 140.2 235.39 139.88V137.416C235.806 137.512 236.414 137.576 236.99 137.576C238.494 137.576 239.486 137.192 240.062 135.624L240.51 134.472L234.302 119.208H238.206L242.366 129.896H242.494L246.334 119.208H249.886L243.518 136.136C242.43 139.272 240.83 140.424 237.79 140.424ZM22.592 173.688V151.736H30.272C35.328 151.736 37.504 153.784 37.504 157.272C37.504 159.576 36.544 161.24 33.92 162.072V162.168C36.672 162.68 38.464 164.216 38.464 167.416C38.464 171.064 36 173.688 30.816 173.688H22.592ZM26.496 170.744H30.272C32.928 170.744 34.336 169.592 34.336 167.192C34.336 164.664 32.832 163.704 30.048 163.704H26.496V170.744ZM26.496 161.08H29.568C31.872 161.08 33.6 160.312 33.6 157.816C33.6 155.448 32.256 154.648 29.728 154.648H26.496V161.08ZM46.307 173.976C43.107 173.976 41.315 172.408 41.315 169.176V157.208H44.995V168.472C44.995 170.264 45.635 171 47.683 171C49.123 171 50.307 170.488 51.363 170.008V157.208H55.043V173.688H51.843L51.523 172.248H51.363C49.987 173.24 48.387 173.976 46.307 173.976ZM58.7725 173.688V157.208H62.4845V173.688H58.7725ZM58.7725 154.488V151.128H62.5165V154.488H58.7725ZM66.3513 173.688V150.296H70.0633V173.688H66.3513ZM79.722 173.976C76.458 173.976 73.034 171.896 73.034 165.944V165.528C73.034 159.48 76.106 156.92 80.394 156.92C82.314 156.92 83.562 157.432 84.33 157.848V150.296H87.978V173.688H84.842L84.522 172.376H84.394C83.37 173.336 81.834 173.976 79.722 173.976ZM81.002 171.128C82.538 171.128 83.69 170.488 84.33 170.008V160.632C83.722 160.152 82.442 159.768 80.97 159.768C78.41 159.768 76.81 161.112 76.81 165.176V165.784C76.81 169.88 78.506 171.128 81.002 171.128ZM98.9268 173.976C93.4548 173.976 90.7668 170.872 90.7668 165.656V165.208C90.7668 159.672 94.1268 156.952 98.3188 156.952C103.183 156.952 105.295 159.672 105.295 164.92V166.456H94.5428C94.7668 169.88 96.5268 171.096 99.6628 171.096C101.775 171.096 103.311 170.616 104.751 169.88V172.44C103.631 173.176 101.711 173.976 98.9268 173.976ZM98.2548 159.672C96.5588 159.672 94.7988 160.568 94.5428 163.928H101.551C101.551 160.824 100.399 159.672 98.2548 159.672ZM108.055 173.688V157.208H111.607V159.128H111.735C112.631 157.944 114.327 157.08 116.055 157.08C116.503 157.08 116.919 157.112 117.079 157.176V160.44C116.663 160.376 116.119 160.344 115.735 160.344C114.263 160.344 112.791 160.76 111.735 161.432V173.688H108.055ZM123.989 173.944C121.845 173.944 119.925 173.56 118.549 172.824V170.136C119.925 170.68 121.141 171.16 123.445 171.16C125.749 171.16 126.709 170.392 126.709 169.176C126.709 167.992 126.069 167.416 124.277 167.032L122.741 166.68C120.213 166.168 118.549 164.888 118.549 161.944C118.549 158.904 120.501 156.952 124.661 156.952C126.901 156.952 128.309 157.368 129.397 157.848V160.632C128.437 160.216 126.837 159.736 124.981 159.736C123.061 159.736 122.037 160.376 122.037 161.656C122.037 162.808 122.677 163.224 124.245 163.608L125.813 163.96C129.045 164.696 130.293 165.976 130.293 168.824C130.293 172.248 128.021 173.944 123.989 173.944ZM141.269 173.688V151.736H148.469C155.189 151.736 158.965 154.968 158.965 162.136V162.776C158.965 169.816 155.541 173.688 148.501 173.688H141.269ZM145.205 170.584H148.533C152.821 170.584 154.805 168.472 154.805 163.16V162.104C154.805 156.568 152.405 154.84 148.245 154.84H145.205V170.584ZM166.092 173.976C163.116 173.976 161.036 172.472 161.036 169.304C161.036 166.264 163.052 164.856 166.316 164.376L170.188 163.928V162.68C170.188 160.44 169.196 159.928 166.412 159.928C164.812 159.928 163.404 160.152 162.412 160.376V157.848C163.948 157.24 165.708 156.952 167.852 156.952C171.66 156.952 173.868 158.424 173.868 161.848V173.688H170.828L170.54 172.344H170.348C169.548 173.272 168.236 173.976 166.092 173.976ZM167.212 171.384C168.396 171.384 169.58 170.968 170.188 170.392V166.328L167.148 166.648C165.516 166.776 164.652 167.448 164.652 169.112C164.652 170.68 165.708 171.384 167.212 171.384ZM179.399 178.424C178.567 178.424 177.479 178.2 176.999 177.88V175.416C177.415 175.512 178.023 175.576 178.599 175.576C180.103 175.576 181.095 175.192 181.671 173.624L182.119 172.472L175.911 157.208H179.815L183.975 167.896H184.103L187.943 157.208H191.495L185.127 174.136C184.039 177.272 182.439 178.424 179.399 178.424ZM214.25 173.688L206.154 162.552C208.842 158.936 211.562 155.32 214.282 151.736H218.346L210.474 162.136C213.258 165.976 216.042 169.816 218.794 173.688H214.25ZM201.834 173.688V151.736H205.77V173.688H201.834ZM227.877 173.976C222.853 173.976 220.069 170.936 220.069 165.784V165.272C220.069 159.992 223.269 156.92 227.909 156.92C232.837 156.92 235.685 159.928 235.685 165.176V165.624C235.685 170.936 232.485 173.976 227.877 173.976ZM227.941 171.192C230.405 171.192 231.845 169.496 231.845 165.944V165.144C231.845 160.856 230.085 159.704 227.845 159.704C225.317 159.704 223.845 161.464 223.845 165.016V165.784C223.845 170.04 225.637 171.192 227.941 171.192ZM238.451 173.688V157.208H242.003V159.128H242.131C243.027 157.944 244.723 157.08 246.451 157.08C246.899 157.08 247.315 157.112 247.475 157.176V160.44C247.059 160.376 246.515 160.344 246.131 160.344C244.659 160.344 243.187 160.76 242.131 161.432V173.688H238.451ZM257.105 173.976C251.633 173.976 248.945 170.872 248.945 165.656V165.208C248.945 159.672 252.305 156.952 256.497 156.952C261.361 156.952 263.473 159.672 263.473 164.92V166.456H252.721C252.945 169.88 254.705 171.096 257.841 171.096C259.953 171.096 261.489 170.616 262.929 169.88V172.44C261.809 173.176 259.889 173.976 257.105 173.976ZM256.433 159.672C254.737 159.672 252.977 160.568 252.721 163.928H259.729C259.729 160.824 258.577 159.672 256.433 159.672ZM270.361 173.976C267.385 173.976 265.305 172.472 265.305 169.304C265.305 166.264 267.321 164.856 270.585 164.376L274.457 163.928V162.68C274.457 160.44 273.465 159.928 270.681 159.928C269.081 159.928 267.673 160.152 266.681 160.376V157.848C268.217 157.24 269.977 156.952 272.121 156.952C275.929 156.952 278.137 158.424 278.137 161.848V173.688H275.097L274.809 172.344H274.617C273.817 173.272 272.505 173.976 270.361 173.976ZM271.481 171.384C272.665 171.384 273.849 170.968 274.457 170.392V166.328L271.417 166.648C269.785 166.776 268.921 167.448 268.921 169.112C268.921 170.68 269.977 171.384 271.481 171.384ZM303.82 166.909H280.475V164.183H303.82V166.909ZM300.949 161.283H283.607V152.293H287V158.586H300.949V161.283ZM301.123 176.595H283.462V168.968H286.826V173.898H301.123V176.595Z" fill="white"/>
<path d="M27.712 213.608C27.696 218.568 25.312 221.592 21.376 223.64L20.464 222.6C22.64 221.592 24.416 220.072 25.408 218.072L20.928 218.504L20.672 217.256L25.872 216.904C26.08 216.248 26.192 215.56 26.24 214.808H21.232V213.608H27.712ZM30.656 218.808H27.648V217.608H30.656V212.136H32.064V226.12H30.656V218.808ZM45.4918 218.52H36.0518V212.968H45.4918V218.52ZM39.0278 226.136H37.6198V221.368H34.4518V220.216H47.0758V221.368H43.8598V226.136H42.4518V221.368H39.0278V226.136ZM44.0838 217.352V214.104H37.4758V217.352H44.0838ZM59.7515 212.136V226.12H58.3435V212.136H59.7515ZM57.0315 220.84L57.2075 221.992C55.5755 222.392 52.4235 222.632 50.4395 222.664H49.1275V213.592H50.5515V221.448C52.3915 221.448 55.4155 221.224 57.0315 220.84ZM70.7153 221.176L70.9233 222.328C69.4513 222.616 66.8753 222.776 64.2673 222.808C63.8033 222.824 63.3233 222.824 62.8433 222.824V213.432H69.4353V214.568H64.2513V217.384H69.1633V218.536H64.2513V221.624C66.5713 221.624 69.2753 221.512 70.7153 221.176ZM73.6593 226.12H72.2353V212.136H73.6593V226.12ZM85.0933 224.328V213.576H88.4213C90.9333 213.576 91.9253 214.6 91.9253 216.296C91.9253 217.368 91.4613 218.2 90.1653 218.616V218.68C91.5093 218.936 92.3733 219.72 92.3733 221.272C92.3733 223.048 91.1573 224.328 88.6933 224.328H85.0933ZM86.5013 223.144H88.6133C90.1173 223.144 90.9013 222.504 90.9013 221.208C90.9013 219.848 90.0373 219.336 88.5173 219.336H86.5013V223.144ZM86.5013 218.2H88.1813C89.4773 218.2 90.4533 217.816 90.4533 216.488C90.4533 215.16 89.7013 214.792 88.3093 214.792H86.5013V218.2ZM96.5345 224.472C94.9505 224.472 94.1025 223.672 94.1025 222.136V216.376H95.4465V221.912C95.4465 222.888 95.7825 223.304 96.9345 223.304C97.7505 223.304 98.4225 223.016 98.9825 222.728V216.376H100.359V224.328H99.2065L99.0465 223.64H98.9665C98.3105 224.104 97.4945 224.472 96.5345 224.472ZM102.573 224.328V216.376H103.949V224.328H102.573ZM102.573 214.808V213.384H103.965V214.808H102.573ZM106.198 224.328V212.872H107.574V224.328H106.198ZM112.607 224.472C111.087 224.472 109.327 223.528 109.327 220.6V220.376C109.327 217.48 110.831 216.216 112.863 216.216C113.839 216.216 114.479 216.472 114.895 216.712V212.872H116.255V224.328H115.103L114.975 223.688H114.895C114.431 224.152 113.663 224.472 112.607 224.472ZM113.055 223.352C113.935 223.352 114.559 223 114.895 222.728V217.848C114.559 217.576 113.839 217.384 113.039 217.384C111.583 217.384 110.751 218.12 110.751 220.2V220.552C110.751 222.696 111.679 223.352 113.055 223.352ZM121.728 224.472C119.216 224.472 117.936 222.92 117.936 220.472V220.232C117.936 217.464 119.584 216.216 121.44 216.216C123.616 216.216 124.656 217.48 124.656 219.976V220.744H119.344C119.44 222.632 120.368 223.304 121.952 223.304C123.008 223.304 123.696 223.08 124.416 222.696V223.704C123.952 224.056 123.04 224.472 121.728 224.472ZM121.376 217.32C120.48 217.32 119.472 217.816 119.344 219.64H123.216C123.216 217.976 122.576 217.32 121.376 217.32ZM126.338 224.328V216.376H127.634V217.256H127.714C128.146 216.728 129.01 216.28 129.874 216.28C130.066 216.28 130.29 216.312 130.37 216.344V217.56C130.146 217.528 129.89 217.512 129.762 217.512C129.01 217.512 128.258 217.752 127.698 218.12V224.328H126.338ZM135.424 213.048C137.568 213.048 139.28 214.424 139.28 216.44C139.28 218.232 137.952 219.416 136.192 219.688V221.976C137.68 221.88 138.96 221.8 139.872 221.656L140.016 222.792C138.848 222.952 136.864 223.096 135.2 223.176C133.696 223.272 132.368 223.32 131.232 223.32L131.024 222.104C132.128 222.104 133.424 222.104 134.784 222.056V219.704C132.976 219.48 131.616 218.264 131.616 216.456C131.616 214.44 133.312 213.048 135.424 213.048ZM144.32 219.096H142.16V226.12H140.768V212.136H142.16V217.912H144.32V219.096ZM135.424 214.248C134.128 214.248 133.072 215.112 133.072 216.44C133.072 217.736 134.144 218.552 135.424 218.552C136.768 218.552 137.776 217.752 137.776 216.44C137.776 215.08 136.784 214.248 135.424 214.248ZM150.046 224.328V213.576H151.454V218.168H156.622V213.576H158.03V224.328H156.622V219.352H151.454V224.328H150.046ZM163.728 224.472C161.216 224.472 159.936 222.92 159.936 220.472V220.232C159.936 217.464 161.584 216.216 163.44 216.216C165.616 216.216 166.656 217.48 166.656 219.976V220.744H161.344C161.44 222.632 162.368 223.304 163.952 223.304C165.008 223.304 165.696 223.08 166.416 222.696V223.704C165.952 224.056 165.04 224.472 163.728 224.472ZM163.376 217.32C162.48 217.32 161.472 217.816 161.344 219.64H165.216C165.216 217.976 164.576 217.32 163.376 217.32ZM168.338 224.328V216.376H169.634V217.256H169.714C170.146 216.728 171.01 216.28 171.874 216.28C172.066 216.28 172.29 216.312 172.37 216.344V217.56C172.146 217.528 171.89 217.512 171.762 217.512C171.01 217.512 170.258 217.752 169.698 218.12V224.328H168.338ZM176.896 224.472C174.608 224.472 173.28 223 173.28 220.52V220.248C173.28 217.752 174.736 216.216 176.911 216.216C179.184 216.216 180.544 217.704 180.544 220.2V220.456C180.544 222.952 179.072 224.472 176.896 224.472ZM176.928 223.352C178.32 223.352 179.12 222.376 179.12 220.6V220.168C179.12 218.024 178.112 217.336 176.88 217.336C175.488 217.336 174.688 218.328 174.688 220.104V220.552C174.688 222.696 175.696 223.352 176.928 223.352ZM192.533 212.136V217.864H194.773V219.048H192.533V226.12H191.125V212.136H192.533ZM188.853 213.624C188.773 218.072 186.437 221.336 182.613 223.416L181.749 222.344C185.045 220.76 187.077 217.832 187.333 214.824H182.357V213.624H188.853ZM212.66 216.792H210.58V220.424H209.156V212.136H210.58V215.608H212.66V216.792ZM201.204 221.112H210.58V226.184H209.172V222.28H201.204V221.112ZM200.34 213.064H206.692C206.548 216.824 203.988 219.144 200.372 220.12L199.652 218.968C202.244 218.456 204.756 216.664 205.14 214.264H200.34V213.064ZM221.864 221.816L221.032 222.856C219.672 222.088 218.088 220.344 217.64 218.792C217.208 220.376 215.816 222.168 214.136 223.208L213.224 222.168C215.384 220.936 216.904 218.568 216.904 215.912V214.76H213.752V213.592H221.448V214.76H218.36V215.896C218.36 218.6 219.88 220.712 221.864 221.816ZM226.616 218.904H224.424V226.12H223.016V212.136H224.424V217.72H226.616V218.904ZM237.643 212.136H239.035V226.12H237.643V212.136ZM235.627 216.552C235.627 218.488 233.995 219.736 231.963 219.736C229.899 219.736 228.315 218.44 228.315 216.552C228.315 214.616 229.915 213.256 231.963 213.256C234.027 213.256 235.627 214.552 235.627 216.552ZM234.235 216.536C234.235 215.256 233.227 214.44 231.963 214.44C230.731 214.44 229.723 215.32 229.723 216.536C229.723 217.736 230.731 218.552 231.963 218.552C233.179 218.552 234.235 217.752 234.235 216.536ZM236.891 222.584C235.611 222.744 233.547 222.872 231.771 222.968C230.187 223.048 228.715 223.08 227.595 223.096L227.371 221.88C228.715 221.88 230.347 221.864 231.995 221.784C233.979 221.704 235.627 221.592 236.747 221.464L236.891 222.584ZM245.898 214.504V213.336H253.434V214.504H250.426V215.16C250.426 217.144 252.106 218.824 253.69 219.304L252.906 220.44C251.658 219.944 250.298 218.68 249.722 217.4C249.274 218.744 247.77 220.248 246.314 220.84L245.482 219.72C247.29 219.064 248.986 217.144 248.986 215.192V214.504H245.898ZM256.986 222.344H255.562V217.096H252.874V215.944H255.562V212.136H256.986V222.344ZM257.29 225.688H247.786V221.352H249.194V224.536H257.29V225.688ZM270.398 217.816H260.958V212.888H270.398V217.816ZM266.43 223.176H265.022V220.44H259.358V219.304H271.982V220.44H266.43V223.176ZM268.99 216.648V214.056H262.382V216.648H268.99ZM270.59 225.704H260.926V221.832H262.35V224.552H270.59V225.704ZM288.445 217.992H278.973V212.584H280.397V214.232H287.037V212.568H288.445V217.992ZM284.477 223.16H283.069V220.584H277.405V219.432H290.029V220.584H284.477V223.16ZM288.557 225.704H278.973V221.864H280.397V224.552H288.557V225.704ZM287.037 216.84V215.352H280.397V216.84H287.037ZM291.409 218.072C291.409 215.304 292.529 213.128 294.993 213.128C297.489 213.128 298.593 215.304 298.593 218.088C298.593 220.84 297.489 223.016 294.993 223.016C292.529 223.016 291.409 220.84 291.409 218.072ZM297.185 218.088C297.185 215.912 296.433 214.344 294.993 214.344C293.553 214.344 292.833 215.912 292.833 218.088C292.833 220.232 293.553 221.8 294.993 221.8C296.433 221.8 297.185 220.232 297.185 218.088ZM304.273 215.576V216.776H302.049V219.96H304.273V221.128H302.049V226.12H300.641V212.136H302.049V215.576H304.273ZM308.42 213.24C310.372 213.24 311.38 215.08 311.492 217.592H312.852V212.408H314.196V225.464H312.852V218.76H311.492C311.364 221.24 310.356 223.048 308.42 223.048C306.34 223.048 305.348 220.92 305.348 218.12C305.348 215.336 306.34 213.24 308.42 213.24ZM310.116 218.136C310.116 215.96 309.556 214.44 308.42 214.44C307.316 214.44 306.74 215.96 306.74 218.136C306.74 220.328 307.316 221.832 308.42 221.832C309.556 221.832 310.116 220.328 310.116 218.136ZM316.9 226.12H315.556V212.136H316.9V226.12ZM32.416 250.12H31.056V242.664H29.392V249.432H28.032V236.44H29.392V241.512H31.056V236.136H32.416V250.12ZM22.448 245.416H22.704C24.336 245.416 26.08 245.288 27.168 245.048L27.36 246.216C26.144 246.472 24.128 246.6 22.384 246.6H21.04V237.864H26.496V239.016H22.448V245.416ZM47.3478 242.024H45.2518V246.44H43.8438V236.136H45.2518V240.824H47.3478V242.024ZM45.7318 249.704H36.4038V246.04H37.8118V248.568H45.7318V249.704ZM40.4358 237.72H36.3718V236.568H40.4358V237.72ZM42.5798 239.816H34.3717V238.68H42.5798V239.816ZM41.7958 242.984C41.7958 244.52 40.3878 245.48 38.4838 245.48C36.6118 245.48 35.1878 244.536 35.1878 242.984C35.1878 241.4 36.5958 240.472 38.4838 240.472C40.3878 240.472 41.7958 241.4 41.7958 242.984ZM40.3878 242.984C40.3878 242.088 39.5078 241.608 38.4838 241.608C37.4758 241.608 36.5958 242.088 36.5958 242.984C36.5958 243.832 37.4758 244.344 38.4838 244.344C39.5078 244.344 40.3878 243.832 40.3878 242.984ZM64.3066 250.12H62.9466V236.136H64.3066V250.12ZM61.5386 249.432H60.1946V242.264H57.9866V241.096H60.1946V236.456H61.5386V249.432ZM59.4586 245.64L58.5946 246.632C57.5546 245.928 56.3226 244.36 55.9066 242.84C55.5706 244.392 54.4026 246.056 53.0266 247L52.1466 246.008C53.7946 244.952 55.2186 242.664 55.2186 239.848V237.464H56.5786V239.832C56.5786 242.536 57.8746 244.648 59.4586 245.64ZM73.9744 242.248V241.08H76.3904V239.336H73.9744V238.184H76.3904V236.136H77.8144V246.264H76.3904V242.248H73.9744ZM74.4864 243.256L73.6704 244.36C72.3584 243.784 71.0304 242.488 70.4224 241.08C70.0064 242.568 68.5024 244.152 67.0624 244.824L66.1824 243.704C68.1024 242.904 69.6864 240.952 69.6864 238.76V236.936H71.1264V238.696C71.1264 240.968 72.8544 242.68 74.4864 243.256ZM78.1184 249.72H68.7584V245.384H70.1664V248.568H78.1184V249.72ZM93.2101 243.16H91.0661V250.12H89.6581V236.136H91.0661V241.992H93.2101V243.16ZM88.9061 246.696C87.5781 246.888 85.5301 247.032 84.0901 247.112C82.6821 247.176 81.2101 247.208 80.0741 247.208L79.8661 246.024C80.7141 246.024 81.8501 246.024 82.8741 245.992V241.56H84.2501V245.944C86.0261 245.864 87.5461 245.768 88.7301 245.592L88.9061 246.696ZM87.9941 237.544C87.9941 240.072 87.8501 242.584 87.5301 243.96L86.1701 243.784C86.4421 242.584 86.5701 240.552 86.5701 238.696H80.6981V237.544H87.9941ZM109.705 246.296H108.281V236.136H109.705V246.296ZM110.025 249.688H100.505V245.336H101.929V248.552H110.025V249.688ZM102.281 237.08C104.441 237.08 106.025 238.568 106.025 240.568C106.025 242.584 104.441 243.976 102.281 243.976C100.137 243.976 98.553 242.584 98.553 240.584C98.553 238.568 100.137 237.08 102.281 237.08ZM102.281 238.296C100.969 238.296 100.041 239.256 100.041 240.552C100.041 241.832 100.969 242.792 102.281 242.792C103.657 242.792 104.521 241.848 104.521 240.568C104.521 239.24 103.657 238.296 102.281 238.296ZM125.053 242.872H122.877V250.12H121.469V236.136H122.877V241.704H125.053V242.872ZM120.317 245.656L119.469 246.712C118.221 245.896 116.589 244.152 116.061 242.536C115.581 244.232 114.189 246.008 112.605 247.064L111.725 246.008C113.837 244.68 115.325 242.248 115.325 239.672V237.336H116.781V239.608C116.781 242.232 118.349 244.44 120.317 245.656ZM137.457 250.12H136.033V236.136H137.457V250.12ZM126.417 242.12C126.417 239.352 127.537 237.192 130.016 237.192C132.497 237.192 133.601 239.352 133.601 242.136C133.601 244.904 132.497 247.08 130.016 247.08C127.537 247.08 126.417 244.904 126.417 242.12ZM132.193 242.136C132.193 239.976 131.457 238.408 130.016 238.408C128.593 238.408 127.857 239.976 127.857 242.136C127.857 244.296 128.593 245.848 130.016 245.848C131.457 245.848 132.193 244.296 132.193 242.136ZM150.42 241.608H142.692V243.592H150.868V244.76H141.284V237.464H150.74V238.616H142.692V240.488H150.42V241.608ZM152.388 248.344H139.764V247.192H152.388V248.344ZM166.232 243.688H153.608V242.6H166.232V243.688ZM165.224 249.864H155.048V246.776H163.368V245.736H155.048V244.664H164.776V247.768H156.456V248.792H165.224V249.864ZM164.984 241.608H155.192V238.648H163.288V237.672H155.208V236.616H164.696V239.608H156.616V240.552H164.984V241.608ZM178.791 245.896L177.943 246.904C176.967 246.264 175.495 244.664 175.111 243.272C174.807 244.744 173.575 246.328 172.295 247.192L171.399 246.216C173.143 245.096 174.423 242.984 174.423 240.248V238.936H171.703V237.8H178.391V238.936H175.815V240.2C175.815 243.064 177.271 244.968 178.791 245.896ZM180.695 249.432H179.351V242.328H177.271V241.16H179.351V236.456H180.695V249.432ZM183.463 250.12H182.103V236.136H183.463V250.12ZM196.587 247.48C196.587 249.08 194.875 250.088 191.755 250.088C188.619 250.088 186.875 249.08 186.875 247.48C186.875 245.864 188.619 244.856 191.755 244.856C194.875 244.856 196.587 245.864 196.587 247.48ZM198.123 243.816H185.499V242.664H190.651V239.752H192.059V242.664H198.123V243.816ZM195.147 247.48C195.147 246.536 193.819 246.008 191.755 246.008C189.659 246.008 188.331 246.536 188.331 247.48C188.331 248.44 189.659 248.952 191.755 248.952C193.819 248.952 195.147 248.44 195.147 247.48ZM196.619 236.872C196.619 237.4 196.603 237.8 196.603 238.264C196.571 239.512 196.427 240.888 196.203 241.832C195.755 241.784 195.291 241.72 194.827 241.656C195.115 240.552 195.195 239.224 195.195 238.024H187.019V236.872H196.619ZM212.366 243.144H210.142V250.12H208.718V236.136H210.142V241.96H212.366V243.144ZM205.518 238.2H201.342V237.048H205.518V238.2ZM207.55 240.6H199.262V239.464H207.55V240.6ZM206.766 244.344C206.766 245.992 205.454 247.272 203.47 247.272C201.486 247.272 200.158 246.024 200.158 244.344C200.158 242.696 201.486 241.384 203.47 241.384C205.454 241.384 206.766 242.664 206.766 244.344ZM205.374 244.344C205.374 243.304 204.558 242.568 203.47 242.568C202.382 242.568 201.582 243.304 201.582 244.344C201.582 245.368 202.366 246.088 203.47 246.088C204.622 246.088 205.374 245.368 205.374 244.344ZM225.81 244.408H213.186V243.256H225.81V244.408ZM224.482 249.816H214.866V245.672H216.274V248.648H224.482V249.816ZM224.418 241.608H214.914V236.712H216.322V240.456H224.418V241.608ZM243.201 247.672C243.201 249.192 241.425 250.104 238.465 250.104C235.505 250.104 233.713 249.192 233.713 247.672C233.713 246.168 235.505 245.256 238.465 245.256C241.425 245.256 243.201 246.168 243.201 247.672ZM243.041 245.304H241.681V241.256H240.145V244.808H238.801V236.392H240.145V240.088H241.681V236.136H243.041V245.304ZM237.793 242.632C237.793 243.976 236.705 244.856 234.785 244.856C232.865 244.856 231.761 243.976 231.761 242.632C231.761 241.272 232.865 240.376 234.785 240.376C236.705 240.376 237.793 241.272 237.793 242.632ZM238.465 246.36C236.417 246.36 235.153 246.872 235.153 247.672C235.153 248.488 236.417 249 238.465 249C240.497 249 241.761 248.488 241.761 247.672C241.761 246.872 240.497 246.36 238.465 246.36ZM238.337 239.864H231.153V238.728H238.337V239.864ZM236.433 242.632C236.433 242.008 235.825 241.576 234.785 241.576C233.745 241.576 233.121 242.008 233.121 242.632C233.121 243.256 233.745 243.688 234.785 243.688C235.825 243.688 236.433 243.256 236.433 242.632ZM236.513 237.88H232.849V236.744H236.513V237.88ZM258.053 242.872H255.877V250.12H254.469V236.136H255.877V241.704H258.053V242.872ZM253.317 245.656L252.469 246.712C251.221 245.896 249.589 244.152 249.061 242.536C248.581 244.232 247.189 246.008 245.605 247.064L244.725 246.008C246.837 244.68 248.325 242.248 248.325 239.672V237.336H249.781V239.608C249.781 242.232 251.349 244.44 253.317 245.656ZM270.393 243.624H268.969V236.136H270.393V243.624ZM270.409 249.944H261.321V244.392H262.729V246.04H268.985V244.376H270.409V249.944ZM268.985 248.808V247.16H262.729V248.808H268.985ZM262.905 236.792C264.905 236.792 266.473 238.12 266.473 240.104C266.473 242.104 264.905 243.368 262.905 243.368C260.905 243.368 259.321 242.104 259.321 240.12C259.321 238.152 260.905 236.792 262.905 236.792ZM262.905 238.024C261.689 238.024 260.745 238.824 260.745 240.088C260.745 241.352 261.689 242.136 262.905 242.136C264.137 242.136 265.049 241.352 265.049 240.104C265.049 238.824 264.153 238.024 262.905 238.024ZM284.22 236.136V250.12H282.812V236.136H284.22ZM281.5 244.84L281.676 245.992C280.044 246.392 276.892 246.632 274.908 246.664H273.596V237.592H275.02V245.448C276.86 245.448 279.884 245.224 281.5 244.84ZM288.608 245.528H289.184C291.024 245.528 293.6 245.384 295.008 245.08L295.168 246.232C293.712 246.536 291.312 246.696 288.768 246.712H287.2V237.608H293.808V238.776H288.608V245.528ZM297.408 236.136V241.592H299.584V242.776H297.408V250.12H296V236.136H297.408ZM300.548 248.696V247.128H302.1V248.696H300.548Z" fill="white"/>
</g>
<defs>
<clipPath id="clip0_93_821">
<rect width="360" height="320" fill="white"/>
</clipPath>
</defs>
</svg>
