<svg width="360" height="320" viewBox="0 0 360 320" fill="none" xmlns="http://www.w3.org/2000/svg">
<g clip-path="url(#clip0_93_821)">
<path d="M32 0L32 448" stroke="#41424A"/>
<path d="M64 0L64 448" stroke="#41424A"/>
<path d="M96.0001 0L96 448" stroke="#41424A"/>
<path d="M128 0L128 448" stroke="#41424A"/>
<path d="M160 0L160 448" stroke="#41424A"/>
<path d="M192 0L192 448" stroke="#41424A"/>
<path d="M224 0L224 448" stroke="#41424A"/>
<path d="M256 0L256 448" stroke="#41424A"/>
<path d="M288 0L288 448" stroke="#41424A"/>
<path d="M320 0L320 448" stroke="#41424A"/>
<path d="M352 0L352 448" stroke="#41424A"/>
<line y1="31.5" x2="1057" y2="31.5" stroke="#41424A"/>
<line y1="63.5" x2="1057" y2="63.5" stroke="#41424A"/>
<line y1="95.5" x2="1057" y2="95.5" stroke="#41424A"/>
<line y1="127.5" x2="1057" y2="127.5" stroke="#41424A"/>
<line y1="159.5" x2="1057" y2="159.5" stroke="#41424A"/>
<line y1="191.5" x2="1057" y2="191.5" stroke="#41424A"/>
<line y1="223.5" x2="1057" y2="223.5" stroke="#41424A"/>
<line y1="255.5" x2="1057" y2="255.5" stroke="#41424A"/>
<line y1="287.5" x2="1057" y2="287.5" stroke="#41424A"/>
<line y1="319.5" x2="1057" y2="319.5" stroke="#41424A"/>
<path d="M0 32H287.5V96H360V287H0V32Z" fill="#FF9900" fill-opacity="0.6"/>
<path d="M21.2 78.24V67.2H23.02V65.38H28.66V67.2H30.5V72.8H28.66V74.62H23.22V78.24H21.2ZM23.22 72.6H28.46V67.4H23.22V72.6ZM32.3133 78.24V70.82H34.1333V69H39.7733V70.82H41.6133V72.8H39.5733V71H34.3333V78.24H32.3133ZM45.2466 78.24V76.44H43.4266V70.82H45.2466V69H50.8866V70.82H52.7266V76.44H50.8866V78.24H45.2466ZM45.4466 76.24H50.6866V71H45.4466V76.24ZM56.9653 81.86V80.06H55.1453V78.06H57.1653V79.86H62.4253V76.44H56.9653V74.62H55.1453V70.82H56.9653V69H62.6253V70.82H64.4453V80.06H62.6253V81.86H56.9653ZM57.1653 74.42H62.4253V71H57.1653V74.42ZM66.8641 78.24V70.82H68.6841V69H74.3241V70.82H76.1641V72.8H74.1241V71H68.8841V78.24H66.8641ZM79.7973 78.24V76.44H77.9773V70.82H79.7973V69H85.4373V70.82H87.2773V76.24H89.0973V78.24H87.0773V76.44H85.4373V78.24H79.7973ZM79.9973 76.24H85.2373V71H79.9973V76.24ZM90.907 78.24V69H96.567V70.82H98.167V69H102.027V70.82H103.827V78.24H101.827V71H98.367V78.24H96.367V71H92.927V78.24H90.907ZM110.243 78.24V69H115.903V70.82H117.503V69H121.363V70.82H123.163V78.24H121.163V71H117.703V78.24H115.703V71H112.263V78.24H110.243ZM125.575 78.24V69H127.595V78.24H125.575ZM125.575 67.4V65.38H127.595V67.4H125.575ZM130.009 78.24V76.24H137.269V74.62H131.829V72.8H130.009V70.82H131.829V69H139.309V71H132.029V72.6H137.469V74.42H139.309V76.44H137.469V78.24H130.009ZM141.337 78.24V76.24H148.597V74.62H143.157V72.8H141.337V70.82H143.157V69H150.637V71H143.357V72.6H148.797V74.42H150.637V76.44H148.797V78.24H141.337ZM153.055 78.24V69H155.075V78.24H153.055ZM153.055 67.4V65.38H155.075V67.4H153.055ZM158.918 78.24V76.44H157.098V70.82H158.918V69H164.558V70.82H166.398V76.44H164.558V78.24H158.918ZM159.118 76.24H164.358V71H159.118V76.24ZM168.817 78.24V69H176.277V70.82H178.117V78.24H176.077V71H170.837V78.24H168.817Z" fill="white"/>
<path d="M20.416 135.688L28.416 113.736H32.448L40.256 135.688H36.192L34.208 130.12H26.048L24.064 135.688H20.416ZM30.048 118.408L26.976 127.176H33.216L30.144 118.408H30.048ZM45.3813 135.688L39.9093 113.736H43.9093L47.6533 129.992H47.7493L52.2293 113.736H55.4293L59.8453 129.992H59.9413L63.7173 113.736H67.2693L61.8933 135.688H57.9893L53.7013 119.752H53.6053L49.2533 135.688H45.3813ZM75.278 136.072C72.398 136.072 70.222 135.464 68.718 134.664V131.56C70.478 132.328 72.558 132.904 74.958 132.904C77.902 132.904 79.15 131.688 79.15 129.704C79.15 127.88 78.35 127.176 75.95 126.44L73.87 125.864C70.766 125 68.878 123.336 68.878 119.624C68.878 115.912 71.278 113.384 76.238 113.384C79.118 113.384 80.686 113.928 81.902 114.568V117.64C80.526 117.064 78.734 116.552 76.302 116.552C73.998 116.552 72.718 117.512 72.718 119.272C72.718 121 73.358 121.736 75.534 122.344L77.582 122.984C81.038 123.976 83.118 125.416 83.118 129.32C83.118 133.48 80.59 136.072 75.278 136.072ZM100.748 135.976C95.8835 135.976 92.8755 133.256 92.8755 127.816V127.304C92.8755 121.608 96.3315 118.92 100.908 118.92C103.084 118.92 104.396 119.336 105.452 119.912V122.792C104.076 122.248 103.084 121.896 101.132 121.896C98.3795 121.896 96.6835 123.624 96.6835 126.92V127.656C96.6835 131.432 98.2515 133.032 101.388 133.032C103.404 133.032 104.78 132.392 105.612 132.008V134.696C104.556 135.368 103.02 135.976 100.748 135.976ZM115.044 135.976C110.02 135.976 107.236 132.936 107.236 127.784V127.272C107.236 121.992 110.436 118.92 115.076 118.92C120.004 118.92 122.852 121.928 122.852 127.176V127.624C122.852 132.936 119.652 135.976 115.044 135.976ZM115.108 133.192C117.572 133.192 119.012 131.496 119.012 127.944V127.144C119.012 122.856 117.252 121.704 115.012 121.704C112.484 121.704 111.012 123.464 111.012 127.016V127.784C111.012 132.04 112.804 133.192 115.108 133.192ZM125.617 135.688V119.208H129.169V120.68H129.297C130.705 119.688 132.401 118.92 134.321 118.92C136.209 118.92 137.489 119.496 138.225 120.776H138.417C140.113 119.624 141.969 118.92 143.825 118.92C146.737 118.92 148.369 120.168 148.369 123.432V135.688H144.721V124.296C144.721 122.664 144.081 121.992 142.193 121.992C141.105 121.992 140.017 122.312 138.769 122.92C138.801 123.176 138.833 123.336 138.833 123.656V135.688H135.217V124.296C135.217 122.664 134.545 121.992 132.689 121.992C131.505 121.992 130.289 122.376 129.297 122.888V135.688H125.617ZM151.977 135.688V119.208H155.529V120.68H155.657C157.065 119.688 158.761 118.92 160.681 118.92C162.569 118.92 163.849 119.496 164.585 120.776H164.777C166.473 119.624 168.329 118.92 170.185 118.92C173.097 118.92 174.729 120.168 174.729 123.432V135.688H171.081V124.296C171.081 122.664 170.441 121.992 168.553 121.992C167.465 121.992 166.377 122.312 165.129 122.92C165.161 123.176 165.193 123.336 165.193 123.656V135.688H161.577V124.296C161.577 122.664 160.905 121.992 159.049 121.992C157.865 121.992 156.649 122.376 155.657 122.888V135.688H151.977ZM183.233 135.976C180.033 135.976 178.241 134.408 178.241 131.176V119.208H181.921V130.472C181.921 132.264 182.561 133 184.609 133C186.049 133 187.233 132.488 188.289 132.008V119.208H191.969V135.688H188.769L188.449 134.248H188.289C186.913 135.24 185.313 135.976 183.233 135.976ZM195.635 135.688V119.208H199.187V120.68H199.315C200.723 119.656 202.739 118.92 204.723 118.92C207.891 118.92 209.523 120.2 209.523 123.464V135.688H205.811V124.328C205.811 122.664 205.267 121.992 203.027 121.992C201.747 121.992 200.307 122.408 199.315 122.888V135.688H195.635ZM213.215 135.688V119.208H216.927V135.688H213.215ZM213.215 116.488V113.128H216.959V116.488H213.215ZM226.362 135.88C223.514 135.88 221.69 134.728 221.69 131.624V122.088H219.386V119.208H221.69V115.336H225.306V119.208H229.242V122.088H225.306V131.112C225.306 132.488 225.818 133 227.546 133C228.186 133 228.858 132.904 229.434 132.744V135.208C228.794 135.528 227.898 135.88 226.362 135.88ZM234.04 140.424C233.208 140.424 232.12 140.2 231.64 139.88V137.416C232.056 137.512 232.664 137.576 233.24 137.576C234.744 137.576 235.736 137.192 236.312 135.624L236.76 134.472L230.552 119.208H234.456L238.616 129.896H238.744L242.584 119.208H246.136L239.768 136.136C238.68 139.272 237.08 140.424 234.04 140.424ZM28.608 174.04C26.4 174.04 23.712 173.688 22.176 173.08V150.296H25.856V158.328H26.016C27.232 157.528 28.704 156.92 30.88 156.92C33.952 156.92 37.152 158.808 37.152 164.888V165.272C37.152 171.096 34.176 174.04 28.608 174.04ZM28.832 171.224C31.232 171.224 33.312 170.104 33.312 165.816V165.176C33.312 161.176 32 159.928 29.152 159.928C27.776 159.928 26.528 160.408 25.856 160.728V170.744C26.496 170.968 27.424 171.224 28.832 171.224ZM44.9008 173.976C41.7008 173.976 39.9088 172.408 39.9088 169.176V157.208H43.5888V168.472C43.5888 170.264 44.2288 171 46.2768 171C47.7168 171 48.9008 170.488 49.9568 170.008V157.208H53.6368V173.688H50.4368L50.1168 172.248H49.9568C48.5808 173.24 46.9808 173.976 44.9008 173.976ZM57.3663 173.688V157.208H61.0783V173.688H57.3663ZM57.3663 154.488V151.128H61.1103V154.488H57.3663ZM64.945 173.688V150.296H68.657V173.688H64.945ZM78.3157 173.976C75.0517 173.976 71.6277 171.896 71.6277 165.944V165.528C71.6277 159.48 74.6997 156.92 78.9877 156.92C80.9077 156.92 82.1557 157.432 82.9237 157.848V150.296H86.5717V173.688H83.4357L83.1157 172.376H82.9877C81.9637 173.336 80.4277 173.976 78.3157 173.976ZM79.5957 171.128C81.1317 171.128 82.2837 170.488 82.9237 170.008V160.632C82.3157 160.152 81.0357 159.768 79.5637 159.768C77.0037 159.768 75.4037 161.112 75.4037 165.176V165.784C75.4037 169.88 77.0997 171.128 79.5957 171.128ZM97.5205 173.976C92.0485 173.976 89.3605 170.872 89.3605 165.656V165.208C89.3605 159.672 92.7205 156.952 96.9125 156.952C101.777 156.952 103.889 159.672 103.889 164.92V166.456H93.1365C93.3605 169.88 95.1205 171.096 98.2565 171.096C100.369 171.096 101.905 170.616 103.345 169.88V172.44C102.225 173.176 100.305 173.976 97.5205 173.976ZM96.8485 159.672C95.1525 159.672 93.3925 160.568 93.1365 163.928H100.145C100.145 160.824 98.9925 159.672 96.8485 159.672ZM106.649 173.688V157.208H110.201V159.128H110.329C111.225 157.944 112.921 157.08 114.649 157.08C115.097 157.08 115.513 157.112 115.673 157.176V160.44C115.257 160.376 114.713 160.344 114.329 160.344C112.857 160.344 111.385 160.76 110.329 161.432V173.688H106.649ZM122.583 173.944C120.439 173.944 118.519 173.56 117.143 172.824V170.136C118.519 170.68 119.735 171.16 122.039 171.16C124.343 171.16 125.303 170.392 125.303 169.176C125.303 167.992 124.663 167.416 122.871 167.032L121.335 166.68C118.807 166.168 117.143 164.888 117.143 161.944C117.143 158.904 119.095 156.952 123.255 156.952C125.495 156.952 126.903 157.368 127.991 157.848V160.632C127.031 160.216 125.431 159.736 123.575 159.736C121.655 159.736 120.631 160.376 120.631 161.656C120.631 162.808 121.271 163.224 122.839 163.608L124.407 163.96C127.639 164.696 128.887 165.976 128.887 168.824C128.887 172.248 126.615 173.944 122.583 173.944ZM139.863 173.688V151.736H147.063C153.783 151.736 157.559 154.968 157.559 162.136V162.776C157.559 169.816 154.135 173.688 147.095 173.688H139.863ZM143.799 170.584H147.127C151.415 170.584 153.399 168.472 153.399 163.16V162.104C153.399 156.568 150.999 154.84 146.839 154.84H143.799V170.584ZM164.685 173.976C161.709 173.976 159.629 172.472 159.629 169.304C159.629 166.264 161.645 164.856 164.909 164.376L168.781 163.928V162.68C168.781 160.44 167.789 159.928 165.005 159.928C163.405 159.928 161.997 160.152 161.005 160.376V157.848C162.541 157.24 164.301 156.952 166.445 156.952C170.253 156.952 172.461 158.424 172.461 161.848V173.688H169.421L169.133 172.344H168.941C168.141 173.272 166.829 173.976 164.685 173.976ZM165.805 171.384C166.989 171.384 168.173 170.968 168.781 170.392V166.328L165.741 166.648C164.109 166.776 163.245 167.448 163.245 169.112C163.245 170.68 164.301 171.384 165.805 171.384ZM177.993 178.424C177.161 178.424 176.073 178.2 175.593 177.88V175.416C176.009 175.512 176.617 175.576 177.193 175.576C178.697 175.576 179.689 175.192 180.265 173.624L180.713 172.472L174.505 157.208H178.409L182.569 167.896H182.697L186.537 157.208H190.089L183.721 174.136C182.633 177.272 181.033 178.424 177.993 178.424ZM212.844 173.688L204.748 162.552C207.436 158.936 210.156 155.32 212.876 151.736H216.94L209.068 162.136C211.852 165.976 214.636 169.816 217.388 173.688H212.844ZM200.428 173.688V151.736H204.364V173.688H200.428ZM226.471 173.976C221.447 173.976 218.663 170.936 218.663 165.784V165.272C218.663 159.992 221.863 156.92 226.503 156.92C231.431 156.92 234.279 159.928 234.279 165.176V165.624C234.279 170.936 231.079 173.976 226.471 173.976ZM226.535 171.192C228.999 171.192 230.439 169.496 230.439 165.944V165.144C230.439 160.856 228.679 159.704 226.439 159.704C223.911 159.704 222.439 161.464 222.439 165.016V165.784C222.439 170.04 224.231 171.192 226.535 171.192ZM237.045 173.688V157.208H240.597V159.128H240.725C241.621 157.944 243.317 157.08 245.045 157.08C245.493 157.08 245.909 157.112 246.069 157.176V160.44C245.653 160.376 245.109 160.344 244.725 160.344C243.253 160.344 241.781 160.76 240.725 161.432V173.688H237.045ZM255.699 173.976C250.227 173.976 247.539 170.872 247.539 165.656V165.208C247.539 159.672 250.899 156.952 255.091 156.952C259.955 156.952 262.067 159.672 262.067 164.92V166.456H251.315C251.539 169.88 253.299 171.096 256.435 171.096C258.547 171.096 260.083 170.616 261.523 169.88V172.44C260.403 173.176 258.483 173.976 255.699 173.976ZM255.027 159.672C253.331 159.672 251.571 160.568 251.315 163.928H258.323C258.323 160.824 257.171 159.672 255.027 159.672ZM268.955 173.976C265.979 173.976 263.899 172.472 263.899 169.304C263.899 166.264 265.915 164.856 269.179 164.376L273.051 163.928V162.68C273.051 160.44 272.059 159.928 269.275 159.928C267.675 159.928 266.267 160.152 265.275 160.376V157.848C266.811 157.24 268.571 156.952 270.715 156.952C274.523 156.952 276.731 158.424 276.731 161.848V173.688H273.691L273.403 172.344H273.211C272.411 173.272 271.099 173.976 268.955 173.976ZM270.075 171.384C271.259 171.384 272.443 170.968 273.051 170.392V166.328L270.011 166.648C268.379 166.776 267.515 167.448 267.515 169.112C267.515 170.68 268.571 171.384 270.075 171.384ZM302.414 166.909H279.069V164.183H302.414V166.909ZM299.543 161.283H282.201V152.293H285.594V158.586H299.543V161.283ZM299.717 176.595H282.056V168.968H285.42V173.898H299.717V176.595Z" fill="white"/>
<path d="M24.288 224.472C22.032 224.472 20.592 223.192 20.592 220.536V220.264C20.592 217.464 22.272 216.216 24.368 216.216C25.392 216.216 26 216.424 26.528 216.744V217.88C25.824 217.576 25.328 217.384 24.272 217.384C22.864 217.384 22 218.328 22 220.072V220.488C22 222.472 22.832 223.32 24.432 223.32C25.504 223.32 26.224 222.952 26.64 222.76V223.848C26.112 224.184 25.392 224.472 24.288 224.472ZM31.2861 224.472C28.9981 224.472 27.6701 223 27.6701 220.52V220.248C27.6701 217.752 29.1261 216.216 31.3021 216.216C33.5741 216.216 34.9341 217.704 34.9341 220.2V220.456C34.9341 222.952 33.4621 224.472 31.2861 224.472ZM31.3181 223.352C32.7101 223.352 33.5101 222.376 33.5101 220.6V220.168C33.5101 218.024 32.5021 217.336 31.2701 217.336C29.8781 217.336 29.0781 218.328 29.0781 220.104V220.552C29.0781 222.696 30.0861 223.352 31.3181 223.352ZM36.6036 224.328V216.376H37.8996V217.064H37.9796C38.6516 216.6 39.5156 216.216 40.3956 216.216C41.2916 216.216 41.9156 216.504 42.2996 217.096H42.3796C43.2116 216.552 44.1236 216.216 45.0196 216.216C46.4116 216.216 47.2116 216.872 47.2116 218.408V224.328H45.8676V218.696C45.8676 217.784 45.5316 217.4 44.4756 217.4C43.8996 217.4 43.2436 217.608 42.5556 217.944C42.5716 218.088 42.5876 218.232 42.5876 218.408V224.328H41.2276V218.696C41.2276 217.784 40.9076 217.4 39.8516 217.4C39.2116 217.4 38.5396 217.64 37.9636 217.928V224.328H36.6036ZM49.338 224.328V216.376H50.634V217.064H50.714C51.386 216.6 52.25 216.216 53.13 216.216C54.026 216.216 54.65 216.504 55.034 217.096H55.114C55.946 216.552 56.858 216.216 57.754 216.216C59.146 216.216 59.946 216.872 59.946 218.408V224.328H58.602V218.696C58.602 217.784 58.266 217.4 57.21 217.4C56.634 217.4 55.978 217.608 55.29 217.944C55.306 218.088 55.322 218.232 55.322 218.408V224.328H53.962V218.696C53.962 217.784 53.642 217.4 52.586 217.4C51.946 217.4 51.274 217.64 50.698 217.928V224.328H49.338ZM64.4564 224.472C62.8724 224.472 62.0244 223.672 62.0244 222.136V216.376H63.3684V221.912C63.3684 222.888 63.7044 223.304 64.8564 223.304C65.6724 223.304 66.3444 223.016 66.9044 222.728V216.376H68.2804V224.328H67.1284L66.9684 223.64H66.8884C66.2324 224.104 65.4164 224.472 64.4564 224.472ZM70.463 224.328V216.376H71.759V217.064H71.839C72.511 216.584 73.535 216.216 74.511 216.216C76.079 216.216 76.815 216.872 76.815 218.408V224.328H75.471V218.696C75.471 217.784 75.167 217.4 73.919 217.4C73.215 217.4 72.399 217.656 71.823 217.928V224.328H70.463ZM78.9794 224.328V216.376H80.3554V224.328H78.9794ZM78.9794 214.808V213.384H80.3714V214.808H78.9794ZM85.1324 224.408C83.8684 224.408 82.9884 223.864 82.9884 222.456V217.512H81.8524V216.376H82.9884V214.488H84.3484V216.376H86.3484V217.512H84.3484V222.264C84.3484 223.016 84.6044 223.304 85.5004 223.304C85.8204 223.304 86.1884 223.256 86.5084 223.176V224.104C86.1724 224.248 85.8524 224.408 85.1324 224.408ZM88.5844 226.712C88.2004 226.712 87.7844 226.6 87.5604 226.488V225.528C87.7524 225.56 88.0404 225.592 88.3284 225.592C89.0644 225.592 89.6564 225.432 89.8964 224.856L90.2644 223.816L87.2084 216.376H88.6804L90.9204 222.008H90.9844L93.0484 216.376H94.3764L91.1604 225.048C90.6164 226.568 89.9124 226.712 88.5844 226.712ZM102.829 224.52C101.917 224.52 100.573 224.344 99.9005 224.104V212.872H101.261V216.856H101.341C101.949 216.488 102.669 216.216 103.725 216.216C105.213 216.216 106.812 217.128 106.812 220.088V220.328C106.812 222.968 105.453 224.52 102.829 224.52ZM102.924 223.368C104.221 223.368 105.421 222.76 105.421 220.536V220.184C105.421 218.088 104.685 217.384 103.085 217.384C102.349 217.384 101.629 217.672 101.261 217.832V223.112C101.597 223.24 102.125 223.368 102.924 223.368ZM110.925 224.472C109.341 224.472 108.493 223.672 108.493 222.136V216.376H109.837V221.912C109.837 222.888 110.173 223.304 111.325 223.304C112.141 223.304 112.813 223.016 113.373 222.728V216.376H114.749V224.328H113.597L113.437 223.64H113.357C112.701 224.104 111.885 224.472 110.925 224.472ZM116.964 224.328V216.376H118.34V224.328H116.964ZM116.964 214.808V213.384H118.356V214.808H116.964ZM120.589 224.328V212.872H121.965V224.328H120.589ZM126.998 224.472C125.478 224.472 123.718 223.528 123.718 220.6V220.376C123.718 217.48 125.222 216.216 127.254 216.216C128.23 216.216 128.87 216.472 129.286 216.712V212.872H130.646V224.328H129.494L129.366 223.688H129.286C128.822 224.152 128.054 224.472 126.998 224.472ZM127.446 223.352C128.326 223.352 128.95 223 129.286 222.728V217.848C128.95 217.576 128.23 217.384 127.43 217.384C125.974 217.384 125.142 218.12 125.142 220.2V220.552C125.142 222.696 126.07 223.352 127.446 223.352ZM136.118 224.472C133.606 224.472 132.326 222.92 132.326 220.472V220.232C132.326 217.464 133.974 216.216 135.83 216.216C138.006 216.216 139.046 217.48 139.046 219.976V220.744H133.734C133.83 222.632 134.758 223.304 136.342 223.304C137.398 223.304 138.086 223.08 138.806 222.696V223.704C138.342 224.056 137.43 224.472 136.118 224.472ZM135.766 217.32C134.87 217.32 133.862 217.816 133.734 219.64H137.606C137.606 217.976 136.966 217.32 135.766 217.32ZM140.729 224.328V216.376H142.025V217.256H142.105C142.537 216.728 143.401 216.28 144.265 216.28C144.457 216.28 144.681 216.312 144.761 216.344V217.56C144.537 217.528 144.281 217.512 144.153 217.512C143.401 217.512 142.649 217.752 142.089 218.12V224.328H140.729ZM149.814 213.048C151.958 213.048 153.67 214.424 153.67 216.44C153.67 218.232 152.342 219.416 150.582 219.688V221.976C152.07 221.88 153.35 221.8 154.262 221.656L154.406 222.792C153.238 222.952 151.254 223.096 149.59 223.176C148.086 223.272 146.758 223.32 145.622 223.32L145.414 222.104C146.518 222.104 147.814 222.104 149.174 222.056V219.704C147.366 219.48 146.006 218.264 146.006 216.456C146.006 214.44 147.702 213.048 149.814 213.048ZM158.71 219.096H156.55V226.12H155.158V212.136H156.55V217.912H158.71V219.096ZM149.814 214.248C148.518 214.248 147.462 215.112 147.462 216.44C147.462 217.736 148.534 218.552 149.814 218.552C151.158 218.552 152.166 217.752 152.166 216.44C152.166 215.08 151.174 214.248 149.814 214.248ZM164.213 224.328V212.872H165.573V217.032H165.653C166.293 216.584 167.285 216.216 168.261 216.216C169.829 216.216 170.565 216.872 170.565 218.408V224.328H169.221V218.696C169.221 217.784 168.917 217.4 167.669 217.4C166.965 217.4 166.149 217.656 165.573 217.928V224.328H164.213ZM175.993 224.472C173.481 224.472 172.201 222.92 172.201 220.472V220.232C172.201 217.464 173.849 216.216 175.705 216.216C177.881 216.216 178.921 217.48 178.921 219.976V220.744H173.609C173.705 222.632 174.633 223.304 176.217 223.304C177.273 223.304 177.961 223.08 178.681 222.696V223.704C178.217 224.056 177.305 224.472 175.993 224.472ZM175.641 217.32C174.745 217.32 173.737 217.816 173.609 219.64H177.481C177.481 217.976 176.841 217.32 175.641 217.32ZM180.604 224.328V216.376H181.9V217.256H181.98C182.412 216.728 183.276 216.28 184.14 216.28C184.332 216.28 184.556 216.312 184.636 216.344V217.56C184.412 217.528 184.156 217.512 184.028 217.512C183.276 217.512 182.524 217.752 181.964 218.12V224.328H180.604ZM189.161 224.472C186.873 224.472 185.545 223 185.545 220.52V220.248C185.545 217.752 187.001 216.216 189.177 216.216C191.449 216.216 192.809 217.704 192.809 220.2V220.456C192.809 222.952 191.337 224.472 189.161 224.472ZM189.193 223.352C190.585 223.352 191.385 222.376 191.385 220.6V220.168C191.385 218.024 190.377 217.336 189.145 217.336C187.753 217.336 186.953 218.328 186.953 220.104V220.552C186.953 222.696 187.961 223.352 189.193 223.352ZM204.799 212.136V217.864H207.039V219.048H204.799V226.12H203.391V212.136H204.799ZM201.119 213.624C201.039 218.072 198.703 221.336 194.879 223.416L194.015 222.344C197.311 220.76 199.343 217.832 199.599 214.824H194.623V213.624H201.119ZM224.926 216.792H222.846V220.424H221.422V212.136H222.846V215.608H224.926V216.792ZM213.47 221.112H222.846V226.184H221.438V222.28H213.47V221.112ZM212.606 213.064H218.958C218.814 216.824 216.254 219.144 212.638 220.12L211.918 218.968C214.51 218.456 217.022 216.664 217.406 214.264H212.606V213.064ZM234.129 221.816L233.297 222.856C231.937 222.088 230.353 220.344 229.905 218.792C229.473 220.376 228.081 222.168 226.401 223.208L225.489 222.168C227.649 220.936 229.169 218.568 229.169 215.912V214.76H226.017V213.592H233.713V214.76H230.625V215.896C230.625 218.6 232.145 220.712 234.129 221.816ZM238.881 218.904H236.689V226.12H235.281V212.136H236.689V217.72H238.881V218.904ZM249.909 212.136H251.301V226.12H249.909V212.136ZM247.893 216.552C247.893 218.488 246.261 219.736 244.229 219.736C242.165 219.736 240.581 218.44 240.581 216.552C240.581 214.616 242.181 213.256 244.229 213.256C246.293 213.256 247.893 214.552 247.893 216.552ZM246.501 216.536C246.501 215.256 245.493 214.44 244.229 214.44C242.997 214.44 241.989 215.32 241.989 216.536C241.989 217.736 242.997 218.552 244.229 218.552C245.445 218.552 246.501 217.752 246.501 216.536ZM249.157 222.584C247.877 222.744 245.813 222.872 244.037 222.968C242.453 223.048 240.981 223.08 239.861 223.096L239.637 221.88C240.981 221.88 242.613 221.864 244.261 221.784C246.245 221.704 247.893 221.592 249.013 221.464L249.157 222.584ZM258.164 214.504V213.336H265.7V214.504H262.692V215.16C262.692 217.144 264.372 218.824 265.956 219.304L265.172 220.44C263.924 219.944 262.564 218.68 261.988 217.4C261.54 218.744 260.036 220.248 258.58 220.84L257.748 219.72C259.556 219.064 261.252 217.144 261.252 215.192V214.504H258.164ZM269.252 222.344H267.828V217.096H265.14V215.944H267.828V212.136H269.252V222.344ZM269.556 225.688H260.052V221.352H261.46V224.536H269.556V225.688ZM282.664 217.816H273.224V212.888H282.664V217.816ZM278.696 223.176H277.288V220.44H271.624V219.304H284.248V220.44H278.696V223.176ZM281.256 216.648V214.056H274.648V216.648H281.256ZM282.856 225.704H273.192V221.832H274.616V224.552H282.856V225.704ZM300.711 217.992H291.239V212.584H292.663V214.232H299.303V212.568H300.711V217.992ZM296.743 223.16H295.335V220.584H289.671V219.432H302.295V220.584H296.743V223.16ZM300.823 225.704H291.239V221.864H292.663V224.552H300.823V225.704ZM299.303 216.84V215.352H292.663V216.84H299.303ZM303.674 218.072C303.674 215.304 304.794 213.128 307.258 213.128C309.754 213.128 310.858 215.304 310.858 218.088C310.858 220.84 309.754 223.016 307.258 223.016C304.794 223.016 303.674 220.84 303.674 218.072ZM309.45 218.088C309.45 215.912 308.698 214.344 307.258 214.344C305.818 214.344 305.098 215.912 305.098 218.088C305.098 220.232 305.818 221.8 307.258 221.8C308.698 221.8 309.45 220.232 309.45 218.088ZM316.538 215.576V216.776H314.314V219.96H316.538V221.128H314.314V226.12H312.906V212.136H314.314V215.576H316.538ZM320.686 213.24C322.638 213.24 323.646 215.08 323.758 217.592H325.118V212.408H326.462V225.464H325.118V218.76H323.758C323.63 221.24 322.622 223.048 320.686 223.048C318.606 223.048 317.614 220.92 317.614 218.12C317.614 215.336 318.606 213.24 320.686 213.24ZM322.382 218.136C322.382 215.96 321.822 214.44 320.686 214.44C319.582 214.44 319.006 215.96 319.006 218.136C319.006 220.328 319.582 221.832 320.686 221.832C321.822 221.832 322.382 220.328 322.382 218.136ZM329.166 226.12H327.822V212.136H329.166V226.12ZM32.416 250.12H31.056V242.664H29.392V249.432H28.032V236.44H29.392V241.512H31.056V236.136H32.416V250.12ZM22.448 245.416H22.704C24.336 245.416 26.08 245.288 27.168 245.048L27.36 246.216C26.144 246.472 24.128 246.6 22.384 246.6H21.04V237.864H26.496V239.016H22.448V245.416ZM47.3478 242.024H45.2518V246.44H43.8438V236.136H45.2518V240.824H47.3478V242.024ZM45.7318 249.704H36.4038V246.04H37.8118V248.568H45.7318V249.704ZM40.4358 237.72H36.3718V236.568H40.4358V237.72ZM42.5798 239.816H34.3717V238.68H42.5798V239.816ZM41.7958 242.984C41.7958 244.52 40.3878 245.48 38.4838 245.48C36.6118 245.48 35.1878 244.536 35.1878 242.984C35.1878 241.4 36.5958 240.472 38.4838 240.472C40.3878 240.472 41.7958 241.4 41.7958 242.984ZM40.3878 242.984C40.3878 242.088 39.5078 241.608 38.4838 241.608C37.4758 241.608 36.5958 242.088 36.5958 242.984C36.5958 243.832 37.4758 244.344 38.4838 244.344C39.5078 244.344 40.3878 243.832 40.3878 242.984ZM64.3066 250.12H62.9466V236.136H64.3066V250.12ZM61.5386 249.432H60.1946V242.264H57.9866V241.096H60.1946V236.456H61.5386V249.432ZM59.4586 245.64L58.5946 246.632C57.5546 245.928 56.3226 244.36 55.9066 242.84C55.5706 244.392 54.4026 246.056 53.0266 247L52.1466 246.008C53.7946 244.952 55.2186 242.664 55.2186 239.848V237.464H56.5786V239.832C56.5786 242.536 57.8746 244.648 59.4586 245.64ZM73.9744 242.248V241.08H76.3904V239.336H73.9744V238.184H76.3904V236.136H77.8144V246.264H76.3904V242.248H73.9744ZM74.4864 243.256L73.6704 244.36C72.3584 243.784 71.0304 242.488 70.4224 241.08C70.0064 242.568 68.5024 244.152 67.0624 244.824L66.1824 243.704C68.1024 242.904 69.6864 240.952 69.6864 238.76V236.936H71.1264V238.696C71.1264 240.968 72.8544 242.68 74.4864 243.256ZM78.1184 249.72H68.7584V245.384H70.1664V248.568H78.1184V249.72ZM93.2101 243.16H91.0661V250.12H89.6581V236.136H91.0661V241.992H93.2101V243.16ZM88.9061 246.696C87.5781 246.888 85.5301 247.032 84.0901 247.112C82.6821 247.176 81.2101 247.208 80.0741 247.208L79.8661 246.024C80.7141 246.024 81.8501 246.024 82.8741 245.992V241.56H84.2501V245.944C86.0261 245.864 87.5461 245.768 88.7301 245.592L88.9061 246.696ZM87.9941 237.544C87.9941 240.072 87.8501 242.584 87.5301 243.96L86.1701 243.784C86.4421 242.584 86.5701 240.552 86.5701 238.696H80.6981V237.544H87.9941ZM109.705 246.296H108.281V236.136H109.705V246.296ZM110.025 249.688H100.505V245.336H101.929V248.552H110.025V249.688ZM102.281 237.08C104.441 237.08 106.025 238.568 106.025 240.568C106.025 242.584 104.441 243.976 102.281 243.976C100.137 243.976 98.553 242.584 98.553 240.584C98.553 238.568 100.137 237.08 102.281 237.08ZM102.281 238.296C100.969 238.296 100.041 239.256 100.041 240.552C100.041 241.832 100.969 242.792 102.281 242.792C103.657 242.792 104.521 241.848 104.521 240.568C104.521 239.24 103.657 238.296 102.281 238.296ZM125.053 242.872H122.877V250.12H121.469V236.136H122.877V241.704H125.053V242.872ZM120.317 245.656L119.469 246.712C118.221 245.896 116.589 244.152 116.061 242.536C115.581 244.232 114.189 246.008 112.605 247.064L111.725 246.008C113.837 244.68 115.325 242.248 115.325 239.672V237.336H116.781V239.608C116.781 242.232 118.349 244.44 120.317 245.656ZM137.457 250.12H136.033V236.136H137.457V250.12ZM126.417 242.12C126.417 239.352 127.537 237.192 130.016 237.192C132.497 237.192 133.601 239.352 133.601 242.136C133.601 244.904 132.497 247.08 130.016 247.08C127.537 247.08 126.417 244.904 126.417 242.12ZM132.193 242.136C132.193 239.976 131.457 238.408 130.016 238.408C128.593 238.408 127.857 239.976 127.857 242.136C127.857 244.296 128.593 245.848 130.016 245.848C131.457 245.848 132.193 244.296 132.193 242.136ZM150.42 241.608H142.692V243.592H150.868V244.76H141.284V237.464H150.74V238.616H142.692V240.488H150.42V241.608ZM152.388 248.344H139.764V247.192H152.388V248.344ZM166.232 243.688H153.608V242.6H166.232V243.688ZM165.224 249.864H155.048V246.776H163.368V245.736H155.048V244.664H164.776V247.768H156.456V248.792H165.224V249.864ZM164.984 241.608H155.192V238.648H163.288V237.672H155.208V236.616H164.696V239.608H156.616V240.552H164.984V241.608ZM178.791 245.896L177.943 246.904C176.967 246.264 175.495 244.664 175.111 243.272C174.807 244.744 173.575 246.328 172.295 247.192L171.399 246.216C173.143 245.096 174.423 242.984 174.423 240.248V238.936H171.703V237.8H178.391V238.936H175.815V240.2C175.815 243.064 177.271 244.968 178.791 245.896ZM180.695 249.432H179.351V242.328H177.271V241.16H179.351V236.456H180.695V249.432ZM183.463 250.12H182.103V236.136H183.463V250.12ZM196.587 247.48C196.587 249.08 194.875 250.088 191.755 250.088C188.619 250.088 186.875 249.08 186.875 247.48C186.875 245.864 188.619 244.856 191.755 244.856C194.875 244.856 196.587 245.864 196.587 247.48ZM198.123 243.816H185.499V242.664H190.651V239.752H192.059V242.664H198.123V243.816ZM195.147 247.48C195.147 246.536 193.819 246.008 191.755 246.008C189.659 246.008 188.331 246.536 188.331 247.48C188.331 248.44 189.659 248.952 191.755 248.952C193.819 248.952 195.147 248.44 195.147 247.48ZM196.619 236.872C196.619 237.4 196.603 237.8 196.603 238.264C196.571 239.512 196.427 240.888 196.203 241.832C195.755 241.784 195.291 241.72 194.827 241.656C195.115 240.552 195.195 239.224 195.195 238.024H187.019V236.872H196.619ZM212.366 243.144H210.142V250.12H208.718V236.136H210.142V241.96H212.366V243.144ZM205.518 238.2H201.342V237.048H205.518V238.2ZM207.55 240.6H199.262V239.464H207.55V240.6ZM206.766 244.344C206.766 245.992 205.454 247.272 203.47 247.272C201.486 247.272 200.158 246.024 200.158 244.344C200.158 242.696 201.486 241.384 203.47 241.384C205.454 241.384 206.766 242.664 206.766 244.344ZM205.374 244.344C205.374 243.304 204.558 242.568 203.47 242.568C202.382 242.568 201.582 243.304 201.582 244.344C201.582 245.368 202.366 246.088 203.47 246.088C204.622 246.088 205.374 245.368 205.374 244.344ZM225.81 244.408H213.186V243.256H225.81V244.408ZM224.482 249.816H214.866V245.672H216.274V248.648H224.482V249.816ZM224.418 241.608H214.914V236.712H216.322V240.456H224.418V241.608ZM243.201 247.672C243.201 249.192 241.425 250.104 238.465 250.104C235.505 250.104 233.713 249.192 233.713 247.672C233.713 246.168 235.505 245.256 238.465 245.256C241.425 245.256 243.201 246.168 243.201 247.672ZM243.041 245.304H241.681V241.256H240.145V244.808H238.801V236.392H240.145V240.088H241.681V236.136H243.041V245.304ZM237.793 242.632C237.793 243.976 236.705 244.856 234.785 244.856C232.865 244.856 231.761 243.976 231.761 242.632C231.761 241.272 232.865 240.376 234.785 240.376C236.705 240.376 237.793 241.272 237.793 242.632ZM238.465 246.36C236.417 246.36 235.153 246.872 235.153 247.672C235.153 248.488 236.417 249 238.465 249C240.497 249 241.761 248.488 241.761 247.672C241.761 246.872 240.497 246.36 238.465 246.36ZM238.337 239.864H231.153V238.728H238.337V239.864ZM236.433 242.632C236.433 242.008 235.825 241.576 234.785 241.576C233.745 241.576 233.121 242.008 233.121 242.632C233.121 243.256 233.745 243.688 234.785 243.688C235.825 243.688 236.433 243.256 236.433 242.632ZM236.513 237.88H232.849V236.744H236.513V237.88ZM258.053 242.872H255.877V250.12H254.469V236.136H255.877V241.704H258.053V242.872ZM253.317 245.656L252.469 246.712C251.221 245.896 249.589 244.152 249.061 242.536C248.581 244.232 247.189 246.008 245.605 247.064L244.725 246.008C246.837 244.68 248.325 242.248 248.325 239.672V237.336H249.781V239.608C249.781 242.232 251.349 244.44 253.317 245.656ZM270.393 243.624H268.969V236.136H270.393V243.624ZM270.409 249.944H261.321V244.392H262.729V246.04H268.985V244.376H270.409V249.944ZM268.985 248.808V247.16H262.729V248.808H268.985ZM262.905 236.792C264.905 236.792 266.473 238.12 266.473 240.104C266.473 242.104 264.905 243.368 262.905 243.368C260.905 243.368 259.321 242.104 259.321 240.12C259.321 238.152 260.905 236.792 262.905 236.792ZM262.905 238.024C261.689 238.024 260.745 238.824 260.745 240.088C260.745 241.352 261.689 242.136 262.905 242.136C264.137 242.136 265.049 241.352 265.049 240.104C265.049 238.824 264.153 238.024 262.905 238.024ZM284.22 236.136V250.12H282.812V236.136H284.22ZM281.5 244.84L281.676 245.992C280.044 246.392 276.892 246.632 274.908 246.664H273.596V237.592H275.02V245.448C276.86 245.448 279.884 245.224 281.5 244.84ZM288.608 245.528H289.184C291.024 245.528 293.6 245.384 295.008 245.08L295.168 246.232C293.712 246.536 291.312 246.696 288.768 246.712H287.2V237.608H293.808V238.776H288.608V245.528ZM297.408 236.136V241.592H299.584V242.776H297.408V250.12H296V236.136H297.408ZM300.548 248.696V247.128H302.1V248.696H300.548Z" fill="white"/>
</g>
<defs>
<clipPath id="clip0_93_821">
<rect width="360" height="320" fill="white"/>
</clipPath>
</defs>
</svg>
