<svg width="801" height="416" viewBox="0 0 801 416" fill="none" xmlns="http://www.w3.org/2000/svg">
<g clip-path="url(#clip0_93_964)">
<path d="M32 0L32 448" stroke="#41424A"/>
<path d="M64 0L64 448" stroke="#41424A"/>
<path d="M96.0001 0L96 448" stroke="#41424A"/>
<path d="M128 0L128 448" stroke="#41424A"/>
<path d="M160 0L160 448" stroke="#41424A"/>
<path d="M192 0L192 448" stroke="#41424A"/>
<path d="M224 0L224 448" stroke="#41424A"/>
<path d="M256 0L256 448" stroke="#41424A"/>
<path d="M288 0L288 448" stroke="#41424A"/>
<path d="M320 0L320 448" stroke="#41424A"/>
<path d="M352 0L352 448" stroke="#41424A"/>
<path d="M384 0L384 448" stroke="#41424A"/>
<path d="M416 0L416 448" stroke="#41424A"/>
<path d="M448 0L448 448" stroke="#41424A"/>
<path d="M480 0L480 448" stroke="#41424A"/>
<path d="M512 0L512 448" stroke="#41424A"/>
<path d="M544 0L544 448" stroke="#41424A"/>
<path d="M576 0L576 448" stroke="#41424A"/>
<path d="M608 0L608 448" stroke="#41424A"/>
<path d="M640 0L640 448" stroke="#41424A"/>
<path d="M672 0L672 448" stroke="#41424A"/>
<path d="M704 0L704 448" stroke="#41424A"/>
<path d="M736 0L736 448" stroke="#41424A"/>
<path d="M768 0L768 448" stroke="#41424A"/>
<path d="M800 0L800 448" stroke="#41424A"/>
<line y1="31.5" x2="1057" y2="31.5" stroke="#41424A"/>
<line y1="63.5" x2="1057" y2="63.5" stroke="#41424A"/>
<line y1="95.5" x2="1057" y2="95.5" stroke="#41424A"/>
<line y1="127.5" x2="1057" y2="127.5" stroke="#41424A"/>
<line y1="159.5" x2="1057" y2="159.5" stroke="#41424A"/>
<line y1="191.5" x2="1057" y2="191.5" stroke="#41424A"/>
<line y1="223.5" x2="1057" y2="223.5" stroke="#41424A"/>
<line y1="255.5" x2="1057" y2="255.5" stroke="#41424A"/>
<line y1="287.5" x2="1057" y2="287.5" stroke="#41424A"/>
<line y1="319.5" x2="1057" y2="319.5" stroke="#41424A"/>
<line y1="351.5" x2="1057" y2="351.5" stroke="#41424A"/>
<line y1="383.5" x2="1057" y2="383.5" stroke="#41424A"/>
<line y1="415.5" x2="1057" y2="415.5" stroke="#41424A"/>
<path d="M31.5 31H320.5V95H704.5V384H31.5V31Z" fill="#FF9900" fill-opacity="0.6"/>
<path d="M65.44 84.288V71.04H67.624V68.856H74.392V71.04H76.6V77.76H74.392V79.944H67.864V84.288H65.44ZM67.864 77.52H74.152V71.28H67.864V77.52ZM78.7759 84.288V75.384H80.9599V73.2H87.7279V75.384H89.9359V77.76H87.4879V75.6H81.1999V84.288H78.7759ZM94.2959 84.288V82.128H92.1119V75.384H94.2959V73.2H101.064V75.384H103.272V82.128H101.064V84.288H94.2959ZM94.5359 81.888H100.824V75.6H94.5359V81.888ZM108.358 88.632V86.472H106.174V84.072H108.598V86.232H114.91V82.128H108.358V79.944H106.174V75.384H108.358V73.2H115.15V75.384H117.334V86.472H115.15V88.632H108.358ZM108.598 79.704H114.91V75.6H108.598V79.704ZM120.237 84.288V75.384H122.421V73.2H129.189V75.384H131.397V77.76H128.949V75.6H122.661V84.288H120.237ZM135.757 84.288V82.128H133.573V75.384H135.757V73.2H142.525V75.384H144.733V81.888H146.917V84.288H144.493V82.128H142.525V84.288H135.757ZM135.997 81.888H142.285V75.6H135.997V81.888ZM149.088 84.288V73.2H155.88V75.384H157.8V73.2H162.432V75.384H164.592V84.288H162.192V75.6H158.04V84.288H155.64V75.6H151.512V84.288H149.088ZM172.292 84.288V73.2H179.084V75.384H181.004V73.2H185.636V75.384H187.796V84.288H185.396V75.6H181.244V84.288H178.844V75.6H174.716V84.288H172.292ZM190.69 84.288V73.2H193.114V84.288H190.69ZM190.69 71.28V68.856H193.114V71.28H190.69ZM196.01 84.288V81.888H204.722V79.944H198.194V77.76H196.01V75.384H198.194V73.2H207.17V75.6H198.434V77.52H204.962V79.704H207.17V82.128H204.962V84.288H196.01ZM209.604 84.288V81.888H218.316V79.944H211.788V77.76H209.604V75.384H211.788V73.2H220.764V75.6H212.028V77.52H218.556V79.704H220.764V82.128H218.556V84.288H209.604ZM223.667 84.288V73.2H226.091V84.288H223.667ZM223.667 71.28V68.856H226.091V71.28H223.667ZM230.702 84.288V82.128H228.518V75.384H230.702V73.2H237.47V75.384H239.678V82.128H237.47V84.288H230.702ZM230.942 81.888H237.23V75.6H230.942V81.888ZM242.581 84.288V73.2H251.533V75.384H253.741V84.288H251.293V75.6H245.005V84.288H242.581Z" fill="white"/>
<path d="M64.806 168.458L80.306 125.926H88.118L103.246 168.458H95.372L91.528 157.67H75.718L71.874 168.458H64.806ZM83.468 134.978L77.516 151.966H89.606L83.654 134.978H83.468ZM113.176 168.458L102.574 125.926H110.324L117.578 157.422H117.764L126.444 125.926H132.644L141.2 157.422H141.386L148.702 125.926H155.584L145.168 168.458H137.604L129.296 137.582H129.11L120.678 168.458H113.176ZM171.101 169.202C165.521 169.202 161.305 168.024 158.391 166.474V160.46C161.801 161.948 165.831 163.064 170.481 163.064C176.185 163.064 178.603 160.708 178.603 156.864C178.603 153.33 177.053 151.966 172.403 150.54L168.373 149.424C162.359 147.75 158.701 144.526 158.701 137.334C158.701 130.142 163.351 125.244 172.961 125.244C178.541 125.244 181.579 126.298 183.935 127.538V133.49C181.269 132.374 177.797 131.382 173.085 131.382C168.621 131.382 166.141 133.242 166.141 136.652C166.141 140 167.381 141.426 171.597 142.604L175.565 143.844C182.261 145.766 186.291 148.556 186.291 156.12C186.291 164.18 181.393 169.202 171.101 169.202ZM220.448 169.016C211.024 169.016 205.196 163.746 205.196 153.206V152.214C205.196 141.178 211.892 135.97 220.758 135.97C224.974 135.97 227.516 136.776 229.562 137.892V143.472C226.896 142.418 224.974 141.736 221.192 141.736C215.86 141.736 212.574 145.084 212.574 151.47V152.896C212.574 160.212 215.612 163.312 221.688 163.312C225.594 163.312 228.26 162.072 229.872 161.328V166.536C227.826 167.838 224.85 169.016 220.448 169.016ZM248.147 169.016C238.413 169.016 233.019 163.126 233.019 153.144V152.152C233.019 141.922 239.219 135.97 248.209 135.97C257.757 135.97 263.275 141.798 263.275 151.966V152.834C263.275 163.126 257.075 169.016 248.147 169.016ZM248.271 163.622C253.045 163.622 255.835 160.336 255.835 153.454V151.904C255.835 143.596 252.425 141.364 248.085 141.364C243.187 141.364 240.335 144.774 240.335 151.656V153.144C240.335 161.39 243.807 163.622 248.271 163.622ZM268.633 168.458V136.528H275.515V139.38H275.763C278.491 137.458 281.777 135.97 285.497 135.97C289.155 135.97 291.635 137.086 293.061 139.566H293.433C296.719 137.334 300.315 135.97 303.911 135.97C309.553 135.97 312.715 138.388 312.715 144.712V168.458H305.647V146.386C305.647 143.224 304.407 141.922 300.749 141.922C298.641 141.922 296.533 142.542 294.115 143.72C294.177 144.216 294.239 144.526 294.239 145.146V168.458H287.233V146.386C287.233 143.224 285.931 141.922 282.335 141.922C280.041 141.922 277.685 142.666 275.763 143.658V168.458H268.633ZM319.706 168.458V136.528H326.588V139.38H326.836C329.564 137.458 332.85 135.97 336.57 135.97C340.228 135.97 342.708 137.086 344.134 139.566H344.506C347.792 137.334 351.388 135.97 354.984 135.97C360.626 135.97 363.788 138.388 363.788 144.712V168.458H356.72V146.386C356.72 143.224 355.48 141.922 351.822 141.922C349.714 141.922 347.606 142.542 345.188 143.72C345.25 144.216 345.312 144.526 345.312 145.146V168.458H338.306V146.386C338.306 143.224 337.004 141.922 333.408 141.922C331.114 141.922 328.758 142.666 326.836 143.658V168.458H319.706ZM380.264 169.016C374.064 169.016 370.592 165.978 370.592 159.716V136.528H377.722V158.352C377.722 161.824 378.962 163.25 382.93 163.25C385.72 163.25 388.014 162.258 390.06 161.328V136.528H397.19V168.458H390.99L390.37 165.668H390.06C387.394 167.59 384.294 169.016 380.264 169.016ZM404.292 168.458V136.528H411.174V139.38H411.422C414.15 137.396 418.056 135.97 421.9 135.97C428.038 135.97 431.2 138.45 431.2 144.774V168.458H424.008V146.448C424.008 143.224 422.954 141.922 418.614 141.922C416.134 141.922 413.344 142.728 411.422 143.658V168.458H404.292ZM438.354 168.458V136.528H445.546V168.458H438.354ZM438.354 131.258V124.748H445.608V131.258H438.354ZM463.826 168.83C458.308 168.83 454.774 166.598 454.774 160.584V142.108H450.31V136.528H454.774V129.026H461.78V136.528H469.406V142.108H461.78V159.592C461.78 162.258 462.772 163.25 466.12 163.25C467.36 163.25 468.662 163.064 469.778 162.754V167.528C468.538 168.148 466.802 168.83 463.826 168.83ZM478.703 177.634C477.091 177.634 474.983 177.2 474.053 176.58V171.806C474.859 171.992 476.037 172.116 477.153 172.116C480.067 172.116 481.989 171.372 483.105 168.334L483.973 166.102L471.945 136.528H479.509L487.569 157.236H487.817L495.257 136.528H502.139L489.801 169.326C487.693 175.402 484.593 177.634 478.703 177.634ZM80.678 233.14C76.4 233.14 71.192 232.458 68.216 231.28V187.136H75.346V202.698H75.656C78.012 201.148 80.864 199.97 85.08 199.97C91.032 199.97 97.232 203.628 97.232 215.408V216.152C97.232 227.436 91.466 233.14 80.678 233.14ZM81.112 227.684C85.762 227.684 89.792 225.514 89.792 217.206V215.966C89.792 208.216 87.25 205.798 81.732 205.798C79.066 205.798 76.648 206.728 75.346 207.348V226.754C76.586 227.188 78.384 227.684 81.112 227.684ZM112.245 233.016C106.045 233.016 102.573 229.978 102.573 223.716V200.528H109.703V222.352C109.703 225.824 110.943 227.25 114.911 227.25C117.701 227.25 119.995 226.258 122.041 225.328V200.528H129.171V232.458H122.971L122.351 229.668H122.041C119.375 231.59 116.275 233.016 112.245 233.016ZM136.397 232.458V200.528H143.589V232.458H136.397ZM136.397 195.258V188.748H143.651V195.258H136.397ZM151.081 232.458V187.136H158.273V232.458H151.081ZM176.987 233.016C170.663 233.016 164.029 228.986 164.029 217.454V216.648C164.029 204.93 169.981 199.97 178.289 199.97C182.009 199.97 184.427 200.962 185.915 201.768V187.136H192.983V232.458H186.907L186.287 229.916H186.039C184.055 231.776 181.079 233.016 176.987 233.016ZM179.467 227.498C182.443 227.498 184.675 226.258 185.915 225.328V207.162C184.737 206.232 182.257 205.488 179.405 205.488C174.445 205.488 171.345 208.092 171.345 215.966V217.144C171.345 225.08 174.631 227.498 179.467 227.498ZM214.196 233.016C203.594 233.016 198.386 227.002 198.386 216.896V216.028C198.386 205.302 204.896 200.032 213.018 200.032C222.442 200.032 226.534 205.302 226.534 215.47V218.446H205.702C206.136 225.08 209.546 227.436 215.622 227.436C219.714 227.436 222.69 226.506 225.48 225.08V230.04C223.31 231.466 219.59 233.016 214.196 233.016ZM212.894 205.302C209.608 205.302 206.198 207.038 205.702 213.548H219.28C219.28 207.534 217.048 205.302 212.894 205.302ZM231.881 232.458V200.528H238.763V204.248H239.011C240.747 201.954 244.033 200.28 247.381 200.28C248.249 200.28 249.055 200.342 249.365 200.466V206.79C248.559 206.666 247.505 206.604 246.761 206.604C243.909 206.604 241.057 207.41 239.011 208.712V232.458H231.881ZM262.755 232.954C258.601 232.954 254.881 232.21 252.215 230.784V225.576C254.881 226.63 257.237 227.56 261.701 227.56C266.165 227.56 268.025 226.072 268.025 223.716C268.025 221.422 266.785 220.306 263.313 219.562L260.337 218.88C255.439 217.888 252.215 215.408 252.215 209.704C252.215 203.814 255.997 200.032 264.057 200.032C268.397 200.032 271.125 200.838 273.233 201.768V207.162C271.373 206.356 268.273 205.426 264.677 205.426C260.957 205.426 258.973 206.666 258.973 209.146C258.973 211.378 260.213 212.184 263.251 212.928L266.289 213.61C272.551 215.036 274.969 217.516 274.969 223.034C274.969 229.668 270.567 232.954 262.755 232.954ZM296.235 232.458V189.926H310.185C323.205 189.926 330.521 196.188 330.521 210.076V211.316C330.521 224.956 323.887 232.458 310.247 232.458H296.235ZM303.861 226.444H310.309C318.617 226.444 322.461 222.352 322.461 212.06V210.014C322.461 199.288 317.811 195.94 309.751 195.94H303.861V226.444ZM344.328 233.016C338.562 233.016 334.532 230.102 334.532 223.964C334.532 218.074 338.438 215.346 344.762 214.416L352.264 213.548V211.13C352.264 206.79 350.342 205.798 344.948 205.798C341.848 205.798 339.12 206.232 337.198 206.666V201.768C340.174 200.59 343.584 200.032 347.738 200.032C355.116 200.032 359.394 202.884 359.394 209.518V232.458H353.504L352.946 229.854H352.574C351.024 231.652 348.482 233.016 344.328 233.016ZM346.498 227.994C348.792 227.994 351.086 227.188 352.264 226.072V218.198L346.374 218.818C343.212 219.066 341.538 220.368 341.538 223.592C341.538 226.63 343.584 227.994 346.498 227.994ZM370.111 241.634C368.499 241.634 366.391 241.2 365.461 240.58V235.806C366.267 235.992 367.445 236.116 368.561 236.116C371.475 236.116 373.397 235.372 374.513 232.334L375.381 230.102L363.353 200.528H370.917L378.977 221.236H379.225L386.665 200.528H393.547L381.209 233.326C379.101 239.402 376.001 241.634 370.111 241.634ZM437.636 232.458L421.95 210.882C427.158 203.876 432.428 196.87 437.698 189.926H445.572L430.32 210.076C435.714 217.516 441.108 224.956 446.44 232.458H437.636ZM413.58 232.458V189.926H421.206V232.458H413.58ZM464.038 233.016C454.304 233.016 448.91 227.126 448.91 217.144V216.152C448.91 205.922 455.11 199.97 464.1 199.97C473.648 199.97 479.166 205.798 479.166 215.966V216.834C479.166 227.126 472.966 233.016 464.038 233.016ZM464.162 227.622C468.936 227.622 471.726 224.336 471.726 217.454V215.904C471.726 207.596 468.316 205.364 463.976 205.364C459.078 205.364 456.226 208.774 456.226 215.656V217.144C456.226 225.39 459.698 227.622 464.162 227.622ZM484.524 232.458V200.528H491.406V204.248H491.654C493.39 201.954 496.676 200.28 500.024 200.28C500.892 200.28 501.698 200.342 502.008 200.466V206.79C501.202 206.666 500.148 206.604 499.404 206.604C496.552 206.604 493.7 207.41 491.654 208.712V232.458H484.524ZM520.667 233.016C510.065 233.016 504.857 227.002 504.857 216.896V216.028C504.857 205.302 511.367 200.032 519.489 200.032C528.913 200.032 533.005 205.302 533.005 215.47V218.446H512.173C512.607 225.08 516.017 227.436 522.093 227.436C526.185 227.436 529.161 226.506 531.951 225.08V230.04C529.781 231.466 526.061 233.016 520.667 233.016ZM519.365 205.302C516.079 205.302 512.669 207.038 512.173 213.548H525.751C525.751 207.534 523.519 205.302 519.365 205.302ZM546.351 233.016C540.585 233.016 536.555 230.102 536.555 223.964C536.555 218.074 540.461 215.346 546.785 214.416L554.287 213.548V211.13C554.287 206.79 552.365 205.798 546.971 205.798C543.871 205.798 541.143 206.232 539.221 206.666V201.768C542.197 200.59 545.607 200.032 549.761 200.032C557.139 200.032 561.417 202.884 561.417 209.518V232.458H555.527L554.969 229.854H554.597C553.047 231.652 550.505 233.016 546.351 233.016ZM548.521 227.994C550.815 227.994 553.109 227.188 554.287 226.072V218.198L548.397 218.818C545.235 219.066 543.561 220.368 543.561 223.592C543.561 226.63 545.607 227.994 548.521 227.994ZM609.35 219.934H565.88V214.858H609.35V219.934ZM604.004 209.458H571.712V192.718H578.03V204.436H604.004V209.458ZM604.328 237.97H571.442V223.768H577.706V232.948H604.328V237.97Z" fill="white"/>
<path d="M75.544 293.864C75.472 301.448 71.776 305.984 66.04 308.768L64.864 307.376C68.32 305.888 70.96 303.536 72.448 300.416L65.344 301.04L64.96 299.384L73.024 298.904C73.36 297.8 73.576 296.624 73.624 295.376H65.872V293.864H75.544ZM80.224 301.52H75.472V299.96H80.224V291.704H82.048V312.68H80.224V301.52ZM101.038 301.184H86.8536V292.976H101.038V301.184ZM91.2216 312.704H89.3976V305.432H84.4776V303.896H103.414V305.432H98.4216V312.704H96.5976V305.432H91.2216V312.704ZM99.1896 299.672V294.488H88.7016V299.672H99.1896ZM121.035 291.704V312.68H119.235V291.704H121.035ZM117.099 304.976L117.267 306.56C114.843 307.112 109.371 307.52 106.155 307.52H105.219V293.888H107.067V305.912C109.755 305.912 114.603 305.528 117.099 304.976ZM136.641 305.36L136.833 306.872C134.553 307.304 129.945 307.616 126.609 307.616H124.785V293.696H134.553V295.208H126.633V299.6H134.169V301.088H126.633V306.032C129.921 306.128 134.553 305.792 136.641 305.36ZM140.817 312.68H138.993V291.704H140.817V312.68ZM158.568 310.256C157.176 310.256 155.28 310.016 154.224 309.608V292.808H156.072V298.88H156.192C157.104 298.328 158.232 297.872 159.864 297.872C162.144 297.872 164.496 299.24 164.496 303.704V304.016C164.496 308 162.408 310.256 158.568 310.256ZM158.664 308.72C160.8 308.72 162.576 307.712 162.576 304.304V303.824C162.576 300.512 161.424 299.432 159.024 299.432C157.8 299.432 156.696 299.912 156.072 300.2V308.288C156.624 308.528 157.464 308.72 158.664 308.72ZM169.678 310.208C167.35 310.208 166.03 309.032 166.03 306.728V298.088H167.878V306.464C167.878 308 168.43 308.624 170.182 308.624C171.454 308.624 172.51 308.168 173.494 307.688V298.088H175.318V309.992H173.734L173.566 308.912H173.47C172.39 309.656 171.118 310.208 169.678 310.208ZM177.701 309.992V298.112H179.525V309.992H177.701ZM177.677 295.712V293.792H179.549V295.712H177.677ZM181.914 309.992V292.808H183.762V309.992H181.914ZM190.352 310.208C187.976 310.208 185.408 308.768 185.408 304.376V304.064C185.408 299.744 187.64 297.872 190.712 297.872C192.176 297.872 193.184 298.28 193.832 298.664V292.808H195.68V309.992H194.144L193.928 309.008H193.832C193.112 309.704 191.96 310.208 190.352 310.208ZM190.904 308.696C192.296 308.696 193.232 308.168 193.832 307.688V300.2C193.28 299.768 192.176 299.432 190.952 299.432C188.696 299.432 187.328 300.608 187.328 303.824V304.304C187.328 307.64 188.768 308.696 190.904 308.696ZM202.878 310.208C199.134 310.208 197.238 307.928 197.238 304.208V303.872C197.238 299.72 199.686 297.872 202.422 297.872C205.686 297.872 207.222 299.768 207.222 303.464V304.496H199.11C199.206 307.472 200.622 308.624 203.166 308.624C204.75 308.624 205.806 308.24 206.886 307.736V309.104C206.166 309.608 204.798 310.208 202.878 310.208ZM202.374 299.36C200.886 299.36 199.302 300.224 199.11 303.032H205.302C205.302 300.44 204.318 299.36 202.374 299.36ZM208.782 309.992V298.088H210.534V299.432H210.654C211.326 298.664 212.622 297.968 213.966 297.968C214.23 297.968 214.566 297.992 214.686 298.016V299.672C214.374 299.624 214.014 299.6 213.822 299.6C212.622 299.6 211.47 300.032 210.63 300.632V309.992H208.782ZM221.303 293.072C224.543 293.072 227.015 295.064 227.015 298.112C227.015 300.872 224.999 302.72 222.239 303.08V306.488C224.591 306.344 226.727 306.2 228.071 306.008L228.215 307.472C226.559 307.712 223.679 307.928 221.135 308.096C218.831 308.216 216.767 308.288 215.015 308.288L214.679 306.68C216.239 306.68 218.279 306.68 220.415 306.584V303.08C217.631 302.768 215.615 300.92 215.615 298.136C215.615 295.088 218.063 293.072 221.303 293.072ZM221.303 294.632C219.023 294.632 217.391 296 217.391 298.136C217.391 300.248 219.047 301.592 221.303 301.592C223.655 301.592 225.215 300.248 225.215 298.16C225.215 296 223.679 294.632 221.303 294.632ZM234.575 302.024H231.215V312.68H229.367V291.704H231.215V300.488H234.575V302.024ZM240.549 309.992V292.808H242.373V299.12H242.493C243.525 298.376 245.037 297.872 246.501 297.872C248.829 297.872 249.957 298.832 249.957 301.136V309.992H248.133V301.496C248.133 300.056 247.629 299.456 245.733 299.456C244.605 299.456 243.357 299.864 242.373 300.344V309.992H240.549ZM257.112 310.208C253.368 310.208 251.472 307.928 251.472 304.208V303.872C251.472 299.72 253.92 297.872 256.656 297.872C259.92 297.872 261.456 299.768 261.456 303.464V304.496H253.344C253.44 307.472 254.856 308.624 257.4 308.624C258.984 308.624 260.04 308.24 261.12 307.736V309.104C260.4 309.608 259.032 310.208 257.112 310.208ZM256.608 299.36C255.12 299.36 253.536 300.224 253.344 303.032H259.536C259.536 300.44 258.552 299.36 256.608 299.36ZM263.016 309.992V298.088H264.768V299.432H264.888C265.56 298.664 266.856 297.968 268.2 297.968C268.464 297.968 268.8 297.992 268.92 298.016V299.672C268.608 299.624 268.248 299.6 268.056 299.6C266.856 299.6 265.704 300.032 264.864 300.632V309.992H263.016ZM274.745 310.208C271.385 310.208 269.369 308.048 269.369 304.256V303.896C269.369 300.128 271.553 297.872 274.769 297.872C278.129 297.872 280.169 300.056 280.169 303.824V304.16C280.169 307.952 277.961 310.208 274.745 310.208ZM274.793 308.696C276.953 308.696 278.297 307.184 278.297 304.376V303.776C278.297 300.464 276.689 299.384 274.745 299.384C272.585 299.384 271.241 300.92 271.241 303.704V304.304C271.241 307.616 272.801 308.696 274.793 308.696ZM297.021 291.704V300.44H300.453V302H297.021V312.68H295.197V291.704H297.021ZM291.573 293.96C291.453 300.776 287.517 305.696 282.117 308.504L280.989 307.064C286.221 304.64 289.221 300.224 289.605 295.496H281.709V293.96H291.573ZM324.884 298.544H321.692V304.16H319.868V291.704H321.692V297.008H324.884V298.544ZM307.796 305.264H321.692V312.824H319.868V306.776H307.796V305.264ZM315.86 293.144C315.452 298.616 311.804 302.192 306.476 303.848L305.492 302.312C309.692 301.376 313.292 298.256 313.868 294.704H306.332V293.144H315.86ZM337.561 306.392L336.457 307.76C334.489 306.512 331.921 303.872 331.177 301.376C330.457 303.92 328.417 306.512 325.897 308.264L324.697 306.896C327.793 305.072 330.217 301.376 330.217 297.608V295.448H325.369V293.912H336.961V295.448H332.113V297.56C332.113 301.472 334.681 304.76 337.561 306.392ZM344.665 301.76H341.257V312.68H339.433V291.704H341.257V300.224H344.665V301.76ZM360.103 291.704H361.927V312.68H360.103V291.704ZM356.791 298.328C356.791 301.304 354.367 303.2 351.343 303.2C348.247 303.2 345.871 301.136 345.871 298.328C345.871 295.376 348.295 293.336 351.343 293.336C354.439 293.336 356.791 295.256 356.791 298.328ZM355.015 298.328C355.015 296.216 353.383 294.896 351.343 294.896C349.327 294.896 347.647 296.36 347.647 298.328C347.647 300.272 349.303 301.664 351.343 301.664C353.335 301.664 355.015 300.296 355.015 298.328ZM358.879 307.352C357.079 307.568 354.079 307.76 351.415 307.88C348.943 308 346.639 308.072 345.055 308.096L344.719 306.488C346.519 306.512 348.991 306.464 351.535 306.32C354.463 306.224 357.175 306.056 358.711 305.864L358.879 307.352ZM369.965 295.088V293.552H381.245V295.088H376.541C376.541 296.048 376.541 296.48 376.565 296.792C376.733 299.48 379.325 301.88 381.725 302.672L380.693 304.136C378.701 303.32 376.469 301.328 375.605 299.432C375.029 301.376 372.605 303.656 370.349 304.64L369.293 303.224C371.933 302.192 374.573 299.528 374.669 296.768C374.693 296.48 374.693 296.024 374.693 295.088H369.965ZM386.501 307.064H384.677V299.072H380.501V297.536H384.677V291.704H386.501V307.064ZM386.957 311.984H372.821V305.528H374.645V310.448H386.957V311.984ZM405.491 300.248H391.307V292.856H405.491V300.248ZM403.667 298.736V294.368H393.131V298.736H403.667ZM399.347 308.24H397.523V304.112H388.931V302.6H407.867V304.112H399.347V308.24ZM405.731 312.008H391.283V306.08H393.107V310.496H405.731V312.008ZM430.137 300.392H415.977V292.376H417.801V294.968H428.289V292.376H430.137V300.392ZM423.945 308.288H422.121V304.256H413.601V302.744H432.537V304.256H423.945V308.288ZM430.425 312.008H416.001V306.32H417.825V310.496H430.425V312.008ZM428.289 298.856V296.48H417.801V298.856H428.289ZM433.455 300.68C433.455 296.264 435.423 293.288 438.831 293.288C442.239 293.288 444.183 296.264 444.183 300.704C444.183 305.144 442.239 308.12 438.831 308.12C435.423 308.12 433.455 305.144 433.455 300.68ZM442.407 300.704C442.407 297.248 441.015 294.872 438.831 294.872C436.647 294.872 435.231 297.248 435.231 300.704C435.231 304.136 436.647 306.536 438.831 306.536C441.015 306.536 442.407 304.136 442.407 300.704ZM452.703 296.984V298.52H449.031V303.392H452.703V304.928H449.031V312.68H447.207V291.704H449.031V296.984H452.703ZM457.676 293.528C460.58 293.528 462.14 296.192 462.284 300.008H464.54V292.112H466.316V311.672H464.54V301.52H462.284C462.092 305.312 460.556 307.88 457.676 307.88C454.628 307.88 453.068 304.928 453.068 300.704C453.068 296.504 454.628 293.528 457.676 293.528ZM460.484 300.704C460.484 297.32 459.38 295.136 457.676 295.136C455.996 295.136 454.916 297.32 454.916 300.704C454.916 304.112 455.996 306.272 457.676 306.272C459.38 306.272 460.484 304.112 460.484 300.704ZM470.42 312.68H468.62V291.704H470.42V312.68ZM495.091 312.68H493.291V301.496H490.483V311.6H488.707V292.208H490.483V299.96H493.291V291.704H495.091V312.68ZM479.875 305.696H480.499C482.611 305.696 485.755 305.552 487.531 305.168L487.699 306.656C485.707 307.04 482.179 307.28 479.443 307.28H478.051V294.272H486.187V295.808H479.875V305.696ZM516.288 300.344H513.096V307.184H511.272V291.704H513.096V298.808H516.288V300.344ZM513.912 312.008H499.944V306.632H501.768V310.472H513.912V312.008ZM505.92 294.056H499.872V292.448H505.92V294.056ZM509.16 297.152H496.872V295.64H509.16V297.152ZM507.96 301.952C507.96 304.16 505.848 305.624 503.016 305.624C500.232 305.624 498.096 304.16 498.096 301.952C498.096 299.696 500.208 298.28 503.016 298.28C505.848 298.28 507.96 299.696 507.96 301.952ZM506.232 301.952C506.232 300.56 504.72 299.72 503.016 299.72C501.336 299.72 499.824 300.56 499.824 301.952C499.824 303.32 501.336 304.16 503.016 304.16C504.72 304.16 506.232 303.32 506.232 301.952ZM82.672 352.68H80.872V331.704H82.672V352.68ZM78.52 351.624H76.744V340.8H73.024V339.264H76.744V332.208H78.52V351.624ZM75.472 346.056L74.344 347.4C72.736 346.248 70.528 343.752 69.856 341.376C69.4 343.776 67.672 346.512 65.584 348.024L64.456 346.656C66.832 345.144 68.944 341.568 68.944 337.464V333.648H70.744V337.416C70.744 341.496 73.192 344.544 75.472 346.056ZM95.9256 340.8V339.264H99.7896V336.408H95.9256V334.872H99.7896V331.704H101.614V346.872H99.7896V340.8H95.9256ZM96.7176 342.504L95.6376 343.944C93.4776 342.912 91.4136 340.992 90.5256 338.856C89.8776 341.064 87.6456 343.44 85.3656 344.616L84.2376 343.2C87.0456 341.952 89.5656 339.048 89.5656 335.688V332.928H91.4136V335.616C91.4136 339.12 94.2216 341.592 96.7176 342.504ZM102.07 352.032H88.1256V345.624H89.9496V350.52H102.07V352.032ZM123.699 342.024H120.291V352.68H118.467V331.704H120.291V340.464H123.699V342.024ZM117.267 347.376C115.251 347.64 112.155 347.856 110.115 347.976C108.003 348.072 105.675 348.144 103.923 348.144L103.659 346.536C104.811 346.536 106.683 346.56 108.243 346.512V339.888H110.091V346.464C112.611 346.344 115.251 346.152 117.123 345.864L117.267 347.376ZM115.683 333.912C115.731 337.128 115.395 341.496 114.939 343.536L113.187 343.296C113.643 341.256 113.931 337.8 113.835 335.448H104.715V333.912H115.683ZM145.85 347.016H144.026V331.704H145.85V347.016ZM146.378 351.984H132.17V345.504H133.994V350.472H146.378V351.984ZM134.81 333.096C138.002 333.096 140.474 335.208 140.474 338.328C140.474 341.448 138.026 343.536 134.834 343.536C131.642 343.536 129.17 341.472 129.17 338.352C129.17 335.232 131.642 333.096 134.81 333.096ZM134.81 334.68C132.602 334.68 130.922 336.192 130.922 338.328C130.922 340.44 132.626 341.928 134.834 341.928C137.138 341.928 138.746 340.44 138.746 338.352C138.746 336.192 137.138 334.68 134.81 334.68ZM167.791 341.712H164.407V352.68H162.583V331.704H164.407V340.176H167.791V341.712ZM160.591 346.176L159.439 347.568C157.279 346.08 154.927 343.584 154.087 341.04C153.343 343.656 151.303 346.32 148.831 348.048L147.655 346.632C150.703 344.76 153.175 340.992 153.175 337.272V333.552H155.047V337.224C155.047 341.04 157.687 344.472 160.591 346.176ZM185.101 352.68H183.277V331.704H185.101V352.68ZM168.541 340.68C168.541 336.264 170.509 333.288 173.941 333.288C177.421 333.288 179.365 336.264 179.365 340.704C179.365 345.144 177.421 348.12 173.941 348.12C170.509 348.12 168.541 345.144 168.541 340.68ZM177.637 340.704C177.637 337.248 176.173 334.872 173.941 334.872C171.733 334.872 170.269 337.248 170.269 340.704C170.269 344.136 171.733 346.536 173.941 346.536C176.173 346.536 177.637 344.136 177.637 340.704ZM203.466 339.84H191.562V343.104H204.09V344.64H189.714V333.72H203.874V335.256H191.562V338.304H203.466V339.84ZM206.346 350.016H187.41V348.48H206.346V350.016ZM225.912 342.888H206.976V341.472H225.912V342.888ZM224.328 352.296H209.16V347.64H221.856V345.888H209.184V344.544H223.68V348.936H210.984V350.856H224.328V352.296ZM223.968 339.816H209.376V335.472H221.736V333.84H209.352V332.4H223.56V336.792H211.2V338.448H223.968V339.816ZM242.35 346.392L241.198 347.736C239.71 346.68 237.502 344.232 236.902 342.024C236.47 344.352 234.574 346.848 232.534 348.288L231.31 347.016C233.782 345.432 235.99 342.12 235.99 338.04V335.688H231.814V334.176H241.822V335.688H237.79V337.992C237.79 342.12 239.758 344.712 242.35 346.392ZM245.182 351.624H243.382V340.92H240.022V339.408H243.382V332.208H245.182V351.624ZM249.334 352.68H247.534V331.704H249.334V352.68ZM268.156 348.72C268.156 351.072 265.54 352.488 260.644 352.488C255.748 352.488 253.084 351.072 253.084 348.72C253.084 346.368 255.748 344.928 260.644 344.928C265.54 344.928 268.156 346.368 268.156 348.72ZM266.356 348.72C266.356 347.28 264.148 346.416 260.644 346.416C257.092 346.416 254.908 347.28 254.908 348.72C254.908 350.184 257.092 351.024 260.644 351.024C264.148 351.024 266.356 350.184 266.356 348.72ZM270.148 343.224H251.212V341.712H259.012V337.272H260.836V341.712H270.148V343.224ZM267.916 332.856V334.728C267.916 336.48 267.652 339.024 267.316 340.32L265.516 340.08C265.852 338.928 265.996 337.032 266.02 336.072L266.044 334.368H253.3V332.856H267.916ZM290.314 342.096H286.906V352.68H285.082V331.704H286.906V340.56H290.314V342.096ZM279.97 334.704H273.802V333.144H279.97V334.704ZM283.066 338.256H270.682V336.744H283.066V338.256ZM281.818 343.944C281.818 346.368 279.85 348.264 276.922 348.264C273.994 348.264 272.026 346.392 272.026 343.944C272.026 341.496 273.994 339.6 276.922 339.6C279.85 339.6 281.818 341.472 281.818 343.944ZM279.994 343.944C279.994 342.288 278.698 341.136 276.922 341.136C275.17 341.136 273.85 342.288 273.85 343.944C273.85 345.576 275.17 346.752 276.922 346.752C278.722 346.752 279.994 345.576 279.994 343.944ZM309.279 344.064H290.343V342.528H309.279V344.064ZM307.263 352.224H292.815V346.032H294.639V350.712H307.263V352.224ZM307.167 339.912H292.887V332.592H294.711V338.4H307.167V339.912ZM332.654 349.056C332.654 351.288 330.038 352.656 325.598 352.656C321.182 352.656 318.566 351.288 318.566 349.056C318.566 346.872 321.182 345.504 325.598 345.504C330.038 345.504 332.654 346.872 332.654 349.056ZM332.702 345.456H330.878V339.264H328.334V344.688H326.558V332.088H328.334V337.752H330.878V331.704H332.702V345.456ZM324.95 341.352C324.95 343.416 322.982 344.592 320.414 344.592C317.846 344.592 315.878 343.416 315.878 341.352C315.878 339.264 317.846 338.064 320.414 338.064C322.982 338.064 324.95 339.264 324.95 341.352ZM325.598 347.04C322.382 347.04 320.414 347.832 320.414 349.08C320.414 350.328 322.382 351.12 325.598 351.12C328.814 351.12 330.806 350.328 330.806 349.08C330.806 347.832 328.814 347.04 325.598 347.04ZM325.526 337.128H314.822V335.64H325.526V337.128ZM323.15 341.352C323.15 340.248 321.926 339.528 320.414 339.528C318.902 339.528 317.678 340.248 317.678 341.352C317.678 342.408 318.902 343.152 320.414 343.152C321.95 343.152 323.15 342.408 323.15 341.352ZM323.006 334.152H317.558V332.568H323.006V334.152ZM354.091 341.712H350.707V352.68H348.883V331.704H350.707V340.176H354.091V341.712ZM346.891 346.176L345.739 347.568C343.579 346.08 341.227 343.584 340.387 341.04C339.643 343.656 337.603 346.32 335.131 348.048L333.955 346.632C337.003 344.76 339.475 340.992 339.475 337.272V333.552H341.347V337.224C341.347 341.04 343.987 344.472 346.891 346.176ZM371.281 342.936H369.457V331.704H371.281V342.936ZM371.305 352.392H357.769V344.088H359.593V346.752H369.481V344.088H371.305V352.392ZM369.481 350.904V348.24H359.593V350.904H369.481ZM360.097 332.736C363.049 332.736 365.473 334.656 365.473 337.632C365.473 340.632 363.049 342.504 360.097 342.504C357.169 342.504 354.697 340.632 354.697 337.656C354.697 334.704 357.145 332.736 360.097 332.736ZM360.097 334.32C358.033 334.32 356.521 335.664 356.521 337.632C356.521 339.648 358.033 340.992 360.097 340.992C362.233 340.992 363.649 339.648 363.649 337.656C363.649 335.688 362.257 334.32 360.097 334.32ZM390.702 331.704V352.68H388.902V331.704H390.702ZM386.766 344.976L386.934 346.56C384.51 347.112 379.038 347.52 375.822 347.52H374.886V333.888H376.734V345.912C379.422 345.912 384.27 345.528 386.766 344.976ZM409.452 331.704V340.032H412.86V341.568H409.452V352.68H407.628V331.704H409.452ZM395.94 345.984H397.14C399.852 345.984 404.004 345.744 406.02 345.312L406.212 346.824C403.956 347.256 399.804 347.544 396.156 347.544H394.092V333.888H404.052V335.424H395.94V345.984ZM412.938 350.592V348.456H415.026V350.592H412.938Z" fill="white"/>
</g>
<defs>
<clipPath id="clip0_93_964">
<rect width="801" height="416" fill="white"/>
</clipPath>
</defs>
</svg>
