<svg width="1376" height="257" viewBox="0 0 1376 257" fill="none" xmlns="http://www.w3.org/2000/svg">
<g clip-path="url(#clip0_3_2468)">
<path d="M32 0L32 417" stroke="#41424A"/>
<path d="M64 0L64 417" stroke="#41424A"/>
<path d="M96.0001 0L96 417" stroke="#41424A"/>
<path d="M128 0L128 417" stroke="#41424A"/>
<path d="M160 0L160 417" stroke="#41424A"/>
<path d="M192 0L192 417" stroke="#41424A"/>
<path d="M224 0L224 417" stroke="#41424A"/>
<path d="M256 0L256 417" stroke="#41424A"/>
<path d="M288 0L288 417" stroke="#41424A"/>
<path d="M320 0L320 417" stroke="#41424A"/>
<path d="M352 0L352 417" stroke="#41424A"/>
<path d="M384 0L384 417" stroke="#41424A"/>
<path d="M416 0L416 417" stroke="#41424A"/>
<path d="M448 0L448 417" stroke="#41424A"/>
<path d="M480 0L480 417" stroke="#41424A"/>
<path d="M512 0L512 417" stroke="#41424A"/>
<path d="M544 0L544 417" stroke="#41424A"/>
<path d="M576 0L576 417" stroke="#41424A"/>
<path d="M608 0L608 417" stroke="#41424A"/>
<path d="M640 0L640 417" stroke="#41424A"/>
<path d="M672 0L672 417" stroke="#41424A"/>
<path d="M704 0L704 417" stroke="#41424A"/>
<path d="M736 0L736 417" stroke="#41424A"/>
<path d="M768 0L768 417" stroke="#41424A"/>
<path d="M800 0L800 417" stroke="#41424A"/>
<path d="M832 0L832 417" stroke="#41424A"/>
<path d="M864 0L864 417" stroke="#41424A"/>
<path d="M896 0L896 417" stroke="#41424A"/>
<path d="M928 0L928 417" stroke="#41424A"/>
<path d="M960 0L960 417" stroke="#41424A"/>
<path d="M992 0L992 417" stroke="#41424A"/>
<path d="M1024 0L1024 417" stroke="#41424A"/>
<path d="M1056 0L1056 417" stroke="#41424A"/>
<path d="M1088 0L1088 417" stroke="#41424A"/>
<path d="M1120 0L1120 417" stroke="#41424A"/>
<path d="M1152 0L1152 417" stroke="#41424A"/>
<path d="M1184 0L1184 417" stroke="#41424A"/>
<path d="M1216 0L1216 417" stroke="#41424A"/>
<path d="M1248 0L1248 417" stroke="#41424A"/>
<path d="M1280 0L1280 417" stroke="#41424A"/>
<path d="M1312 0L1312 417" stroke="#41424A"/>
<path d="M1344 0L1344 417" stroke="#41424A"/>
<line y1="0.5" x2="1376" y2="0.5" stroke="#41424A"/>
<line y1="32.5" x2="1376" y2="32.5" stroke="#41424A"/>
<line y1="64.5" x2="1376" y2="64.5" stroke="#41424A"/>
<line y1="96.5" x2="1376" y2="96.5" stroke="#41424A"/>
<line y1="128.5" x2="1376" y2="128.5" stroke="#41424A"/>
<line y1="160.5" x2="1376" y2="160.5" stroke="#41424A"/>
<line y1="192.5" x2="1376" y2="192.5" stroke="#41424A"/>
<line y1="224.5" x2="1376" y2="224.5" stroke="#41424A"/>
<line y1="256.5" x2="1376" y2="256.5" stroke="#41424A"/>
<path d="M421 32.5H726V96.5H955V225.5H421V32.5Z" fill="#703FFF" fill-opacity="0.6"/>
<path d="M449.44 86.288V73.04H451.624V70.856H458.392V73.04H460.6V79.76H458.392V81.944H451.864V86.288H449.44ZM451.864 79.52H458.152V73.28H451.864V79.52ZM462.776 86.288V77.384H464.96V75.2H471.728V77.384H473.936V79.76H471.488V77.6H465.2V86.288H462.776ZM478.296 86.288V84.128H476.112V77.384H478.296V75.2H485.064V77.384H487.272V84.128H485.064V86.288H478.296ZM478.536 83.888H484.824V77.6H478.536V83.888ZM492.358 90.632V88.472H490.174V86.072H492.598V88.232H498.91V84.128H492.358V81.944H490.174V77.384H492.358V75.2H499.15V77.384H501.334V88.472H499.15V90.632H492.358ZM492.598 81.704H498.91V77.6H492.598V81.704ZM504.237 86.288V77.384H506.421V75.2H513.189V77.384H515.397V79.76H512.949V77.6H506.661V86.288H504.237ZM519.757 86.288V84.128H517.573V77.384H519.757V75.2H526.525V77.384H528.733V83.888H530.917V86.288H528.493V84.128H526.525V86.288H519.757ZM519.997 83.888H526.285V77.6H519.997V83.888ZM533.088 86.288V75.2H539.88V77.384H541.8V75.2H546.432V77.384H548.592V86.288H546.192V77.6H542.04V86.288H539.64V77.6H535.512V86.288H533.088ZM556.292 86.288V83.888H565.004V81.944H558.476V79.76H556.292V77.384H558.476V75.2H567.452V77.6H558.716V79.52H565.244V81.704H567.452V84.128H565.244V86.288H556.292ZM572.069 86.288V84.128H569.885V77.384H572.069V75.2H578.837V77.384H581.045V79.76H578.597V77.6H572.309V83.888H578.597V81.704H581.045V84.128H578.837V86.288H572.069ZM583.479 86.288V70.856H585.903V77.384H587.823V75.2H592.431V77.384H594.639V86.288H592.191V77.6H588.063V79.76H585.903V86.288H583.479ZM599.257 86.288V84.128H597.073V77.384H599.257V75.2H606.025V77.384H608.233V79.76H605.785V77.6H599.497V79.52H603.865V81.944H599.497V83.888H605.785V81.68H608.233V84.104H606.025V86.288H599.257ZM613.319 86.288V84.128H611.135V77.384H613.319V75.2H619.871V70.856H622.295V84.128H620.087V86.288H613.319ZM613.559 83.888H619.847V77.6H613.559V83.888ZM626.913 86.288V84.128H624.729V75.2H627.153V83.888H633.441V75.2H635.889V84.128H633.681V86.288H626.913ZM638.792 86.288V70.856H641.216V86.288H638.792ZM645.827 86.288V84.128H643.643V77.384H645.827V75.2H652.595V77.384H654.803V79.76H652.355V77.6H646.067V79.52H650.435V81.944H646.067V83.888H652.355V81.68H654.803V84.104H652.595V86.288H645.827Z" fill="white"/>
<path d="M452.86 186.54V145.38H467.26C476.74 145.38 480.82 149.22 480.82 155.76C480.82 160.08 479.02 163.2 474.1 164.76V164.94C479.26 165.9 482.62 168.78 482.62 174.78C482.62 181.62 478 186.54 468.28 186.54H452.86ZM460.18 181.02H467.26C472.24 181.02 474.88 178.86 474.88 174.36C474.88 169.62 472.06 167.82 466.84 167.82H460.18V181.02ZM460.18 162.9H465.94C470.26 162.9 473.5 161.46 473.5 156.78C473.5 152.34 470.98 150.84 466.24 150.84H460.18V162.9ZM497.926 187.08C491.926 187.08 488.566 184.14 488.566 178.08V155.64H495.466V176.76C495.466 180.12 496.666 181.5 500.506 181.5C503.206 181.5 505.426 180.54 507.406 179.64V155.64H514.306V186.54H508.306L507.706 183.84H507.406C504.826 185.7 501.826 187.08 497.926 187.08ZM521.898 186.54V155.64H528.858V186.54H521.898ZM521.898 150.54V144.24H528.918V150.54H521.898ZM536.709 186.54V142.68H543.669V186.54H536.709ZM562.379 187.08C556.259 187.08 549.839 183.18 549.839 172.02V171.24C549.839 159.9 555.599 155.1 563.639 155.1C567.239 155.1 569.579 156.06 571.019 156.84V142.68H577.859V186.54H571.979L571.379 184.08H571.139C569.219 185.88 566.339 187.08 562.379 187.08ZM564.779 181.74C567.659 181.74 569.819 180.54 571.019 179.64V162.06C569.879 161.16 567.479 160.44 564.719 160.44C559.919 160.44 556.919 162.96 556.919 170.58V171.72C556.919 179.4 560.099 181.74 564.779 181.74ZM598.988 187.08C588.728 187.08 583.688 181.26 583.688 171.48V170.64C583.688 160.26 589.988 155.16 597.848 155.16C606.968 155.16 610.928 160.26 610.928 170.1V172.98H590.768C591.188 179.4 594.488 181.68 600.368 181.68C604.328 181.68 607.208 180.78 609.908 179.4V184.2C607.808 185.58 604.208 187.08 598.988 187.08ZM597.728 160.26C594.548 160.26 591.248 161.94 590.768 168.24H603.908C603.908 162.42 601.748 160.26 597.728 160.26ZM616.703 186.54V155.64H623.363V159.24H623.603C625.283 157.02 628.463 155.4 631.703 155.4C632.543 155.4 633.323 155.46 633.623 155.58V161.7C632.843 161.58 631.823 161.52 631.103 161.52C628.343 161.52 625.583 162.3 623.603 163.56V186.54H616.703ZM637.46 149.4V141.78H645.38V147.66C645.38 153.12 642.38 157.32 637.46 158.22V154.44C639.44 153.96 641.06 151.68 641.12 149.4H637.46ZM661.111 187.02C657.091 187.02 653.491 186.3 650.911 184.92V179.88C653.491 180.9 655.771 181.8 660.091 181.8C664.411 181.8 666.211 180.36 666.211 178.08C666.211 175.86 665.011 174.78 661.651 174.06L658.771 173.4C654.031 172.44 650.911 170.04 650.911 164.52C650.911 158.82 654.571 155.16 662.371 155.16C666.571 155.16 669.211 155.94 671.251 156.84V162.06C669.451 161.28 666.451 160.38 662.971 160.38C659.371 160.38 657.451 161.58 657.451 163.98C657.451 166.14 658.651 166.92 661.591 167.64L664.531 168.3C670.591 169.68 672.931 172.08 672.931 177.42C672.931 183.84 668.671 187.02 661.111 187.02ZM694.712 186.54V145.38H708.212C720.812 145.38 727.892 151.44 727.892 164.88V166.08C727.892 179.28 721.472 186.54 708.272 186.54H694.712ZM702.092 180.72H708.332C716.372 180.72 720.092 176.76 720.092 166.8V164.82C720.092 154.44 715.592 151.2 707.792 151.2H702.092V180.72ZM741.853 187.08C736.273 187.08 732.373 184.26 732.373 178.32C732.373 172.62 736.153 169.98 742.273 169.08L749.533 168.24V165.9C749.533 161.7 747.673 160.74 742.453 160.74C739.453 160.74 736.813 161.16 734.953 161.58V156.84C737.833 155.7 741.133 155.16 745.153 155.16C752.293 155.16 756.433 157.92 756.433 164.34V186.54H750.733L750.193 184.02H749.833C748.333 185.76 745.873 187.08 741.853 187.08ZM743.953 182.22C746.173 182.22 748.393 181.44 749.533 180.36V172.74L743.833 173.34C740.773 173.58 739.153 174.84 739.153 177.96C739.153 180.9 741.133 182.22 743.953 182.22ZM767.404 195.42C765.844 195.42 763.804 195 762.904 194.4V189.78C763.684 189.96 764.824 190.08 765.904 190.08C768.724 190.08 770.584 189.36 771.664 186.42L772.504 184.26L760.864 155.64H768.184L775.984 175.68H776.224L783.424 155.64H790.084L778.144 187.38C776.104 193.26 773.104 195.42 767.404 195.42ZM853.451 193.32H816.671V178.98H844.811V175.26H816.371V169.74H851.771V184.02H823.691V187.68H853.451V193.32ZM851.771 167.04H844.811V140.28H851.771V167.04ZM809.171 154.5C809.171 147.36 815.171 142.08 823.391 142.08C831.551 142.08 837.491 147.24 837.491 154.5C837.491 161.64 831.551 166.44 823.391 166.44C815.471 166.44 809.171 161.82 809.171 154.5ZM816.131 154.44C816.131 158.04 819.251 160.62 823.391 160.62C827.771 160.62 830.531 157.74 830.531 154.44C830.531 150.78 827.891 147.84 823.391 147.84C819.431 147.84 816.131 150.84 816.131 154.44ZM903.505 183.06C903.505 189.54 896.605 193.62 884.785 193.62C872.965 193.62 866.065 189.54 866.065 183.06C866.065 176.4 872.965 172.32 884.785 172.32C896.605 172.32 903.505 176.4 903.505 183.06ZM860.785 149.82V144.06H888.925V149.82H878.785C879.325 157.26 884.725 162.24 890.545 164.16C889.345 166.02 888.025 167.82 886.765 169.68C882.685 168.12 877.465 164.1 875.185 159.24C873.565 164.4 867.925 169.44 862.765 171.24C861.325 169.38 860.005 167.58 858.565 165.78C866.065 163.08 870.985 157.44 871.405 149.82H860.785ZM888.085 158.7V153.06H896.125V140.28H903.145V172.08H896.125V158.7H888.085ZM884.785 177.96C877.525 177.96 873.265 179.82 873.265 183.06C873.265 186.18 877.525 188.04 884.785 188.04C892.165 188.04 896.365 186.18 896.365 183.06C896.365 179.82 892.165 177.96 884.785 177.96Z" fill="white"/>
</g>
<defs>
<clipPath id="clip0_3_2468">
<rect width="1376" height="257" fill="white"/>
</clipPath>
</defs>
</svg>
