<svg width="360" height="224" viewBox="0 0 360 224" fill="none" xmlns="http://www.w3.org/2000/svg">
<g clip-path="url(#clip0_126_1594)">
<path d="M20 0L20 224" stroke="#41424A"/>
<path d="M52 0L52 224" stroke="#41424A"/>
<path d="M84 0L84 224" stroke="#41424A"/>
<path d="M116 0L116 224" stroke="#41424A"/>
<path d="M148 0L148 224" stroke="#41424A"/>
<path d="M180 0L180 224" stroke="#41424A"/>
<path d="M212 0L212 224" stroke="#41424A"/>
<path d="M244 0L244 224" stroke="#41424A"/>
<path d="M276 0L276 224" stroke="#41424A"/>
<path d="M308 0L308 224" stroke="#41424A"/>
<path d="M340 0L340 224" stroke="#41424A"/>
<line y1="31.5" x2="360" y2="31.5" stroke="#41424A"/>
<line y1="63.5" x2="360" y2="63.5" stroke="#41424A"/>
<line y1="95.5" x2="360" y2="95.5" stroke="#41424A"/>
<line y1="127.5" x2="360" y2="127.5" stroke="#41424A"/>
<line y1="159.5" x2="360" y2="159.5" stroke="#41424A"/>
<line y1="191.5" x2="360" y2="191.5" stroke="#41424A"/>
<line y1="223.5" x2="360" y2="223.5" stroke="#41424A"/>
<path d="M52.25 32H191.5V64H255.5V190.5H52.25V32Z" fill="#703FFF" fill-opacity="0.6"/>
<path d="M75.27 82.24V80.44H73.45V69.38H75.47V80.24H80.71V78.42H82.75V80.44H80.91V82.24H75.27ZM86.3833 82.24V80.44H84.5633V74.82H86.3833V73H92.0233V74.82H93.8633V80.44H92.0233V82.24H86.3833ZM86.5833 80.24H91.8233V75H86.5833V80.24ZM98.102 82.24V80.44H96.282V74.82H98.102V73H103.742V74.82H105.582V76.8H103.542V75H98.302V80.24H103.542V78.42H105.582V80.44H103.742V82.24H98.102ZM109.215 82.24V80.44H107.395V74.82H109.215V73H114.855V74.82H116.695V80.24H118.515V82.24H116.495V80.44H114.855V82.24H109.215ZM109.415 80.24H114.655V75H109.415V80.24ZM122.343 82.24V80.44H120.543V75H118.723V73H120.543V69.38H122.543V73H128.023V75H122.543V80.24H127.823V78.42H129.843V80.44H128.023V82.24H122.343ZM132.259 82.24V73H134.279V82.24H132.259ZM132.259 71.4V69.38H134.279V71.4H132.259ZM138.122 82.24V80.44H136.302V74.82H138.122V73H143.762V74.82H145.602V80.44H143.762V82.24H138.122ZM138.322 80.24H143.562V75H138.322V80.24ZM148.02 82.24V73H155.48V74.82H157.32V82.24H155.28V75H150.04V82.24H148.02Z" fill="white"/>
<path d="M107.32 151.656H73.51V147.75H87.916V141.786C81.07 140.988 76.702 136.998 76.702 131.538C76.702 125.49 82.162 121.248 90.436 121.248C98.752 121.248 104.17 125.49 104.17 131.538C104.17 137.04 99.76 141.072 92.83 141.786V147.75H107.32V151.656ZM99.214 131.58C99.214 127.842 95.77 125.28 90.436 125.28C85.144 125.28 81.7 127.842 81.7 131.58C81.7 135.36 85.144 137.88 90.436 137.88C95.728 137.88 99.214 135.36 99.214 131.58ZM139.964 156.318H135.05V118.896H139.964V156.318ZM132.236 144.138L129.38 147.834C126.314 145.944 122.408 141.408 121.148 137.502C119.93 141.786 116.066 146.532 112.202 148.632L109.22 145.02C115.268 141.114 118.502 135.192 118.502 127.758V122.046H123.584V127.506C123.584 134.898 126.566 140.484 132.236 144.138ZM178.32 141.282H144.51V137.334H178.32V141.282ZM174.162 133.134H149.046V120.114H153.96V129.228H174.162V133.134ZM174.414 155.31H148.836V144.264H153.708V151.404H174.414V155.31ZM222.165 155.856H196.293V146.028H216.201V143.718H196.041V139.854H221.115V149.64H201.207V151.908H222.165V155.856ZM221.115 137.838H216.243V118.896H221.115V137.838ZM209.817 120.492C209.775 131.076 201.375 136.788 193.017 138.552L190.581 134.562C197.301 133.638 203.097 129.942 204.399 124.566H192.429V120.492H209.817Z" fill="white"/>
<rect x="256.5" y="32" width="31" height="31" fill="#703FFF" fill-opacity="0.6"/>
<rect x="288.5" width="31" height="31" fill="#703FFF" fill-opacity="0.6"/>
<rect x="224.5" width="31" height="31" fill="#703FFF" fill-opacity="0.6"/>
</g>
<defs>
<clipPath id="clip0_126_1594">
<rect width="360" height="224" fill="white"/>
</clipPath>
</defs>
</svg>
