<svg width="360" height="320" viewBox="0 0 360 320" fill="none" xmlns="http://www.w3.org/2000/svg">
<g clip-path="url(#clip0_93_821)">
<path d="M32 0L32 448" stroke="#41424A"/>
<path d="M64 0L64 448" stroke="#41424A"/>
<path d="M96.0001 0L96 448" stroke="#41424A"/>
<path d="M128 0L128 448" stroke="#41424A"/>
<path d="M160 0L160 448" stroke="#41424A"/>
<path d="M192 0L192 448" stroke="#41424A"/>
<path d="M224 0L224 448" stroke="#41424A"/>
<path d="M256 0L256 448" stroke="#41424A"/>
<path d="M288 0L288 448" stroke="#41424A"/>
<path d="M320 0L320 448" stroke="#41424A"/>
<path d="M352 0L352 448" stroke="#41424A"/>
<line y1="31.5" x2="1057" y2="31.5" stroke="#41424A"/>
<line y1="63.5" x2="1057" y2="63.5" stroke="#41424A"/>
<line y1="95.5" x2="1057" y2="95.5" stroke="#41424A"/>
<line y1="127.5" x2="1057" y2="127.5" stroke="#41424A"/>
<line y1="159.5" x2="1057" y2="159.5" stroke="#41424A"/>
<line y1="191.5" x2="1057" y2="191.5" stroke="#41424A"/>
<line y1="223.5" x2="1057" y2="223.5" stroke="#41424A"/>
<line y1="255.5" x2="1057" y2="255.5" stroke="#41424A"/>
<line y1="287.5" x2="1057" y2="287.5" stroke="#41424A"/>
<line y1="319.5" x2="1057" y2="319.5" stroke="#41424A"/>
<path d="M0 32H287.5V96H360V287H0V32Z" fill="#FF9900" fill-opacity="0.6"/>
<path d="M21.2 78.24V67.2H23.02V65.38H28.66V67.2H30.5V72.8H28.66V74.62H23.22V78.24H21.2ZM23.22 72.6H28.46V67.4H23.22V72.6ZM32.3133 78.24V70.82H34.1333V69H39.7733V70.82H41.6133V72.8H39.5733V71H34.3333V78.24H32.3133ZM45.2466 78.24V76.44H43.4266V70.82H45.2466V69H50.8866V70.82H52.7266V76.44H50.8866V78.24H45.2466ZM45.4466 76.24H50.6866V71H45.4466V76.24ZM56.9653 81.86V80.06H55.1453V78.06H57.1653V79.86H62.4253V76.44H56.9653V74.62H55.1453V70.82H56.9653V69H62.6253V70.82H64.4453V80.06H62.6253V81.86H56.9653ZM57.1653 74.42H62.4253V71H57.1653V74.42ZM66.8641 78.24V70.82H68.6841V69H74.3241V70.82H76.1641V72.8H74.1241V71H68.8841V78.24H66.8641ZM79.7973 78.24V76.44H77.9773V70.82H79.7973V69H85.4373V70.82H87.2773V76.24H89.0973V78.24H87.0773V76.44H85.4373V78.24H79.7973ZM79.9973 76.24H85.2373V71H79.9973V76.24ZM90.907 78.24V69H96.567V70.82H98.167V69H102.027V70.82H103.827V78.24H101.827V71H98.367V78.24H96.367V71H92.927V78.24H90.907ZM110.243 78.24V69H115.903V70.82H117.503V69H121.363V70.82H123.163V78.24H121.163V71H117.703V78.24H115.703V71H112.263V78.24H110.243ZM125.575 78.24V69H127.595V78.24H125.575ZM125.575 67.4V65.38H127.595V67.4H125.575ZM130.009 78.24V76.24H137.269V74.62H131.829V72.8H130.009V70.82H131.829V69H139.309V71H132.029V72.6H137.469V74.42H139.309V76.44H137.469V78.24H130.009ZM141.337 78.24V76.24H148.597V74.62H143.157V72.8H141.337V70.82H143.157V69H150.637V71H143.357V72.6H148.797V74.42H150.637V76.44H148.797V78.24H141.337ZM153.055 78.24V69H155.075V78.24H153.055ZM153.055 67.4V65.38H155.075V67.4H153.055ZM158.918 78.24V76.44H157.098V70.82H158.918V69H164.558V70.82H166.398V76.44H164.558V78.24H158.918ZM159.118 76.24H164.358V71H159.118V76.24ZM168.817 78.24V69H176.277V70.82H178.117V78.24H176.077V71H170.837V78.24H168.817Z" fill="white"/>
<path d="M20.416 135.688L28.416 113.736H32.448L40.256 135.688H36.192L34.208 130.12H26.048L24.064 135.688H20.416ZM30.048 118.408L26.976 127.176H33.216L30.144 118.408H30.048ZM45.3813 135.688L39.9093 113.736H43.9093L47.6533 129.992H47.7493L52.2293 113.736H55.4293L59.8453 129.992H59.9413L63.7173 113.736H67.2693L61.8933 135.688H57.9893L53.7013 119.752H53.6053L49.2533 135.688H45.3813ZM75.278 136.072C72.398 136.072 70.222 135.464 68.718 134.664V131.56C70.478 132.328 72.558 132.904 74.958 132.904C77.902 132.904 79.15 131.688 79.15 129.704C79.15 127.88 78.35 127.176 75.95 126.44L73.87 125.864C70.766 125 68.878 123.336 68.878 119.624C68.878 115.912 71.278 113.384 76.238 113.384C79.118 113.384 80.686 113.928 81.902 114.568V117.64C80.526 117.064 78.734 116.552 76.302 116.552C73.998 116.552 72.718 117.512 72.718 119.272C72.718 121 73.358 121.736 75.534 122.344L77.582 122.984C81.038 123.976 83.118 125.416 83.118 129.32C83.118 133.48 80.59 136.072 75.278 136.072ZM100.748 135.976C95.8835 135.976 92.8755 133.256 92.8755 127.816V127.304C92.8755 121.608 96.3315 118.92 100.908 118.92C103.084 118.92 104.396 119.336 105.452 119.912V122.792C104.076 122.248 103.084 121.896 101.132 121.896C98.3795 121.896 96.6835 123.624 96.6835 126.92V127.656C96.6835 131.432 98.2515 133.032 101.388 133.032C103.404 133.032 104.78 132.392 105.612 132.008V134.696C104.556 135.368 103.02 135.976 100.748 135.976ZM115.044 135.976C110.02 135.976 107.236 132.936 107.236 127.784V127.272C107.236 121.992 110.436 118.92 115.076 118.92C120.004 118.92 122.852 121.928 122.852 127.176V127.624C122.852 132.936 119.652 135.976 115.044 135.976ZM115.108 133.192C117.572 133.192 119.012 131.496 119.012 127.944V127.144C119.012 122.856 117.252 121.704 115.012 121.704C112.484 121.704 111.012 123.464 111.012 127.016V127.784C111.012 132.04 112.804 133.192 115.108 133.192ZM125.617 135.688V119.208H129.169V120.68H129.297C130.705 119.688 132.401 118.92 134.321 118.92C136.209 118.92 137.489 119.496 138.225 120.776H138.417C140.113 119.624 141.969 118.92 143.825 118.92C146.737 118.92 148.369 120.168 148.369 123.432V135.688H144.721V124.296C144.721 122.664 144.081 121.992 142.193 121.992C141.105 121.992 140.017 122.312 138.769 122.92C138.801 123.176 138.833 123.336 138.833 123.656V135.688H135.217V124.296C135.217 122.664 134.545 121.992 132.689 121.992C131.505 121.992 130.289 122.376 129.297 122.888V135.688H125.617ZM151.977 135.688V119.208H155.529V120.68H155.657C157.065 119.688 158.761 118.92 160.681 118.92C162.569 118.92 163.849 119.496 164.585 120.776H164.777C166.473 119.624 168.329 118.92 170.185 118.92C173.097 118.92 174.729 120.168 174.729 123.432V135.688H171.081V124.296C171.081 122.664 170.441 121.992 168.553 121.992C167.465 121.992 166.377 122.312 165.129 122.92C165.161 123.176 165.193 123.336 165.193 123.656V135.688H161.577V124.296C161.577 122.664 160.905 121.992 159.049 121.992C157.865 121.992 156.649 122.376 155.657 122.888V135.688H151.977ZM183.233 135.976C180.033 135.976 178.241 134.408 178.241 131.176V119.208H181.921V130.472C181.921 132.264 182.561 133 184.609 133C186.049 133 187.233 132.488 188.289 132.008V119.208H191.969V135.688H188.769L188.449 134.248H188.289C186.913 135.24 185.313 135.976 183.233 135.976ZM195.635 135.688V119.208H199.187V120.68H199.315C200.723 119.656 202.739 118.92 204.723 118.92C207.891 118.92 209.523 120.2 209.523 123.464V135.688H205.811V124.328C205.811 122.664 205.267 121.992 203.027 121.992C201.747 121.992 200.307 122.408 199.315 122.888V135.688H195.635ZM213.215 135.688V119.208H216.927V135.688H213.215ZM213.215 116.488V113.128H216.959V116.488H213.215ZM226.362 135.88C223.514 135.88 221.69 134.728 221.69 131.624V122.088H219.386V119.208H221.69V115.336H225.306V119.208H229.242V122.088H225.306V131.112C225.306 132.488 225.818 133 227.546 133C228.186 133 228.858 132.904 229.434 132.744V135.208C228.794 135.528 227.898 135.88 226.362 135.88ZM234.04 140.424C233.208 140.424 232.12 140.2 231.64 139.88V137.416C232.056 137.512 232.664 137.576 233.24 137.576C234.744 137.576 235.736 137.192 236.312 135.624L236.76 134.472L230.552 119.208H234.456L238.616 129.896H238.744L242.584 119.208H246.136L239.768 136.136C238.68 139.272 237.08 140.424 234.04 140.424ZM28.608 174.04C26.4 174.04 23.712 173.688 22.176 173.08V150.296H25.856V158.328H26.016C27.232 157.528 28.704 156.92 30.88 156.92C33.952 156.92 37.152 158.808 37.152 164.888V165.272C37.152 171.096 34.176 174.04 28.608 174.04ZM28.832 171.224C31.232 171.224 33.312 170.104 33.312 165.816V165.176C33.312 161.176 32 159.928 29.152 159.928C27.776 159.928 26.528 160.408 25.856 160.728V170.744C26.496 170.968 27.424 171.224 28.832 171.224ZM44.9008 173.976C41.7008 173.976 39.9088 172.408 39.9088 169.176V157.208H43.5888V168.472C43.5888 170.264 44.2288 171 46.2768 171C47.7168 171 48.9008 170.488 49.9568 170.008V157.208H53.6368V173.688H50.4368L50.1168 172.248H49.9568C48.5808 173.24 46.9808 173.976 44.9008 173.976ZM57.3663 173.688V157.208H61.0783V173.688H57.3663ZM57.3663 154.488V151.128H61.1103V154.488H57.3663ZM64.945 173.688V150.296H68.657V173.688H64.945ZM78.3157 173.976C75.0517 173.976 71.6277 171.896 71.6277 165.944V165.528C71.6277 159.48 74.6997 156.92 78.9877 156.92C80.9077 156.92 82.1557 157.432 82.9237 157.848V150.296H86.5717V173.688H83.4357L83.1157 172.376H82.9877C81.9637 173.336 80.4277 173.976 78.3157 173.976ZM79.5957 171.128C81.1317 171.128 82.2837 170.488 82.9237 170.008V160.632C82.3157 160.152 81.0357 159.768 79.5637 159.768C77.0037 159.768 75.4037 161.112 75.4037 165.176V165.784C75.4037 169.88 77.0997 171.128 79.5957 171.128ZM97.5205 173.976C92.0485 173.976 89.3605 170.872 89.3605 165.656V165.208C89.3605 159.672 92.7205 156.952 96.9125 156.952C101.777 156.952 103.889 159.672 103.889 164.92V166.456H93.1365C93.3605 169.88 95.1205 171.096 98.2565 171.096C100.369 171.096 101.905 170.616 103.345 169.88V172.44C102.225 173.176 100.305 173.976 97.5205 173.976ZM96.8485 159.672C95.1525 159.672 93.3925 160.568 93.1365 163.928H100.145C100.145 160.824 98.9925 159.672 96.8485 159.672ZM106.649 173.688V157.208H110.201V159.128H110.329C111.225 157.944 112.921 157.08 114.649 157.08C115.097 157.08 115.513 157.112 115.673 157.176V160.44C115.257 160.376 114.713 160.344 114.329 160.344C112.857 160.344 111.385 160.76 110.329 161.432V173.688H106.649ZM122.583 173.944C120.439 173.944 118.519 173.56 117.143 172.824V170.136C118.519 170.68 119.735 171.16 122.039 171.16C124.343 171.16 125.303 170.392 125.303 169.176C125.303 167.992 124.663 167.416 122.871 167.032L121.335 166.68C118.807 166.168 117.143 164.888 117.143 161.944C117.143 158.904 119.095 156.952 123.255 156.952C125.495 156.952 126.903 157.368 127.991 157.848V160.632C127.031 160.216 125.431 159.736 123.575 159.736C121.655 159.736 120.631 160.376 120.631 161.656C120.631 162.808 121.271 163.224 122.839 163.608L124.407 163.96C127.639 164.696 128.887 165.976 128.887 168.824C128.887 172.248 126.615 173.944 122.583 173.944ZM139.863 173.688V151.736H147.063C153.783 151.736 157.559 154.968 157.559 162.136V162.776C157.559 169.816 154.135 173.688 147.095 173.688H139.863ZM143.799 170.584H147.127C151.415 170.584 153.399 168.472 153.399 163.16V162.104C153.399 156.568 150.999 154.84 146.839 154.84H143.799V170.584ZM164.685 173.976C161.709 173.976 159.629 172.472 159.629 169.304C159.629 166.264 161.645 164.856 164.909 164.376L168.781 163.928V162.68C168.781 160.44 167.789 159.928 165.005 159.928C163.405 159.928 161.997 160.152 161.005 160.376V157.848C162.541 157.24 164.301 156.952 166.445 156.952C170.253 156.952 172.461 158.424 172.461 161.848V173.688H169.421L169.133 172.344H168.941C168.141 173.272 166.829 173.976 164.685 173.976ZM165.805 171.384C166.989 171.384 168.173 170.968 168.781 170.392V166.328L165.741 166.648C164.109 166.776 163.245 167.448 163.245 169.112C163.245 170.68 164.301 171.384 165.805 171.384ZM177.993 178.424C177.161 178.424 176.073 178.2 175.593 177.88V175.416C176.009 175.512 176.617 175.576 177.193 175.576C178.697 175.576 179.689 175.192 180.265 173.624L180.713 172.472L174.505 157.208H178.409L182.569 167.896H182.697L186.537 157.208H190.089L183.721 174.136C182.633 177.272 181.033 178.424 177.993 178.424ZM212.844 173.688L204.748 162.552C207.436 158.936 210.156 155.32 212.876 151.736H216.94L209.068 162.136C211.852 165.976 214.636 169.816 217.388 173.688H212.844ZM200.428 173.688V151.736H204.364V173.688H200.428ZM226.471 173.976C221.447 173.976 218.663 170.936 218.663 165.784V165.272C218.663 159.992 221.863 156.92 226.503 156.92C231.431 156.92 234.279 159.928 234.279 165.176V165.624C234.279 170.936 231.079 173.976 226.471 173.976ZM226.535 171.192C228.999 171.192 230.439 169.496 230.439 165.944V165.144C230.439 160.856 228.679 159.704 226.439 159.704C223.911 159.704 222.439 161.464 222.439 165.016V165.784C222.439 170.04 224.231 171.192 226.535 171.192ZM237.045 173.688V157.208H240.597V159.128H240.725C241.621 157.944 243.317 157.08 245.045 157.08C245.493 157.08 245.909 157.112 246.069 157.176V160.44C245.653 160.376 245.109 160.344 244.725 160.344C243.253 160.344 241.781 160.76 240.725 161.432V173.688H237.045ZM255.699 173.976C250.227 173.976 247.539 170.872 247.539 165.656V165.208C247.539 159.672 250.899 156.952 255.091 156.952C259.955 156.952 262.067 159.672 262.067 164.92V166.456H251.315C251.539 169.88 253.299 171.096 256.435 171.096C258.547 171.096 260.083 170.616 261.523 169.88V172.44C260.403 173.176 258.483 173.976 255.699 173.976ZM255.027 159.672C253.331 159.672 251.571 160.568 251.315 163.928H258.323C258.323 160.824 257.171 159.672 255.027 159.672ZM268.955 173.976C265.979 173.976 263.899 172.472 263.899 169.304C263.899 166.264 265.915 164.856 269.179 164.376L273.051 163.928V162.68C273.051 160.44 272.059 159.928 269.275 159.928C267.675 159.928 266.267 160.152 265.275 160.376V157.848C266.811 157.24 268.571 156.952 270.715 156.952C274.523 156.952 276.731 158.424 276.731 161.848V173.688H273.691L273.403 172.344H273.211C272.411 173.272 271.099 173.976 268.955 173.976ZM270.075 171.384C271.259 171.384 272.443 170.968 273.051 170.392V166.328L270.011 166.648C268.379 166.776 267.515 167.448 267.515 169.112C267.515 170.68 268.571 171.384 270.075 171.384ZM302.414 166.909H279.069V164.183H302.414V166.909ZM299.543 161.283H282.201V152.293H285.594V158.586H299.543V161.283ZM299.717 176.595H282.056V168.968H285.42V173.898H299.717V176.595Z" fill="white"/>
<path d="M27.712 213.608C27.696 218.568 25.312 221.592 21.376 223.64L20.464 222.6C22.64 221.592 24.416 220.072 25.408 218.072L20.928 218.504L20.672 217.256L25.872 216.904C26.08 216.248 26.192 215.56 26.24 214.808H21.232V213.608H27.712ZM30.656 218.808H27.648V217.608H30.656V212.136H32.064V226.12H30.656V218.808ZM45.4918 218.52H36.0518V212.968H45.4918V218.52ZM39.0278 226.136H37.6198V221.368H34.4518V220.216H47.0758V221.368H43.8598V226.136H42.4518V221.368H39.0278V226.136ZM44.0838 217.352V214.104H37.4758V217.352H44.0838ZM59.7515 212.136V226.12H58.3435V212.136H59.7515ZM57.0315 220.84L57.2075 221.992C55.5755 222.392 52.4235 222.632 50.4395 222.664H49.1275V213.592H50.5515V221.448C52.3915 221.448 55.4155 221.224 57.0315 220.84ZM70.7153 221.176L70.9233 222.328C69.4513 222.616 66.8753 222.776 64.2673 222.808C63.8033 222.824 63.3233 222.824 62.8433 222.824V213.432H69.4353V214.568H64.2513V217.384H69.1633V218.536H64.2513V221.624C66.5713 221.624 69.2753 221.512 70.7153 221.176ZM73.6593 226.12H72.2353V212.136H73.6593V226.12ZM87.7973 224.52C86.8853 224.52 85.5413 224.344 84.8693 224.104V212.872H86.2293V216.856H86.3093C86.9173 216.488 87.6373 216.216 88.6933 216.216C90.1813 216.216 91.7812 217.128 91.7812 220.088V220.328C91.7812 222.968 90.4213 224.52 87.7973 224.52ZM87.8932 223.368C89.1893 223.368 90.3893 222.76 90.3893 220.536V220.184C90.3893 218.088 89.6533 217.384 88.0533 217.384C87.3173 217.384 86.5973 217.672 86.2293 217.832V223.112C86.5653 223.24 87.0933 223.368 87.8932 223.368ZM95.8939 224.472C94.3099 224.472 93.4619 223.672 93.4619 222.136V216.376H94.8059V221.912C94.8059 222.888 95.1419 223.304 96.2939 223.304C97.1099 223.304 97.7819 223.016 98.3419 222.728V216.376H99.7179V224.328H98.5659L98.4059 223.64H98.3259C97.6699 224.104 96.8539 224.472 95.8939 224.472ZM101.933 224.328V216.376H103.309V224.328H101.933ZM101.933 214.808V213.384H103.325V214.808H101.933ZM105.558 224.328V212.872H106.934V224.328H105.558ZM111.967 224.472C110.447 224.472 108.687 223.528 108.687 220.6V220.376C108.687 217.48 110.191 216.216 112.223 216.216C113.199 216.216 113.839 216.472 114.255 216.712V212.872H115.615V224.328H114.463L114.335 223.688H114.255C113.791 224.152 113.023 224.472 111.967 224.472ZM112.415 223.352C113.295 223.352 113.919 223 114.255 222.728V217.848C113.919 217.576 113.199 217.384 112.399 217.384C110.943 217.384 110.111 218.12 110.111 220.2V220.552C110.111 222.696 111.039 223.352 112.415 223.352ZM121.087 224.472C118.575 224.472 117.295 222.92 117.295 220.472V220.232C117.295 217.464 118.943 216.216 120.799 216.216C122.975 216.216 124.015 217.48 124.015 219.976V220.744H118.703C118.799 222.632 119.727 223.304 121.311 223.304C122.367 223.304 123.055 223.08 123.775 222.696V223.704C123.311 224.056 122.399 224.472 121.087 224.472ZM120.735 217.32C119.839 217.32 118.831 217.816 118.703 219.64H122.575C122.575 217.976 121.935 217.32 120.735 217.32ZM125.697 224.328V216.376H126.993V217.256H127.073C127.505 216.728 128.369 216.28 129.233 216.28C129.425 216.28 129.649 216.312 129.729 216.344V217.56C129.505 217.528 129.249 217.512 129.121 217.512C128.369 217.512 127.617 217.752 127.057 218.12V224.328H125.697ZM134.783 213.048C136.927 213.048 138.639 214.424 138.639 216.44C138.639 218.232 137.311 219.416 135.551 219.688V221.976C137.039 221.88 138.319 221.8 139.231 221.656L139.375 222.792C138.207 222.952 136.223 223.096 134.559 223.176C133.055 223.272 131.727 223.32 130.591 223.32L130.383 222.104C131.487 222.104 132.783 222.104 134.143 222.056V219.704C132.335 219.48 130.975 218.264 130.975 216.456C130.975 214.44 132.671 213.048 134.783 213.048ZM143.679 219.096H141.519V226.12H140.127V212.136H141.519V217.912H143.679V219.096ZM134.783 214.248C133.487 214.248 132.431 215.112 132.431 216.44C132.431 217.736 133.503 218.552 134.783 218.552C136.127 218.552 137.135 217.752 137.135 216.44C137.135 215.08 136.143 214.248 134.783 214.248ZM149.182 224.328V212.872H150.542V217.032H150.622C151.262 216.584 152.254 216.216 153.23 216.216C154.798 216.216 155.534 216.872 155.534 218.408V224.328H154.19V218.696C154.19 217.784 153.886 217.4 152.638 217.4C151.934 217.4 151.118 217.656 150.542 217.928V224.328H149.182ZM160.962 224.472C158.45 224.472 157.17 222.92 157.17 220.472V220.232C157.17 217.464 158.818 216.216 160.674 216.216C162.85 216.216 163.89 217.48 163.89 219.976V220.744H158.578C158.674 222.632 159.602 223.304 161.186 223.304C162.242 223.304 162.93 223.08 163.65 222.696V223.704C163.186 224.056 162.274 224.472 160.962 224.472ZM160.61 217.32C159.714 217.32 158.706 217.816 158.578 219.64H162.45C162.45 217.976 161.81 217.32 160.61 217.32ZM165.572 224.328V216.376H166.868V217.256H166.948C167.38 216.728 168.244 216.28 169.108 216.28C169.3 216.28 169.524 216.312 169.604 216.344V217.56C169.38 217.528 169.124 217.512 168.996 217.512C168.244 217.512 167.492 217.752 166.932 218.12V224.328H165.572ZM174.13 224.472C171.842 224.472 170.514 223 170.514 220.52V220.248C170.514 217.752 171.97 216.216 174.146 216.216C176.418 216.216 177.778 217.704 177.778 220.2V220.456C177.778 222.952 176.306 224.472 174.13 224.472ZM174.162 223.352C175.554 223.352 176.354 222.376 176.354 220.6V220.168C176.354 218.024 175.346 217.336 174.114 217.336C172.722 217.336 171.922 218.328 171.922 220.104V220.552C171.922 222.696 172.93 223.352 174.162 223.352ZM189.767 212.136V217.864H192.007V219.048H189.767V226.12H188.359V212.136H189.767ZM186.087 213.624C186.007 218.072 183.671 221.336 179.847 223.416L178.983 222.344C182.279 220.76 184.311 217.832 184.567 214.824H179.591V213.624H186.087ZM209.894 216.792H207.814V220.424H206.39V212.136H207.814V215.608H209.894V216.792ZM198.438 221.112H207.814V226.184H206.406V222.28H198.438V221.112ZM197.574 213.064H203.926C203.782 216.824 201.222 219.144 197.606 220.12L196.886 218.968C199.478 218.456 201.99 216.664 202.374 214.264H197.574V213.064ZM219.098 221.816L218.266 222.856C216.906 222.088 215.322 220.344 214.874 218.792C214.442 220.376 213.05 222.168 211.37 223.208L210.458 222.168C212.618 220.936 214.138 218.568 214.138 215.912V214.76H210.986V213.592H218.682V214.76H215.594V215.896C215.594 218.6 217.114 220.712 219.098 221.816ZM223.85 218.904H221.658V226.12H220.25V212.136H221.658V217.72H223.85V218.904ZM234.878 212.136H236.27V226.12H234.878V212.136ZM232.862 216.552C232.862 218.488 231.23 219.736 229.198 219.736C227.134 219.736 225.55 218.44 225.55 216.552C225.55 214.616 227.15 213.256 229.198 213.256C231.262 213.256 232.862 214.552 232.862 216.552ZM231.47 216.536C231.47 215.256 230.462 214.44 229.198 214.44C227.966 214.44 226.958 215.32 226.958 216.536C226.958 217.736 227.966 218.552 229.198 218.552C230.414 218.552 231.47 217.752 231.47 216.536ZM234.126 222.584C232.846 222.744 230.782 222.872 229.006 222.968C227.422 223.048 225.95 223.08 224.83 223.096L224.606 221.88C225.95 221.88 227.582 221.864 229.23 221.784C231.214 221.704 232.862 221.592 233.982 221.464L234.126 222.584ZM243.133 214.504V213.336H250.669V214.504H247.661V215.16C247.661 217.144 249.341 218.824 250.925 219.304L250.141 220.44C248.893 219.944 247.533 218.68 246.957 217.4C246.509 218.744 245.005 220.248 243.549 220.84L242.717 219.72C244.525 219.064 246.221 217.144 246.221 215.192V214.504H243.133ZM254.221 222.344H252.797V217.096H250.109V215.944H252.797V212.136H254.221V222.344ZM254.525 225.688H245.021V221.352H246.429V224.536H254.525V225.688ZM267.632 217.816H258.192V212.888H267.632V217.816ZM263.664 223.176H262.256V220.44H256.592V219.304H269.216V220.44H263.664V223.176ZM266.224 216.648V214.056H259.616V216.648H266.224ZM267.824 225.704H258.16V221.832H259.584V224.552H267.824V225.704ZM285.679 217.992H276.207V212.584H277.631V214.232H284.271V212.568H285.679V217.992ZM281.711 223.16H280.303V220.584H274.639V219.432H287.263V220.584H281.711V223.16ZM285.791 225.704H276.207V221.864H277.631V224.552H285.791V225.704ZM284.271 216.84V215.352H277.631V216.84H284.271ZM288.643 218.072C288.643 215.304 289.763 213.128 292.227 213.128C294.723 213.128 295.827 215.304 295.827 218.088C295.827 220.84 294.723 223.016 292.227 223.016C289.763 223.016 288.643 220.84 288.643 218.072ZM294.419 218.088C294.419 215.912 293.667 214.344 292.227 214.344C290.787 214.344 290.067 215.912 290.067 218.088C290.067 220.232 290.787 221.8 292.227 221.8C293.667 221.8 294.419 220.232 294.419 218.088ZM301.507 215.576V216.776H299.283V219.96H301.507V221.128H299.283V226.12H297.875V212.136H299.283V215.576H301.507ZM305.655 213.24C307.607 213.24 308.615 215.08 308.727 217.592H310.087V212.408H311.431V225.464H310.087V218.76H308.727C308.599 221.24 307.591 223.048 305.655 223.048C303.575 223.048 302.583 220.92 302.583 218.12C302.583 215.336 303.575 213.24 305.655 213.24ZM307.351 218.136C307.351 215.96 306.791 214.44 305.655 214.44C304.551 214.44 303.975 215.96 303.975 218.136C303.975 220.328 304.551 221.832 305.655 221.832C306.791 221.832 307.351 220.328 307.351 218.136ZM314.135 226.12H312.791V212.136H314.135V226.12ZM32.416 250.12H31.056V242.664H29.392V249.432H28.032V236.44H29.392V241.512H31.056V236.136H32.416V250.12ZM22.448 245.416H22.704C24.336 245.416 26.08 245.288 27.168 245.048L27.36 246.216C26.144 246.472 24.128 246.6 22.384 246.6H21.04V237.864H26.496V239.016H22.448V245.416ZM47.3478 242.024H45.2518V246.44H43.8438V236.136H45.2518V240.824H47.3478V242.024ZM45.7318 249.704H36.4038V246.04H37.8118V248.568H45.7318V249.704ZM40.4358 237.72H36.3718V236.568H40.4358V237.72ZM42.5798 239.816H34.3717V238.68H42.5798V239.816ZM41.7958 242.984C41.7958 244.52 40.3878 245.48 38.4838 245.48C36.6118 245.48 35.1878 244.536 35.1878 242.984C35.1878 241.4 36.5958 240.472 38.4838 240.472C40.3878 240.472 41.7958 241.4 41.7958 242.984ZM40.3878 242.984C40.3878 242.088 39.5078 241.608 38.4838 241.608C37.4758 241.608 36.5958 242.088 36.5958 242.984C36.5958 243.832 37.4758 244.344 38.4838 244.344C39.5078 244.344 40.3878 243.832 40.3878 242.984ZM64.3066 250.12H62.9466V236.136H64.3066V250.12ZM61.5386 249.432H60.1946V242.264H57.9866V241.096H60.1946V236.456H61.5386V249.432ZM59.4586 245.64L58.5946 246.632C57.5546 245.928 56.3226 244.36 55.9066 242.84C55.5706 244.392 54.4026 246.056 53.0266 247L52.1466 246.008C53.7946 244.952 55.2186 242.664 55.2186 239.848V237.464H56.5786V239.832C56.5786 242.536 57.8746 244.648 59.4586 245.64ZM73.9744 242.248V241.08H76.3904V239.336H73.9744V238.184H76.3904V236.136H77.8144V246.264H76.3904V242.248H73.9744ZM74.4864 243.256L73.6704 244.36C72.3584 243.784 71.0304 242.488 70.4224 241.08C70.0064 242.568 68.5024 244.152 67.0624 244.824L66.1824 243.704C68.1024 242.904 69.6864 240.952 69.6864 238.76V236.936H71.1264V238.696C71.1264 240.968 72.8544 242.68 74.4864 243.256ZM78.1184 249.72H68.7584V245.384H70.1664V248.568H78.1184V249.72ZM93.2101 243.16H91.0661V250.12H89.6581V236.136H91.0661V241.992H93.2101V243.16ZM88.9061 246.696C87.5781 246.888 85.5301 247.032 84.0901 247.112C82.6821 247.176 81.2101 247.208 80.0741 247.208L79.8661 246.024C80.7141 246.024 81.8501 246.024 82.8741 245.992V241.56H84.2501V245.944C86.0261 245.864 87.5461 245.768 88.7301 245.592L88.9061 246.696ZM87.9941 237.544C87.9941 240.072 87.8501 242.584 87.5301 243.96L86.1701 243.784C86.4421 242.584 86.5701 240.552 86.5701 238.696H80.6981V237.544H87.9941ZM109.705 246.296H108.281V236.136H109.705V246.296ZM110.025 249.688H100.505V245.336H101.929V248.552H110.025V249.688ZM102.281 237.08C104.441 237.08 106.025 238.568 106.025 240.568C106.025 242.584 104.441 243.976 102.281 243.976C100.137 243.976 98.553 242.584 98.553 240.584C98.553 238.568 100.137 237.08 102.281 237.08ZM102.281 238.296C100.969 238.296 100.041 239.256 100.041 240.552C100.041 241.832 100.969 242.792 102.281 242.792C103.657 242.792 104.521 241.848 104.521 240.568C104.521 239.24 103.657 238.296 102.281 238.296ZM125.053 242.872H122.877V250.12H121.469V236.136H122.877V241.704H125.053V242.872ZM120.317 245.656L119.469 246.712C118.221 245.896 116.589 244.152 116.061 242.536C115.581 244.232 114.189 246.008 112.605 247.064L111.725 246.008C113.837 244.68 115.325 242.248 115.325 239.672V237.336H116.781V239.608C116.781 242.232 118.349 244.44 120.317 245.656ZM137.457 250.12H136.033V236.136H137.457V250.12ZM126.417 242.12C126.417 239.352 127.537 237.192 130.016 237.192C132.497 237.192 133.601 239.352 133.601 242.136C133.601 244.904 132.497 247.08 130.016 247.08C127.537 247.08 126.417 244.904 126.417 242.12ZM132.193 242.136C132.193 239.976 131.457 238.408 130.016 238.408C128.593 238.408 127.857 239.976 127.857 242.136C127.857 244.296 128.593 245.848 130.016 245.848C131.457 245.848 132.193 244.296 132.193 242.136ZM150.42 241.608H142.692V243.592H150.868V244.76H141.284V237.464H150.74V238.616H142.692V240.488H150.42V241.608ZM152.388 248.344H139.764V247.192H152.388V248.344ZM166.232 243.688H153.608V242.6H166.232V243.688ZM165.224 249.864H155.048V246.776H163.368V245.736H155.048V244.664H164.776V247.768H156.456V248.792H165.224V249.864ZM164.984 241.608H155.192V238.648H163.288V237.672H155.208V236.616H164.696V239.608H156.616V240.552H164.984V241.608ZM178.791 245.896L177.943 246.904C176.967 246.264 175.495 244.664 175.111 243.272C174.807 244.744 173.575 246.328 172.295 247.192L171.399 246.216C173.143 245.096 174.423 242.984 174.423 240.248V238.936H171.703V237.8H178.391V238.936H175.815V240.2C175.815 243.064 177.271 244.968 178.791 245.896ZM180.695 249.432H179.351V242.328H177.271V241.16H179.351V236.456H180.695V249.432ZM183.463 250.12H182.103V236.136H183.463V250.12ZM196.587 247.48C196.587 249.08 194.875 250.088 191.755 250.088C188.619 250.088 186.875 249.08 186.875 247.48C186.875 245.864 188.619 244.856 191.755 244.856C194.875 244.856 196.587 245.864 196.587 247.48ZM198.123 243.816H185.499V242.664H190.651V239.752H192.059V242.664H198.123V243.816ZM195.147 247.48C195.147 246.536 193.819 246.008 191.755 246.008C189.659 246.008 188.331 246.536 188.331 247.48C188.331 248.44 189.659 248.952 191.755 248.952C193.819 248.952 195.147 248.44 195.147 247.48ZM196.619 236.872C196.619 237.4 196.603 237.8 196.603 238.264C196.571 239.512 196.427 240.888 196.203 241.832C195.755 241.784 195.291 241.72 194.827 241.656C195.115 240.552 195.195 239.224 195.195 238.024H187.019V236.872H196.619ZM212.366 243.144H210.142V250.12H208.718V236.136H210.142V241.96H212.366V243.144ZM205.518 238.2H201.342V237.048H205.518V238.2ZM207.55 240.6H199.262V239.464H207.55V240.6ZM206.766 244.344C206.766 245.992 205.454 247.272 203.47 247.272C201.486 247.272 200.158 246.024 200.158 244.344C200.158 242.696 201.486 241.384 203.47 241.384C205.454 241.384 206.766 242.664 206.766 244.344ZM205.374 244.344C205.374 243.304 204.558 242.568 203.47 242.568C202.382 242.568 201.582 243.304 201.582 244.344C201.582 245.368 202.366 246.088 203.47 246.088C204.622 246.088 205.374 245.368 205.374 244.344ZM225.81 244.408H213.186V243.256H225.81V244.408ZM224.482 249.816H214.866V245.672H216.274V248.648H224.482V249.816ZM224.418 241.608H214.914V236.712H216.322V240.456H224.418V241.608ZM243.201 247.672C243.201 249.192 241.425 250.104 238.465 250.104C235.505 250.104 233.713 249.192 233.713 247.672C233.713 246.168 235.505 245.256 238.465 245.256C241.425 245.256 243.201 246.168 243.201 247.672ZM243.041 245.304H241.681V241.256H240.145V244.808H238.801V236.392H240.145V240.088H241.681V236.136H243.041V245.304ZM237.793 242.632C237.793 243.976 236.705 244.856 234.785 244.856C232.865 244.856 231.761 243.976 231.761 242.632C231.761 241.272 232.865 240.376 234.785 240.376C236.705 240.376 237.793 241.272 237.793 242.632ZM238.465 246.36C236.417 246.36 235.153 246.872 235.153 247.672C235.153 248.488 236.417 249 238.465 249C240.497 249 241.761 248.488 241.761 247.672C241.761 246.872 240.497 246.36 238.465 246.36ZM238.337 239.864H231.153V238.728H238.337V239.864ZM236.433 242.632C236.433 242.008 235.825 241.576 234.785 241.576C233.745 241.576 233.121 242.008 233.121 242.632C233.121 243.256 233.745 243.688 234.785 243.688C235.825 243.688 236.433 243.256 236.433 242.632ZM236.513 237.88H232.849V236.744H236.513V237.88ZM258.053 242.872H255.877V250.12H254.469V236.136H255.877V241.704H258.053V242.872ZM253.317 245.656L252.469 246.712C251.221 245.896 249.589 244.152 249.061 242.536C248.581 244.232 247.189 246.008 245.605 247.064L244.725 246.008C246.837 244.68 248.325 242.248 248.325 239.672V237.336H249.781V239.608C249.781 242.232 251.349 244.44 253.317 245.656ZM270.393 243.624H268.969V236.136H270.393V243.624ZM270.409 249.944H261.321V244.392H262.729V246.04H268.985V244.376H270.409V249.944ZM268.985 248.808V247.16H262.729V248.808H268.985ZM262.905 236.792C264.905 236.792 266.473 238.12 266.473 240.104C266.473 242.104 264.905 243.368 262.905 243.368C260.905 243.368 259.321 242.104 259.321 240.12C259.321 238.152 260.905 236.792 262.905 236.792ZM262.905 238.024C261.689 238.024 260.745 238.824 260.745 240.088C260.745 241.352 261.689 242.136 262.905 242.136C264.137 242.136 265.049 241.352 265.049 240.104C265.049 238.824 264.153 238.024 262.905 238.024ZM284.22 236.136V250.12H282.812V236.136H284.22ZM281.5 244.84L281.676 245.992C280.044 246.392 276.892 246.632 274.908 246.664H273.596V237.592H275.02V245.448C276.86 245.448 279.884 245.224 281.5 244.84ZM288.608 245.528H289.184C291.024 245.528 293.6 245.384 295.008 245.08L295.168 246.232C293.712 246.536 291.312 246.696 288.768 246.712H287.2V237.608H293.808V238.776H288.608V245.528ZM297.408 236.136V241.592H299.584V242.776H297.408V250.12H296V236.136H297.408ZM300.548 248.696V247.128H302.1V248.696H300.548Z" fill="white"/>
</g>
<defs>
<clipPath id="clip0_93_821">
<rect width="360" height="320" fill="white"/>
</clipPath>
</defs>
</svg>
