<svg width="360" height="224" viewBox="0 0 360 224" fill="none" xmlns="http://www.w3.org/2000/svg">
<g clip-path="url(#clip0_126_1803)">
<path d="M20 0L20 224" stroke="#41424A"/>
<path d="M52 0L52 224" stroke="#41424A"/>
<path d="M84 0L84 224" stroke="#41424A"/>
<path d="M116 0L116 224" stroke="#41424A"/>
<path d="M148 0L148 224" stroke="#41424A"/>
<path d="M180 0L180 224" stroke="#41424A"/>
<path d="M212 0L212 224" stroke="#41424A"/>
<path d="M244 0L244 224" stroke="#41424A"/>
<path d="M276 0L276 224" stroke="#41424A"/>
<path d="M308 0L308 224" stroke="#41424A"/>
<path d="M340 0L340 224" stroke="#41424A"/>
<line y1="31.5" x2="360" y2="31.5" stroke="#41424A"/>
<line y1="63.5" x2="360" y2="63.5" stroke="#41424A"/>
<line y1="95.5" x2="360" y2="95.5" stroke="#41424A"/>
<line y1="127.5" x2="360" y2="127.5" stroke="#41424A"/>
<line y1="159.5" x2="360" y2="159.5" stroke="#41424A"/>
<line y1="191.5" x2="360" y2="191.5" stroke="#41424A"/>
<line y1="223.5" x2="360" y2="223.5" stroke="#41424A"/>
<path d="M37.5 32H127.5V64L319.5 64.0359L320 191.036L37.5 190.5V32Z" fill="#703FFF" fill-opacity="0.6"/>
<rect x="288.5" y="32" width="31" height="31" fill="#703FFF" fill-opacity="0.6"/>
<rect x="224.5" width="63" height="31" fill="#703FFF" fill-opacity="0.6"/>
<rect x="192.5" y="32" width="31" height="31" fill="#703FFF" fill-opacity="0.6"/>
<rect x="320.5" width="63" height="63" fill="#703FFF" fill-opacity="0.6"/>
<path d="M59.2 82.24V69.38H66.66V71.2H68.5V73.2H66.46V71.4H61.22V74.82H64.86V76.8H61.22V82.24H59.2ZM69.7273 82.24V73H71.5473V71.2H73.3473V69.38H75.3873V71.2H77.1873V73H79.0273V82.24H76.9873V78.62H71.7473V82.24H69.7273ZM71.7473 76.6H76.9873V73.2H75.1873V71.4H73.5473V73.2H71.7473V76.6ZM86.9061 85.84V84.06H85.0661V82.24H83.2661V80.44H81.4461V71.2H83.2661V69.38H88.9061V71.2H90.7461V80.44H88.9061V82.24H87.1061V83.86H88.9061V85.84H86.9061ZM83.4661 80.24H88.7061V71.4H83.4661V80.24Z" fill="white"/>
<path d="M81.856 144.054L79.126 147.624C75.682 145.902 71.23 141.072 70.138 137.46C69.214 141.282 65.434 146.28 61.066 148.422L58.042 144.768C64.258 141.366 67.534 135.612 67.534 127.758V126.75H59.974V122.718H79.924V126.75H72.616V127.716C72.616 135.612 76.228 140.946 81.856 144.054ZM88.534 118.896V133.302H93.868V137.376H88.534V156.318H83.62V118.896H88.534ZM98.4138 136.62L96.2718 132.798C101.9 132.21 108.116 128.85 108.956 124.398H97.7838V120.492H125.504V124.398H114.332C115.214 128.85 121.472 132.042 127.058 132.63C126.386 133.932 125.672 135.192 125 136.452C120.128 135.906 113.702 132.504 111.644 128.934C109.67 132.756 103.538 135.948 98.4138 136.62ZM114.038 156.276H109.082V143.256H94.7598V139.35H128.57V143.256H114.038V156.276ZM170.399 155.856H144.779V142.962H154.817V139.602H140.453V135.654H174.263V139.602H159.731V142.962H169.979V146.868H149.651V151.95H170.399V155.856ZM169.769 132.756H144.947V119.82H169.769V132.756ZM164.771 128.934V123.642H149.861V128.934H164.771ZM209.763 141.282H175.953V137.334H209.763V141.282ZM205.605 133.134H180.489V120.114H185.403V129.228H205.605V133.134ZM205.857 155.31H180.279V144.264H185.151V151.404H205.857V155.31ZM253.734 156.024H227.988V146.028H247.686V143.634H227.736V139.728H252.558V149.64H232.944V152.076H253.734V156.024ZM223.326 124.818V120.912H243.066V124.818H236.01C236.682 129.564 240.294 132.378 244.158 133.596L241.47 137.418C238.656 136.41 235.086 133.47 233.406 130.236C232.272 133.932 228.408 137.208 224.796 138.468L221.856 134.73C226.728 132.924 230.172 129.69 230.76 124.818H223.326ZM252.558 137.838H247.686V118.896H252.558V137.838ZM286.462 120.324V133.848H261.598V120.324H286.462ZM276.844 148.128H271.93V141.24H257.146V137.334H290.956V141.24H276.844V148.128ZM287.05 155.31H261.472V144.6H266.386V151.446H287.05V155.31ZM281.548 129.942V124.23H266.554V129.942H281.548Z" fill="white"/>
</g>
<defs>
<clipPath id="clip0_126_1803">
<rect width="360" height="224" fill="white"/>
</clipPath>
</defs>
</svg>
